<svg width="100" height="100">
    <defs>
        <radialGradient gradientTransform="matrix(12.98556 50.21542 -53.84909 13.92522 34.141 35.058)"
            gradientUnits="userSpaceOnUse" r="1" cy="0" cx="0" id="prefix__a">
            <stop stop-color="#FF9E58" />
            <stop stop-color="#FF5631" offset="1" />
        </radialGradient>
    </defs>
    <rect x="-3.703" y="13.86" width="90.117" height="89.11" rx="25.172" transform="rotate(-7.63)" fill-opacity=".15" />
    <rect y="8.826" x="-3.703" width="90.117" height="90.117" rx="25.172" transform="rotate(-7.63)" fill="#df382d" />
    <rect x="-1.689" y="10.839" width="86.09" height="79.545" rx="23.159" transform="rotate(-7.63)"
        fill="url(#prefix__a)" />
    <path
        d="M61.805 71.647c-1.705 1.754-2.047 3.707-.684 5.367l.02.016 3.46 3.806-3.607 3.023c-2.047 1.952-1.022 4.148-.058 5.367 2.051 1.705 4.778 1.07 5.853-.148l2.78-2.533 2.586 3.072.05.05c1.998 1.948 3.608 1.804 5.849.729 1.853-2.047 1.808-4.099.123-5.85l-2.632-3.22 3.415-3.171.029-.025c1.462-1.854 1.17-3.608.078-5.367-1.755-1.606-4.193-2.047-6.343.148l-2.533 2.39-2.925-3.267-.024-.016a3.806 3.806 0 00-5.437-.371zm29.264-9.753l-6.829 3.365-.045.028c-1.368.828-2.196 1.998-2.39 3.267-.189 1.268.22 2.438.73 3.513l.008.029.099.165.07.094c1.219 1.512 3.266 1.607 4.877 1.026l-1.12 16.582c.143 2.73 1.803 4.683 4.435 4.877 2.73.11 4.877-1.269 5.367-4.243v-.012l1.656-23.897v-.013a4.852 4.852 0 00-.878-3.414c-.939-1.21-4.028-2.306-5.98-1.367z"
        color="#000" fill="#fff" stroke="#191c1d" stroke-width="3.806" paint-order="stroke fill markers" />
    <path
        d="M46.162 29.586c1.7-.37 2.986-.107 4.374.877l.012.008.013.009c1.441.988 2.285 2.265 2.71 4.213.424 1.948.177 3.46-.721 4.955l-.008.012-.008.013c-.857 1.474-1.916 2.244-3.62 2.615-1.648.354-2.95.095-4.404-.898-1.433-.988-2.286-2.265-2.706-4.213-.424-1.948-.181-3.46.72-4.955.907-1.508 1.986-2.278 3.638-2.636zm-2.509-11.55a18.094 18.094 0 00-8.505 4.358 18.679 18.679 0 00-5.12 7.95v.008a17.962 17.962 0 00-.46 9.477 17.834 17.834 0 004.419 8.436l.008.004v.008c2.187 2.315 4.765 4.044 7.66 5.12l.021.008.025.008c2.928 1.013 5.849 1.26 8.62.659.77-.165 1.504-.412 2.22-.692-.312.498-.527 1.025-.893 1.507l-.004.009-.008.008a19.086 19.086 0 01-6.323 5.527l-.004.004h-.004a7.826 7.826 0 00-3.13 3.032v.008a6.137 6.137 0 00-.61 4.238c.37 1.718 1.339 3.295 2.875 4.082l.029.016.033.017c1.363.642 2.924.729 4.448.4a8.643 8.643 0 002.006-.713l.029-.013.029-.016c5.255-2.805 9.226-6.537 11.722-11.15 2.45-4.452 3.863-8.979 4.168-13.526.325-4.427.124-8.423-.655-11.99a23.835 23.835 0 00-4.325-9.48h-.004A19.482 19.482 0 0053.905 19a16.541 16.541 0 00-10.252-.964z"
        fill-opacity=".478" stroke="#545454" stroke-width=".821" />
    <path
        d="M43.657 18.033a18.094 18.094 0 00-8.509 4.366 18.687 18.687 0 00-5.12 7.945v.008a17.958 17.958 0 00-.037 11.046 17.822 17.822 0 01.73-7.833v-.009h.003c1.03-3.093 2.76-5.782 5.12-7.949a18.094 18.094 0 018.505-4.358 16.537 16.537 0 0110.252.964c3.172 1.339 5.873 3.489 8.015 6.335 1.812 2.376 3.13 5.054 3.95 7.97a32.197 32.197 0 00-.317-1.697 23.86 23.86 0 00-4.325-9.482 19.474 19.474 0 00-8.019-6.338 16.537 16.537 0 00-10.248-.964zm-1.952 20.182c.54 2.327 1.236 4.765 3.501 6.384 1.454 1 2.76 1.256 4.407.898 1.701-.371 2.76-1.137 3.617-2.612l.008-.016.008-.012c1.236-2.665 1.03-4.572.556-7.192.016 1.207-.622 2.937-1.252 3.983l-.008.012-.009.013c-.856 1.474-1.915 2.244-3.62 2.615-1.647.354-2.949.099-4.403-.898-1.005-.692-2.319-2.067-2.8-3.18zm12.167 17.554l-.44-3.172c-1.22 1.158-6.673 7.06-8.119 7.834l-.008.005c-1.318.716-2.418 1.754-3.13 3.03v.01a6.137 6.137 0 00-.61 4.241c.124.56.317 1.108.569 1.62a6.046 6.046 0 01.733-2.653l.004-.004c.712-1.281 1.812-2.315 3.13-3.032h.004l.004-.004a19.111 19.111 0 006.323-5.527l.004-.009.008-.008c.37-.482 1.161-1.738 1.528-2.331z"
        fill-opacity=".2" />
</svg>