<svg width="120" height="120">
    <defs>
        <linearGradient id="grd" x1="60" x2="60" y1="20" y2="100" gradientUnits="userSpaceOnUse">
            <stop stop-color="#9fd572" offset="0" />
            <stop stop-color="#3e9551" offset=".4" />
            <stop stop-color="#3873b6" offset="1" />
        </linearGradient>
    </defs>
    <path fill="url(#grd)" stroke="#adf" stroke-width="5.238" stroke-linecap="round" stroke-linejoin="bevel"
        stroke-miterlimit="8"
        d="M46.5 96.1l-.009-46-8.65 8.21c-5.59 4.79-14.4 1.82-18.4-3.19-4.04-5.16-3.04-13.3 2.27-18.7l29.6-29.2c5.68-5 15.2-3.98 19.9 1.82l28.4 29.3c4.32 4.78 4.81 12.6.594 17.6-3.98 4.65-11.2 6.31-16.6 3.11l-10.3-8.91v38l14.7.004c7.89-.078 15.4 5.03 15.4 13 0 7.92-6.47 14.1-15.2 14.1l-25.1-.078c-11.2-.11-16.5-11-16.6-19z"
        fill="url(#prefix__b)" stroke="#adf" stroke-width="5.238" stroke-linecap="round" stroke-linejoin="bevel"/>
</svg>