<svg width="120" height="120">
    <defs>
        <linearGradient id="grd" x1="60" x2="60" y1="20" y2="100" gradientUnits="userSpaceOnUse">
            <stop stop-color="#9fd572" offset="0" />
            <stop stop-color="#3e9551" offset=".4" />
            <stop stop-color="#3873b6" offset="1" />
        </linearGradient>
    </defs>
    <path fill="url(#grd)" stroke="#adf" stroke-width="5.238" stroke-linecap="round" stroke-linejoin="bevel"
        stroke-miterlimit="8"
        d="M74.009 96.087l.008-46.008 8.653 8.211c5.588 4.794 14.446 1.825 18.361-3.187 4.039-5.164 3.039-13.28-2.27-18.684L69.137 7.244c-5.68-4.999-15.192-3.977-19.933 1.825L20.84 38.327c-4.322 4.78-4.811 12.616-.594 17.615 3.981 4.649 11.246 6.312 16.606 3.108l10.26-8.915V88.16l-14.721.005c-7.889-.079-15.376 5.033-15.376 12.957 0 7.923 6.474 14.092 15.232 14.092l25.124-.079c11.206-.109 16.484-10.975 16.641-19.047z"/>
</svg>