<svg width="120" height="120">
    <defs>
        <linearGradient id="grd" x1="60" x2="60" y1="20" y2="100" gradientUnits="userSpaceOnUse">
            <stop stop-color="#9fd572" offset="0" />
            <stop stop-color="#3e9551" offset=".4" />
            <stop stop-color="#3873b6" offset="1" />
        </linearGradient>
    </defs>
    <path fill="url(#grd)" stroke="#adf" stroke-width="5.238" stroke-linecap="round" stroke-linejoin="bevel"
        stroke-miterlimit="8"
        d="M73.66 99.434l-.03-48.768c3.032 2.814 5.944 5.78 9.05 8.498 7.053 4.427 17.802.534 19.93-7.652 1.734-5.435-.384-11.764-5.027-15.073C87.881 26.91 78.24 17.315 68.5 7.829c-6.026-4.794-15.769-3.432-20.41 2.656-9.502 9.885-19.192 19.598-28.573 29.593-4.48 5.779-3.301 15.415 3.266 19.151 4.974 3.163 12.101 2.597 16.315-1.605l5.7-5.45 1.546-1.682c.2 17.595.148 35.196.462 52.788.44 5.641 4.704 11.111 10.572 11.642 5.83 1.071 12.559-1.673 14.72-7.48 1.109-2.512 1.558-5.275 1.563-8.008z" />
</svg>