<svg width="100" height="100" version="1.1" viewBox="0 0 26 26">
    <defs>
        <clipPath id="a">
            <path d="m-3.1e-5 972h1087v-972h-1087" clip-rule="evenodd" />
        </clipPath>
    </defs>
    <g transform="matrix(.24 0 0 -.24 -88 163)" clip-path="url(#a)">
        <path
            d="m377 647c-1.5 9.9 5.4 19 15 21l47 7c9.9 1.5 19-5.4 21-15l7-47c1.5-9.9-5.4-19-15-21l-47-7c-9.9-1.5-19 5.4-21 15z"
            fill="none" stroke="#191c1d" stroke-dasharray="9, 9" stroke-linecap="round" stroke-miterlimit="8"
            stroke-width="4.5" />
    </g>
    <path
        d="m15 10c0.098 0.59-0.03 1.3-0.46 1.7-0.25 0.26-0.58 0.44-0.89 0.53 0.036 0.35 0.078 0.7 0.11 1.1-0.059 0.17-0.29 0.19-0.44 0.23-0.21 0.026-0.43 0.089-0.64 0.036-0.13-0.054-0.098-0.21-0.13-0.31-0.07-0.38-0.15-0.76-0.21-1.2-0.031-0.17 0.0045-0.39 0.19-0.45 0.22-0.072 0.48-0.066 0.69-0.2 0.3-0.16 0.47-0.49 0.47-0.83 0.0065-0.42-0.14-0.89-0.54-1.2-0.38-0.21-0.85-0.14-1.3 0.0025-0.24 0.089-0.45 0.23-0.66 0.38-0.21 0.098-0.25-0.22-0.29-0.37-0.021-0.18-0.089-0.37-0.023-0.55 0.15-0.2 0.38-0.3 0.6-0.4 0.57-0.25 1.3-0.36 1.9-0.27 0.55 0.084 1.1 0.38 1.3 0.86 0.16 0.27 0.26 0.56 0.3 0.87z"
        fill="#262626" stroke-width=".89" />
    <path
        d="m14 16c0.032 0.24 0.064 0.55-0.15 0.71-0.21 0.15-0.49 0.18-0.75 0.18-0.22 0.0089-0.44-0.13-0.49-0.35-0.078-0.24-0.12-0.51-0.087-0.76 0.032-0.24 0.27-0.38 0.48-0.41 0.26-0.048 0.56-0.11 0.78 0.073 0.15 0.14 0.19 0.37 0.22 0.56z"
        fill="#262626" stroke-width=".89" />
</svg>