<svg width="99" height="112" fill="none"><path d="M63.861 95.829c6.895 6.895 18.073 6.895 24.968 0s6.895-18.073 0-24.968L74.468 56.5l14.361-14.361c6.895-6.895 6.895-18.073 0-24.968s-18.073-6.895-24.968 0L49.5 31.532 35.139 17.171c-6.895-6.895-18.073-6.895-24.968 0s-6.895 18.073 0 24.968L24.532 56.5 10.171 70.861c-6.895 6.895-6.895 18.073 0 24.968s18.073 6.895 24.968 0L49.5 81.468l14.361 14.361z" stroke="#2C2A4A" stroke-width="10" stroke-linejoin="round"/><path d="M63.861 101.829c6.895 6.895 18.073 6.895 24.968 0s6.895-18.073 0-24.968L74.468 62.5l14.361-14.361c6.895-6.895 6.895-18.073 0-24.968s-18.073-6.895-24.968 0L49.5 37.532 35.139 23.171c-6.895-6.895-18.073-6.895-24.968 0s-6.895 18.073 0 24.968L24.532 62.5 10.171 76.861c-6.895 6.895-6.895 18.073 0 24.968s18.073 6.895 24.968 0L49.5 87.468l14.361 14.361z" stroke="#2C2A4A" stroke-opacity=".2" stroke-width="10" stroke-linejoin="round"/><path d="M63.861 88.829c6.895 6.895 18.073 6.895 24.968 0s6.895-18.073 0-24.968L74.468 49.5l14.361-14.361c6.895-6.895 6.895-18.073 0-24.968s-18.073-6.895-24.968 0L49.5 24.532 35.139 10.171c-6.895-6.895-18.073-6.895-24.968 0s-6.895 18.073 0 24.968L24.532 49.5 10.171 63.861c-6.895 6.895-6.895 18.073 0 24.968s18.073 6.895 24.968 0L49.5 74.468l14.361 14.361z" fill="#FF4D58" stroke="#2C2A4A" stroke-width="10" stroke-linejoin="round"/></svg>