<svg width="100" height="100" viewBox="0 0 26.458 26.458">
   <path
      d="M2.357 14.63l.486 1.771c.563 1.97 1.928 1.907 3.316 1.516-.176.064-.34.28-.254.708l1.59 6.226c.429 1.477 1.39 1.756 2.608 1.458l5.223-1.431c.567-.157.93-.62 1.02-1.13.333.397.88.616 1.45.468l5.238-1.372c1.204-.35 1.897-1.073 1.53-2.567l-1.736-6.186c-.14-.414-.39-.52-.575-.486 1.398-.355 2.612-.984 2.114-2.971l-.464-1.778z"
      fill="#2b106d" fill-opacity=".276" />
   <path
      d="M4.4 6.763c.033.97.484 2.025 1.698 2.891l-3.47 5.944c.563 1.97 1.992 2.147 3.38 1.756-.176.063-.34.28-.254.708l1.59 6.225c.429 1.477 1.39 1.757 2.608 1.458l5.223-1.431c.567-.156.93-.62 1.02-1.129.333.396.88.616 1.45.467l5.238-1.372c1.204-.35 1.897-1.073 1.53-2.567l-1.736-6.186c-.14-.414-.39-.52-.575-.486 1.398-.355 2.548-1.223 2.05-3.21l-5.954-3.465c.536-1.21.472-2.244.12-3.057z"
      fill="#2b106d" />
   <path
      d="M6.666 2.06c-.734.222-1.416.718-1.977 1.585-.89 1.377-1.179 4.147 2.464 5.69l-3.552.964c-1.717.47-2.028 1.405-1.677 2.714l.486 1.772c.563 1.97 1.928 1.907 3.316 1.516-.176.064-.34.28-.254.708l1.59 6.226c.429 1.477 1.39 1.756 2.608 1.458l5.223-1.432c.567-.156.93-.619 1.02-1.128.333.396.88.615 1.45.467l5.238-1.372c1.204-.35 1.897-1.073 1.53-2.567l-1.736-6.186c-.14-.414-.39-.52-.575-.486 1.398-.355 2.612-.985 2.114-2.971L23.47 7.24c-.351-1.309-1.088-1.963-2.81-1.512l-3.558.941c2.383-3.158.748-5.413-.711-6.16-2.593-1.326-4.544.378-5.597 2.515-1.279-.855-2.791-1.366-4.128-.963z"
      fill="#391591" />
   <path
      d="M11.808 7.803l.155-.039c1.535-.386 3.044-1.165 4.433-2.4 1.016-1.175 1.12-2.42-.134-3.615-1.234-.972-2.61-.64-3.682.653-.478.64-.836 1.484-1.02 2.427a.392.392 0 01-.083.174c-.08.096-.203.062-.335.1z"
      clip-rule="evenodd" fill="#fff" fill-rule="evenodd" />
   <path
      d="M14.527 2.29c.338-.069.704-.001 1.064.287.615.511.672 1.358.005 2.083-.566.643-1.519 1.257-2.642 1.687a.336.336 0 01-.46-.325c.045-1.208.419-2.284.94-2.982.27-.353.658-.664 1.093-.75z"
      clip-rule="evenodd" fill="#391591" fill-rule="evenodd" />
   <path
      d="M13.864 8.799a.366.366 0 00-.266.444l.78 2.937c.05.196.249.315.445.266l7.207-1.939c.567-.142.93-.723.788-1.29l-.423-1.598a1.059 1.059 0 00-1.284-.769z"
      clip-rule="evenodd" fill="#fff" fill-rule="evenodd" />
   <rect width="6.555" height="7.75" x="10.664" y="17.446" rx=".475" transform="rotate(-15)" fill="#fff"
      fill-rule="evenodd" paint-order="fill markers stroke" />
   <path
      d="M12.304 7.67l-.153.044c-1.523.434-3.219.513-5.039.138-1.468-.51-2.18-1.536-1.692-3.198.583-1.458 1.94-1.86 3.515-1.275.734.315 1.466.867 2.097 1.592.123.141.249.094.455.044z"
      clip-rule="evenodd" fill="#fff" fill-rule="evenodd" />
   <path
      d="M7.193 4.254c-.327.11-.61.352-.778.781-.277.751.097 1.513 1.038 1.807.811.274 1.944.33 3.13.14a.336.336 0 00.237-.512c-.643-1.023-1.505-1.768-2.305-2.111-.41-.172-.902-.246-1.322-.105z"
      clip-rule="evenodd" fill="#391591" fill-rule="evenodd" />
   <path
      d="M11.022 9.56a.366.366 0 01.452.252l.793 2.934a.366.366 0 01-.252.452l-7.21 1.925c-.563.16-1.169-.16-1.329-.723l-.433-1.596a1.059 1.059 0 01.728-1.308z"
      clip-rule="evenodd" fill="#fff" fill-rule="evenodd" />
   <rect rx=".475" y="17.446" x="-8.622" height="7.75" width="6.555" transform="scale(-1 1) rotate(15)" fill="#fff"
      fill-rule="evenodd" paint-order="fill markers stroke" />
</svg>