<svg width="100" height="100" fill="none">
    <path d="M30.56 19.34c4.616-1.092 7.308 3.433 11.806 7.292l1.397-12.139z" fill="#f6820f" />
    <path
        d="M19.433 62.074c3.696 16.31 16.573 33.649 28.75 31.739l14.391-2.258-5.633-38.358c-1.179-8.25-8.25-21.139-14.575-26.565-4.498-3.86-7.19-8.384-11.807-7.292-12.532 5.262-14.858 26.266-11.126 42.734z"
        fill="#f6820f" />
    <path
        d="M80.62 46.528c5.044 21.316-2.549 41.36-16.96 44.77-8.107 1.92-16.645-1.836-23.461-9.284-5.3-5.79-9.558-13.813-11.764-23.136-5.045-21.316 2.548-41.36 16.958-44.77 14.411-3.41 30.182 11.104 35.227 32.42z"
        fill="#ffbd12" />
    <path
        d="M63.66 91.298c14.411-3.41 22.004-23.454 16.96-44.77 3.06 30.424-13.505 54.351-40.421 35.486 6.816 7.448 15.354 11.203 23.462 9.284z"
        fill="#f3480d" fill-opacity=".15" />
    <path d="M24.479 41.657l4.715-10.242-.163 11.38-2.408 9.31z" fill="#fff" />
    <path
        d="M69.1 70.017c-1.831 3.464-5.28 6.446-9.362 6.492-4.533.088-8.56-2.708-11.419-6.012-8.025-10.973-10.957-27.624-2.91-38.486 2.07-2.795 6.189-4.075 9.55-2.949 15.848 5.31 20.422 28.336 14.14 40.955z"
        stroke="#f2630d" stroke-width="4.43" stroke-opacity=".6" />
    <path
        d="M44.758 11.42c-3.596.869-6.99 2.424-10.49 3.618-3.538 1.3-7.297 2.402-10.04 5.148-6.158 5.81-8.347 14.529-9.003 22.697-.98 13.634 2.162 27.718 9.866 39.113 4.275 6.292 9.992 12.38 17.615 14.304 4.17 1.069 8.363-.294 12.508-.795 5.18-.92 10.693-1.114 15.254-4.051 8.149-5.005 12.4-14.428 13.836-23.58 2.16-14.437-1.4-29.684-9.687-41.697-5.332-7.61-13.285-14.23-22.82-15.225a21.427 21.427 0 00-7.04.469z"
        stroke="#2c2a4a" stroke-width="5.522" stroke-linejoin="round" />
    <path
        d="M45.353 40.176l2.276-7.396-4.184 4.868-.936 6.51zM31.275 3.277c.656-2.79 4.427-3.257 5.745-.713l3.853 7.439a3.086 3.086 0 002.033 1.585l8.156 1.917c2.788.656 3.256 4.427.712 5.745l-7.439 3.852a3.086 3.086 0 00-1.584 2.034l-1.918 8.156c-.656 2.788-4.427 3.256-5.744.712l-3.853-7.438a3.086 3.086 0 00-2.034-1.585l-8.155-1.918c-2.789-.656-3.257-4.427-.713-5.744l7.439-3.853a3.086 3.086 0 001.585-2.034z"
        fill="#fff" />
</svg>