<svg width="100" height="100" fill="none"><circle r="14" transform="scale(-1 1)" cx="-26.5" cy="26" fill="#000" fill-opacity=".5"/><circle r="13.5" transform="scale(-1 1)" cx="-26.5" cy="26" stroke="#000" stroke-opacity=".15"/><path d="M12.5 26c0 1.208.441 3.5.441 3.5S15.5 19 26.5 19s13.559 10.5 13.559 10.5.441-2.292.441-3.5c0-7.732-6.268-14-14-14s-14 6.268-14 14z" fill="#000" fill-opacity=".2"/><circle r="14" transform="scale(-1 1)" cx="-26.5" cy="74" fill="#000" fill-opacity=".5"/><circle r="13.5" transform="scale(-1 1)" cx="-26.5" cy="74" stroke="#000" stroke-opacity=".15"/><path d="M12.5 74c0 1.208.441 3.5.441 3.5S15.5 67 26.5 67s13.559 10.5 13.559 10.5.441-2.292.441-3.5c0-7.732-6.268-14-14-14s-14 6.268-14 14z" fill="#000" fill-opacity=".2"/><circle r="14" transform="scale(-1 1)" cx="-73.5" cy="26" fill="#000" fill-opacity=".5"/><circle r="13.5" transform="scale(-1 1)" cx="-73.5" cy="26" stroke="#000" stroke-opacity=".15"/><path d="M59.5 26c0 1.208.441 3.5.441 3.5S62.5 19 73.5 19s13.559 10.5 13.559 10.5.441-2.292.441-3.5c0-7.732-6.268-14-14-14s-14 6.268-14 14z" fill="#000" fill-opacity=".2"/><circle r="14" transform="scale(-1 1)" cx="-73.5" cy="74" fill="#000" fill-opacity=".5"/><circle r="13.5" transform="scale(-1 1)" cx="-73.5" cy="74" stroke="#000" stroke-opacity=".15"/><path d="M59.5 74c0 1.208.441 3.5.441 3.5S62.5 67 73.5 67s13.559 10.5 13.559 10.5.441-2.292.441-3.5c0-7.732-6.268-14-14-14s-14 6.268-14 14z" fill="#000" fill-opacity=".2"/></svg>