<svg width="100" height="100">
   <path
      d="M33.246 14.162c-2.098 0-4.177.815-5.662 2.281-1.493 1.418-2.346 3.475-2.346 5.537 0 2.113.82 4.213 2.308 5.7 1.487 1.487 3.586 2.308 5.7 2.308h20.686L33.848 73.957a8.822 8.822 0 00-.817 3.687c0 2.19.955 4.34 2.551 5.848l.028.026.027.023a8.993 8.993 0 005.962 2.297 8.384 8.384 0 004.624-1.4c1.408-.94 2.486-2.335 3.102-3.92l-.055.138 24.696-54.561.013-.027c.497-1.159.784-2.381.784-3.618a7.894 7.894 0 00-2.866-6.036 9.114 9.114 0 00-5.986-2.252z"
      fill-opacity=".5" stroke="#545454" stroke-width="1.1" />
   <path
      d="M33.246 14.162c-2.098 0-4.177.815-5.662 2.281-1.493 1.42-2.346 3.476-2.346 5.538 0 .76.109 1.518.313 2.247a7.598 7.598 0 012.033-3.385c1.485-1.466 3.564-2.281 5.662-2.281H65.91c2.197 0 4.34.808 5.986 2.252 1.224.998 2.105 2.381 2.546 3.895.2-.74.319-1.496.319-2.259a7.894 7.894 0 00-2.865-6.036 9.114 9.114 0 00-5.986-2.252zM54.498 29.43L33.847 73.958a8.822 8.822 0 00-.817 3.686c0 .726.116 1.444.314 2.14a8.91 8.91 0 01.502-1.426l20.477-44.603z"
      fill-opacity=".2" />
</svg>