<svg width="100" height="100">
   <g fill="#000">
      <path
         d="M31.424 14.866c-1.943 0-3.747.33-5.324 1.166l-.061.03-14.19 8.46a9.053 9.053 0 00-3.108 2.964l-.038.063-.037.062a8.458 8.458 0 00-1.113 4.18c0 2.116.866 4.176 2.297 5.776l.026.028.028.03c1.563 1.65 3.772 2.64 6.032 2.64a8.624 8.624 0 004.418-1.235l.013-.007 1.644-1.008v39.582c0 2.261.9 4.48 2.493 6.075l.029.028.027.026c1.645 1.552 3.899 2.346 6.208 2.346s4.556-.783 6.244-2.294l.029-.027.03-.027a8.512 8.512 0 002.64-6.127V23.34c0-2.21-.836-4.384-2.376-5.942a8.242 8.242 0 00-5.91-2.533zm36.215-.938c-3.337 0-6.74.837-10.16 2.41a31.114 31.114 0 00-9.056 6.28c-1.34 1.34-2.394 2.586-3.182 3.84-.846 1.281-1.379 2.766-1.379 4.3 0 2.1 1.015 4.115 2.552 5.567l.026.024.028.025c1.582 1.416 3.597 2.297 5.683 2.297 2.537 0 4.98-1.304 6.518-3.354 1.34-1.786 2.768-3.144 4.281-4.136l.01-.005.008-.007c1.538-1.025 2.831-1.417 4.014-1.417 1.907 0 3.388.63 4.972 2.263 1.566 1.617 2.227 3.244 2.227 5.408 0 1.534-.511 3.451-1.738 5.738l-.004.011-.007.014c-1.18 2.248-2.849 4.561-5.029 6.919L46.962 71.95s0 .003-.002.004c-1.538 1.626-2.441 3.795-2.441 6.017 0 2.115.726 4.209 2.152 5.73 1.482 1.58 3.663 2.37 5.856 2.37H84.44c2.076 0 4.134-.742 5.635-2.15l-.433-.03.03-.033c1.467-1.466 2.774-3.528 2.774-5.604 0-2.113-.82-4.213-2.308-5.7-1.487-1.488-3.585-2.306-5.698-2.306H71.468l7.563-8.043.005-.005c3.598-3.86 6.48-7.923 8.613-12.188 2.218-4.373 3.39-8.751 3.39-13.06 0-4.28-.95-8.25-2.877-11.746-1.928-3.501-4.748-6.316-8.29-8.3-3.579-2.004-7.715-2.98-12.233-2.98z"
         fill-opacity=".5" stroke="#545454" stroke-width="1.1" />
      <path
         d="M67.639 13.928c-3.337 0-6.74.838-10.16 2.41a31.114 31.114 0 00-9.056 6.28c-1.34 1.34-2.394 2.586-3.182 3.84-.845 1.281-1.379 2.766-1.379 4.3 0 .746.132 1.477.365 2.179a8.715 8.715 0 011.014-2.08c.788-1.253 1.843-2.5 3.182-3.838a31.114 31.114 0 019.056-6.281c3.42-1.573 6.823-2.41 10.16-2.41 4.518 0 8.654.975 12.233 2.98 3.542 1.983 6.362 4.799 8.29 8.3 1.58 2.865 2.493 6.054 2.775 9.466a24.5 24.5 0 00.103-2.121c0-4.28-.952-8.25-2.878-11.746-1.928-3.5-4.748-6.316-8.29-8.3-3.579-2.004-7.715-2.98-12.232-2.98zm-36.215.94c-1.943 0-3.747.33-5.324 1.163l-.061.033-14.19 8.459a9.053 9.053 0 00-3.108 2.963l-.038.063-.037.063a8.458 8.458 0 00-1.113 4.178c0 .737.112 1.464.31 2.17a8.458 8.458 0 01.802-1.948l.038-.063.038-.063a9.053 9.053 0 013.109-2.964l14.189-8.46.061-.031c1.577-.834 3.38-1.164 5.324-1.164a8.24 8.24 0 015.91 2.533c1.54 1.557 2.377 3.732 2.377 5.943v-4.4c0-2.211-.836-4.386-2.376-5.943a8.242 8.242 0 00-5.91-2.533zm42.452 24.684c-.27 1.081-.718 2.275-1.434 3.61l-.004.01-.007.014c-1.18 2.248-2.848 4.561-5.029 6.92l-20.44 21.846s0 .002-.002.003c-1.538 1.626-2.441 3.795-2.441 6.018 0 .767.099 1.528.288 2.263a8.967 8.967 0 012.153-3.881l.002-.005 20.44-21.845c2.181-2.358 3.85-4.671 5.03-6.92l.006-.013.004-.01c2.064-3.67 2.551-7.347 2.017-11.51zm-3.29 30.697l-.08 4.4h13.936c2.112 0 4.21.818 5.698 2.305a7.887 7.887 0 011.935 3.26c.228-.64.372-1.298.372-1.96 0-2.113-.82-4.212-2.308-5.7-1.487-1.487-3.585-2.305-5.698-2.305z"
         fill-opacity=".2" />
   </g>
</svg>