<svg width="128" height="128"><path d="M100.51 49.79c3.598-5.135 1.934-11.742.246-17.234-1.373-3.88-2.782-7.92-5.492-11.105-3.224-.796-6.288 2.225-9.074 3.702-3.328 2.268-6.488 4.816-9.075 7.96-12.258-4.1-26.427-1.628-36.377 6.646-1.982 2.993-4.338 2.396-7.164 1.11-5.134-1.344-10.547-2.304-15.88-1.655-2.926 1.473-1.49 5.93-1.712 8.716.566 5.93 1.35 12.3 5.095 17.154 1.914 1.78 4.258 2.83 2.766 5.81-1.25 10.11.157 21.214 6.408 29.533 5.333 7.004 14.447 9.71 22.924 9.71 11.343-.014 22.527-2.666 33.194-6.367 8.795-3.264 17.91-8.398 21.89-17.313 4.02-9.234 1.568-19.9-2.715-28.577a51.298 51.298 0 00-5.054-8.04z" fill="#ffd338"/><path d="M100.51 49.79c5.532 11.223 2.858 25.033-4.378 34.824-12.418 17.353-37.412 23.92-56.914 15.164-5.771-2.595-11.224-6.368-14.686-11.78 1.727 8.08 6.607 15.92 14.407 19.302 9.79 4.298 20.895 2.985 31.084.991 11.224-2.468 22.885-5.612 31.76-13.293 5.97-5.055 9.115-13.015 8.398-20.776-.66-8.875-4.338-17.392-9.75-24.437z" clip-rule="evenodd" fill="#ffaf38" fill-rule="evenodd"/><path d="M33.248 47.401c-3.506-1.473-8.875-3.04-12.577-1.684-.943 4.737 1.298 14.448 3.777 19.701-.414-6.288 5.77-16.676 8.796-18.029zm65.67.43c-.231-6.209-1.676-12.418-4.378-17.99-2.133-3.16-5.81.936-8.04 2.846-1.647 1.425-3.956 2.71-1.106 4.06a50.001 50.001 0 0113.492 11.064zm-7.562 28.457c2.269 8.875-1.365 19.024-9.273 23.88-8.398 5.174-20.06 6.646-28.537.9-6.13-4.22-10.268-11.82-9.592-19.343.804-5.77 6.567-8.677 11.502-10.428 7.682-2.46 15.602-4.617 23.72-4.736 4.459-.124 9.275 1.886 11.026 6.21.53 1.121.91 2.311 1.198 3.517z" fill="#ff6670"/><path d="M73.048 103.917c8.159-1.7 15.8-7.482 18.03-15.76 1.114-3.842 1.177-7.96.257-11.86.249 9.67-5.691 19.262-14.726 22.924-9.114 4.02-20.338 1.6-27.263-5.453-1.815-1.405-4.338-5.532-4.895-5.85 2.097 8.716 9.79 15.92 18.865 16.676 3.26.364 6.567.052 9.75-.7z" fill="#9a002e" fill-opacity=".46"/><path d="M61.506 86.803c.68 3.351-.027 7.363-3.96 6.607-3.276-1.42-4.975-6.448-3.518-9.194 2.86-5.453 6.527-2.189 7.482 2.571zM78.7 88.407c-3.443-.943-4.14-5.373-3.702-8.438.55-3.78 6.846-4.1 7.284.35.513 5.293-.677 8.716-3.566 8.12z" fill="#d12749"/><path d="M39.616 78.047c3.869-.704 5.055-6.328 1.807-8.557-2.99-2.52-8.08.1-7.761 3.98.01 2.977 3.068 5.333 5.93 4.577zm51.74-12.337c3.869-.705 5.055-6.329 1.807-8.558-2.99-2.52-8.08.1-7.761 3.98.01 2.977 3.069 5.333 5.93 4.577z" fill="#292f33"/><path d="M63.894 43.82c-.47-4.498-2.384-8.757-5.174-12.259l-7.204 1.31c-.434 5.133.51 11.183 2.687 14.407 2.826 4.18 9.99 2.587 9.67-3.463z" fill="#ff495f"/><path d="M53.944 47.401c-2.404-4.418-3.176-9.552-2.714-14.487 2.423-.7 4.855.21 7.243.505-2.077 1.182-3.347 2.838-3.446 4.26.553 4.337 2.579 8.556 6.05 11.262-2.31 1.485-5.772 1.047-7.165-1.536z" fill="#d12749"/><path d="M58.373 32.521l-5.34 1.15c-.896-1.18-2.81-1.73-4.1-.617a36.912 36.912 0 00-11.3 7.25c-6.21-2.29-13-3.48-19.6-2.93-3.81.238-3.63 4.82-3.58 7.65.14 6.81 2.02 11.4 3.58 15.7 1.56 4.3 5.69 5.65 5.18 10.2-1.8 15.2.872 30 13.9 37 24.9 8.88 66.1-4.62 73.3-21.8 3.83-9.76.506-23-5.18-31.4-2.9-4.26-3.79-5.5-2.9-10.3 1.41-7.53-.51-16.6-3.74-21.8-2.51-4.02-6.21-3.3-9.32-1.28a61.662 61.662 0 00-12.1 10.2c-5.5-1.64-11.9-2.78-17.4-1.49-.573.78-1.55 1.34-1.24 2.45z" fill="none" stroke="#240d5c" stroke-width="3.25" stroke-linejoin="bevel"/><path d="M20.87 45.81c-.96 3.235.366 6.765.896 10.03.728 3.187 1.596 6.327 2.686 9.431-1.043-4.935-2.782-10.189-1.35-15.243 1.378-3.646 5.93-3.33 9.075-2.834 2.24.39-2.73-.89-3.57-1.13-2.48-.498-5.373-1.537-7.76-.248zm72.476-16.996c2.444 2.663 2.822 6.687 3.896 10.07.645 2.682 1.19 5.373 1.557 8.12-1.278-4.697-2.082-9.91-5.533-13.613-2.937-2.606-6.805-.077-9.392 1.823.177-.354 3.61-3.526 5.213-4.656 1.238-.844 2.635-1.899 4.22-1.732z" fill="#d12749"/><path d="M46.382 53.371c-1.62 2.858-6.448 4.935-8.676 1.68-2.635-4.617 2.36-11.662 7.6-10.19 3.4 1.386 2.87 6.05 1.076 8.518zm-5.97 7.562c-.34 1.138-2.292 1.325-2.304-.085-.274-1.27 1.727-2.786 2.423-1.29.17.446.09.956-.12 1.374z" fill="#fff"/><path d="M41.352 25.206c1.015 3.86 3.184 8.199 7.244 9.472 1.91.18 3.797-.422 5.691-.633l-3.82-23.521c-1.179-3.48-5.254 1.082-5.254 1.082-3.176-.06-3.957 4.697-4.259 7.323-.226 2.098-.078 4.22.381 6.289z" fill="#f6820f"/><path d="M59.66 20.549c1.067 4.498.525 10.507-3.928 13.015-4.06 1.93-8.279-1.51-10.07-5.015-2.619-4.856-3.275-11.701.61-16.12 2.582-2.877 7.203-1.905 9.511.793 1.967 1.99 3.232 4.617 3.877 7.323z" fill="#ffbd12"/><path d="M54.486 33.962c4.577-1.278 5.93-6.846 5.492-11.065-.176-1.655-.505-3.156-.289-.684.1 4.139-1.102 9.592-5.652 10.825-1.982 1.03-6.169-1.695-6.169-1.472 1.7 1.72 4.18 2.98 6.647 2.38z" fill="#f3480d" fill-opacity=".15"/><path d="M42.944 19.077l1.325-2.882c.214 1.89.133 3.8-.537 5.73z" fill="#fff"/><path d="M56.915 21.262c.808 2.94.163 8.88-3.65 8.2-5.06-.908-8.2-12.8-2.62-14.1 3.5-.701 5.54 3.05 6.29 5.93z" fill="none" stroke="#f2630d" stroke-width="1.4" stroke-opacity=".7"/><path d="M48.915 9.962c-2.68.992-6.01 1.47-7.45 4.3-2.86 6.01-1.43 13.7 2.89 18.6 1.68 2.07 4.42 3.23 7.05 2.44 2.81-.327 5.97-.844 7.57-3.54 3.87-6.21 2.02-15.1-3.32-19.9-1.82-1.55-4.3-2.53-6.69-1.94z" fill="none" stroke="#2c2a4a" stroke-width="1.7" stroke-linejoin="round"/><path d="M63.112 8.103c-.732 2.957-.66 8.437 3.132 9.432 1.592.59 3.137.908 3.137.908l5.252-14.21c.1-3.183-6.567-4.178-8.676-1.312-1.385 1.444-2.3 3.295-2.85 5.213z" fill="#f6820f"/><path d="M75.848 11.303c-.86 3.339-3.65 7.283-7.522 6.527-4.02-1.45-4.26-6.806-3.013-10.23 1.019-3.187 4.14-6.884 7.84-5.531 3.284 1.628 3.563 6.09 2.719 9.234z" fill="#ffbd12"/><path d="M68.286 17.854c3.884.752 6.527-2.794 7.522-6.528-.78 2.118-3.928 6.766-7.522 5.81-2.11-.56-3.196-2.562-3.196-2.562.557 1.91 2.11 2.993 3.18 3.272z" fill="#f3480d" fill-opacity=".15"/><path d="M65.898 4.879c.474-.315 1.652-1.258 1.652-1.258-.23 1.003-1.194 2.364-2.15 3.32.196-.65.498-2.058.498-2.058z" fill="#fff"/><path d="M73.453 11c-1.31 3.85-5.1 5.5-5.97 1.55-.613-2.88.637-7.25 3.89-7.49 2.73-.218 2.65 3.97 2.09 5.93z" fill="none" stroke="#f2630d" stroke-width=".924" stroke-opacity=".66"/><path d="M72.788 1.32c-2.25-.392-4.9-1.17-6.73.738-3.68 3.49-5.38 9.88-2.39 14.3 1.41 1.27 3.4 1.7 5.22 2.2 4.78.145 7.61-4.98 7.96-9.2.298-3.08-.717-7.05-4.06-8z" fill="none" stroke="#2c2a4a" stroke-width="1.15" stroke-linejoin="round"/><path d="M69.084 5.85c1.51-1.07.84-1.41-.327-.346-.665.753-.637.932.263.378zM47.477 18.57c.315-1.75-.155-1.54-.434-.01-.434 2.38-.082 2.87.434.01z" fill="#fff"/></svg>