<svg width="100" height="100">
   <g fill="#000">
      <path
         d="M52.266 13.928c-2.1 0-4.178.816-5.664 2.284-1.49 1.417-2.342 3.473-2.342 5.533 0 2.115.82 4.213 2.308 5.702 1.487 1.487 3.585 2.306 5.698 2.306h12.333L54.277 41.01c-.882.955-1.587 1.903-2.074 2.973-.495 1.089-.715 2.281-.715 3.485 0 1.958.614 3.893 1.834 5.394l.029.033.027.033c1.317 1.52 3.363 2.358 5.365 2.358 1.496 0 3.057-.323 4.844-.873l.031-.01.03-.01c-.073.025.601-.173 1.529-.42.645-.173 1.508-.285 2.577-.285 2.28 0 3.918.646 5.442 2.074l.015.013.014.015c1.458 1.325 2.198 3.03 2.198 5.85 0 1.944-.434 3.529-1.298 4.968l-.008.012-.006.01c-.836 1.427-1.865 2.446-3.189 3.209-1.366.725-2.717 1.066-4.2 1.066-2.673 0-4.978-.79-7.244-2.53l-.084-.063-.088-.059c-1.745-1.138-3.6-1.854-5.539-1.854-2.266 0-4.466 1.109-5.943 2.847-1.414 1.665-2.25 3.76-2.25 5.91 0 3.12 2.02 5.918 4.902 7.481 1.936 1.074 4.129 1.9 6.567 2.51a30.547 30.547 0 007.425.925c5.339 0 10.153-.971 14.339-2.994 4.18-2.02 7.541-5.01 9.878-8.835l.007-.009.007-.009c2.34-3.901 3.49-8.448 3.49-13.43 0-3.82-.815-7.476-2.426-10.847-1.626-3.457-4.024-6.338-7.093-8.482-1.628-1.161-3.43-1.994-5.332-2.583l9.258-10.222-.095.1c1.826-1.827 3.057-4.034 3.057-6.452 0-2.22-.757-4.398-2.286-5.945-1.588-1.666-3.9-2.436-6.282-2.436zm-20.582 0c-1.945 0-3.748.33-5.324 1.165l-.063.033-14.188 8.458A9.053 9.053 0 009 26.547l-.038.063-.036.061a8.458 8.458 0 00-1.113 4.18c0 2.117.865 4.177 2.297 5.776l.026.028.027.03c1.565 1.65 3.772 2.64 6.034 2.64a8.624 8.624 0 004.416-1.235l.014-.006 1.643-1.008V76.66c0 2.261.9 4.48 2.495 6.075l.027.027.028.027c1.644 1.552 3.898 2.346 6.207 2.346 2.309 0 4.556-.783 6.246-2.295l.027-.026.03-.028a8.512 8.512 0 002.64-6.126V22.403c0-2.21-.836-4.384-2.376-5.942a8.242 8.242 0 00-5.91-2.533z"
         fill-opacity=".5" stroke="#545454" stroke-width="1.1" />
      <path
         d="M31.684 13.929c-1.945 0-3.748.33-5.324 1.164l-.063.033-14.188 8.459A9.053 9.053 0 009 26.548l-.038.063-.036.062a8.458 8.458 0 00-1.113 4.178c0 .737.113 1.464.31 2.17a8.458 8.458 0 01.803-1.948l.036-.062.039-.063a9.053 9.053 0 013.11-2.964l14.187-8.46.063-.031c1.576-.834 3.38-1.164 5.324-1.164 2.21 0 4.386.933 5.91 2.532 1.54 1.558 2.376 3.732 2.376 5.943v-4.4c0-2.21-.837-4.385-2.376-5.943a8.242 8.242 0 00-5.91-2.532zm20.58 0c-2.098 0-4.176.814-5.662 2.283-1.49 1.417-2.342 3.474-2.342 5.534 0 .76.11 1.518.314 2.248a7.585 7.585 0 012.028-3.382c1.485-1.468 3.564-2.283 5.664-2.283H80.99c2.382 0 4.694.77 6.281 2.436.976.986 1.633 2.229 1.984 3.575a7.312 7.312 0 00.303-2.03c0-2.219-.758-4.398-2.286-5.945-1.588-1.666-3.9-2.436-6.282-2.436zm13.32 15.137L54.276 41.01c-.88.956-1.586 1.904-2.073 2.973-.495 1.089-.715 2.281-.715 3.485 0 .752.092 1.5.273 2.223.112-.447.25-.887.442-1.308.486-1.07 1.192-2.017 2.074-2.973l11.147-12.494zm11.043 9.947l.023 4.066c1.903.588 4.39 1.627 6.02 2.788 3.069 2.145 5.467 5.025 7.092 8.481a24.706 24.706 0 012.332 8.743c.055-.754.094-1.518.094-2.294 0-3.822-.814-7.478-2.426-10.848-1.625-3.457-4.024-6.338-7.092-8.482-.763-.544-5.21-2.046-6.043-2.453zm-.733 22.396c-.206 1.036-1.24 4.321-1.768 5.199l-.009.013-.006.011c-.836 1.426-1.865 2.444-3.189 3.208-1.366.726-2.717 1.065-4.2 1.065-2.673 0-4.978-.79-7.244-2.528l-.084-.065-.088-.057c-1.745-1.139-3.6-1.855-5.539-1.855-2.266 0-4.466 1.109-5.943 2.847-1.414 1.665-2.25 3.758-2.25 5.91 0 .722.117 1.423.319 2.099a9.545 9.545 0 011.931-3.61c1.479-1.737 3.677-2.846 5.943-2.846 1.94 0 3.794.716 5.539 1.855l.088.057.084.065c2.266 1.739 4.572 2.529 7.244 2.529 1.483 0 2.834-.342 4.2-1.066 1.324-.764 2.354-1.782 3.189-3.208l.006-.011.01-.013c1.395-2.884 1.996-5.833 1.767-9.599z"
         fill-opacity=".2" />
   </g>
</svg>