<svg width="100" height="100"
    viewBox="0 0 26.458 26.458">
    <defs>
        <linearGradient id="prefix__d">
            <stop offset="0" stop-color="#fff" stop-opacity="0" />
            <stop offset=".508" stop-color="#fff" stop-opacity=".871" />
            <stop offset=".513" stop-color="#fff" stop-opacity=".871" />
            <stop offset="1" stop-color="#fff" stop-opacity="0" />
        </linearGradient>
        <linearGradient id="prefix__b">
            <stop stop-opacity="0" stop-color="#fff" offset="0" />
            <stop stop-color="#fff" offset=".508" />
            <stop stop-color="#fff" offset=".513" />
            <stop stop-opacity="0" stop-color="#fff" offset="1" />
        </linearGradient>
        <linearGradient id="prefix__a">
            <stop offset="0" stop-color="#fff" stop-opacity="0" />
            <stop offset=".399" stop-color="#fff" />
            <stop offset=".582" stop-color="#fff" />
            <stop offset="1" stop-color="#fff" stop-opacity="0" />
        </linearGradient>
        <linearGradient xlink:href="#prefix__d" id="prefix__f" gradientUnits="userSpaceOnUse"
            gradientTransform="matrix(.65377 0 0 .28934 -55.737 236.195)" x1="93.983" y1="-676.297" x2="117.078"
            y2="-676.297" />
        <radialGradient gradientTransform="matrix(41.07836 116.95576 -124.54524 43.74401 69.439 45.045)"
            gradientUnits="userSpaceOnUse" r="1" cy="0" cx="0" id="prefix__c">
            <stop stop-color="#E85CFF" />
            <stop stop-color="#9A00FE" offset="1" />
        </radialGradient>
        <radialGradient xlink:href="#prefix__c" id="prefix__e" gradientUnits="userSpaceOnUse"
            gradientTransform="matrix(41.07836 116.95576 -124.54524 43.74401 69.439 45.045)" cx="0" cy="0" r="1" />
    </defs>
    <g fill="none">
        <path
            d="M6.32 3.475l12.827-.631a6.022 6.022 0 016.324 5.73l.457 9.283c.164 3.34-2.397 6.572-5.731 6.324-4.236-.314-8.527.108-12.827.632-3.318.404-6.16-2.392-6.324-5.731L.59 9.8A6.022 6.022 0 016.32 3.475z"
            fill="#000" fill-opacity=".15" />
        <path
            d="M6.26 2.27c4.333-.004 8.618-.11 12.715-.626 3.317-.419 6.16 2.391 6.324 5.73l.47 9.524c.164 3.34-2.394 6.518-5.731 6.324-3.795-.22-8.114.067-12.715.626-3.319.403-6.16-2.391-6.324-5.73l-.47-9.524C.367 5.254 2.918 2.273 6.262 2.27z"
            fill="#7e03cb" />
        <path
            d="M50 4h105.473c25.484 0 46 20.516 46 46v66c0 25.484-20.516 46-46 46H50c-25.484 0-46-20.516-46-46V50C4 24.516 24.516 4 50 4z"
            fill="url(#prefix__e)" transform="matrix(.12055 -.00593 .00593 .12055 .233 2.567)" />
    </g>
    <path
        d="M10.934 9.665a2.64 2.64 0 10.26 5.272c.89-.044 1.173-.558 2.04-.585.891-.028 1.27.404 2.188.377a2.64 2.64 0 10-.26-5.272c-.826.04-1.423.432-2.036.462-.628.03-1.274-.299-2.192-.254z"
        fill-opacity=".5" />
    <path
        d="M10.939 9.76a2.545 2.545 0 10.25 5.083c.905-.064 1.12-.553 2.057-.577.99-.025 1.215.397 2.171.369a2.545 2.545 0 10-.25-5.084c-.884.053-1.453.438-2.02.468-.606.033-1.211-.29-2.208-.26z"
        fill="none" stroke="#000" stroke-width=".18838096" stroke-opacity=".15" />
    <path
        d="M10.934 9.665a2.64 2.64 0 00-2.506 2.766c.011.227.116.655.116.655s.384-2.001 2.455-2.103c1.24-.015 1.53.102 2.188.069.92-.047.974-.241 2.04-.277 2.073-.066 2.65 1.852 2.65 1.852s.062-.436.051-.664a2.64 2.64 0 00-2.765-2.506c-.87.043-1.422.429-2 .461-.621.036-1.268-.282-2.229-.253z"
        fill-opacity=".2" />
    <path d="M5.714 29.276c3.79.258 10.394.276 15.03-.035v22.516c-4.193-.323-10.87-.22-15.03 0z" fill="url(#prefix__f)"
        transform="rotate(-2.818 -542.275 26.894)" />
</svg>