<svg width="100" height="100" viewBox="0 0 26.458 26.458">
   <path
      d="M2.272 10.733c1.81 3.637 4.096 5.925 4.881 7.884-1.978-.422-3.426 1.583-3.426 3.795 0 1.868 1.718 3.777 4.682 3.73l10.746.002c5.027.143 6.951-3.063 5.613-7.19-1.435-3.997-2.78-6.34-4.734-9.645 0 0-15.542-7.28-18.331-3.461-.666.912-.605 2.456.569 4.885z"
      style="line-height:0;-inkscape-font-specification:Quicksand;text-align:center" font-weight="400"
      font-size="22.577" font-family="Quicksand" letter-spacing="0" word-spacing="0" text-anchor="middle" fill="#2b106d"
      fill-opacity=".356" />
   <path style="line-height:0;-inkscape-font-specification:Quicksand;text-align:center"
      d="M2.272 9.833c1.81 3.638 4.096 5.926 4.881 7.885-1.978-.423-3.426 1.583-3.426 3.795 0 1.867 1.718 3.777 4.682 3.73l10.746.002c5.027.142 6.951-3.064 5.613-7.19-1.435-3.997-2.78-6.34-4.734-9.645 0 0-15.542-7.28-18.331-3.462-.666.912-.605 2.457.569 4.885z"
      font-weight="400" font-size="22.577" font-family="Quicksand" letter-spacing="0" word-spacing="0"
      text-anchor="middle" fill="#2b106d" />
   <path
      d="M17.827.31L5.228.38c-1.768 0-2.69 1.736-2.217 3.152-2.006 1.383-1.538 3.404-.74 5.01 1.81 3.637 4.097 5.925 4.882 7.884-1.978-.422-3.426 1.583-3.426 3.795 0 1.868 1.718 3.777 4.682 3.73l10.746.002c5.027.143 6.951-3.063 5.613-7.19-1.435-3.997-2.78-6.34-4.734-9.645C23.015 5.486 21.54.364 17.827.309z"
      style="line-height:0;-inkscape-font-specification:Quicksand;text-align:center" font-weight="400"
      font-size="22.577" font-family="Quicksand" letter-spacing="0" word-spacing="0" text-anchor="middle"
      fill="#391591" />
   <path
      d="M4.442 3.263c-.405-.953.219-1.544.977-1.524h12.503c2.136.285 2.532 2.12 1.977 3.739L8.015 5.454c-.52-1.332-1.435-2.517-3.573-2.191z"
      fill="#fff" />
   <path
      d="M7.229 6.692l11.003-.047c2.08 3.462 4.284 6.904 5.263 10.55 1.223 4.186-1.366 5.187-3.168 5.454H8.301c-1.949.028-2.734-1.073-3.052-1.897-.298-.774.014-2.314.78-2.813.736-.479 1.654-.397 2.17.094.483.459.919 1.52-.307 2.019.271-.708-.145-1.275-.777-.921-.399.223-.445.848-.117 1.224.354.407 1.212.703 1.926.195.783-.555.825-1.222.66-2.14-1.497-4.46-3.967-6.043-6.304-10.968-.692-1.46.035-2.519.89-2.983 1.683-.821 2.823.638 3.059 2.233z"
      fill="#fff" />
   <path
      d="M14.001 14.137c-.267-.491.101-.928.712-.864.768-.008 1.527-.22 1.691-.795.11-.564-.204-1.315-.885-1.87-.743-.595-1.778-.862-2.546-.751-.522.063-.905.308-1.154.626-.267.246-.86.262-1.35-.039-.534-.266-.87-.833-.626-1.137.574-.963 2.069-1.36 3.693-1.08 1.436.227 2.98 1.052 3.944 2.123.691.759 1.08 1.619 1.109 2.377.04.853-.606 1.454-1.484 1.724-.24.076-.498.13-.769.167-.108.167.186.456.226.675.205.447-.119.815-.66.782-.477.004-1.073-.308-1.307-.713-.204-.353-.341-.709-.518-1.063l-.076-.162zm3.033 4.469c-.4.022-.968-.168-1.217-.536-.215-.302-.365-.624-.42-.924-.017-.347.374-.513.804-.48.38-.017.873.074 1.21.388.315.292.425.633.546.947.09.343-.168.61-.587.601-.11.007-.224.003-.336.004z"
      style="line-height:0;-inkscape-font-specification:Quicksand;text-align:center" font-weight="400"
      font-size="22.577" font-family="Quicksand" letter-spacing="0" word-spacing="0" text-anchor="middle" fill="#391591"
      fill-opacity=".965" />
</svg>