<svg width="100" height="100" viewBox="0 0 26 26"><defs><radialGradient gradientUnits="userSpaceOnUse" r="18" cy="9" cx="10.6" id="prefix__a"><stop offset=".2" stop-color="#69D6FF"/><stop offset=".5" stop-color="#00ABEB"/><stop offset="1" stop-color="#0376B5"/></radialGradient></defs><path d="M1.112 5.361c-.167 1.587.207 2.467.71 2.692A1.966 1.966 0 002.37 9.66c.762.77 2.03.77 2.794 0l.269-.272a2.471 2.471 0 00-.024 3.412c.023.025.055.064.06.068l-.02-.02.052.054c-.321.984-.526 2.023-.526 3.111 0 5.498 4.435 9.987 9.91 9.987 5.474 0 9.91-4.484 9.91-9.982z" fill="#2b106d" fill-opacity=".3"/><path d="M1.19 4.463c-.166 1.587.208 2.467.711 2.692a1.966 1.966 0 00.546 1.606c.763.77 2.031.77 2.794 0l.27-.272a2.471 2.471 0 00-.024 3.413c.023.024.055.064.06.067l-.02-.02.052.054c-.321.985-.526 2.023-.526 3.112 0 5.497 4.435 9.987 9.91 9.987 5.474 0 9.91-4.485 9.91-9.983z" fill="#2a0f6d"/><path d="M6.779 7.285L5.605 6.16l-.834.873a1.224 1.224 0 01-1.742 0 1.236 1.236 0 01-.22-1.435c-1.127-.375-1.127-1.97 0-2.344a1.236 1.236 0 01.22-1.435c.374-.378.95-.472 1.424-.232.16-.488.618-.846 1.165-.846s1.004.358 1.165.846a1.225 1.225 0 011.424.232 1.235 1.235 0 010 1.738l-.873.848L8.447 5.49c.967-.923 2.401-.862 3.277-.207a9.081 9.081 0 013.294-.616c5.072 0 9.17 4.145 9.17 9.246 0 5.101-4.099 9.242-9.17 9.242-5.07 0-9.168-4.145-9.168-9.246 0-1.172.548-2.431.944-3.465-1.371-1.357-.015-3.159-.015-3.159z" fill="url(#prefix__a)" stroke="#391591" stroke-width="1.5"/><path d="M16.458 17.307c-.551.239-1.056-.126-1.251-.521L13.02 12.15l-.782.828c-.687.641-1.734-.425-1.085-1.224l1.317-1.493c.456-.628 1.345-.511 1.64.088l2.717 5.558c.314.612.152 1.172-.37 1.399z" fill="#fff"/></svg>