<svg width="100" height="100" viewBox="0 0 26 26"><defs><radialGradient gradientUnits="userSpaceOnUse" r="18" cy="9" cx="10.6" id="prefix__a"><stop stop-color="#F8FF35" offset=".1"/><stop stop-color="#FF48B6" offset=".5"/><stop stop-color="#7950ED" offset="1"/></radialGradient></defs><path d="M1.112 5.361c-.167 1.587.207 2.467.71 2.692A1.966 1.966 0 002.37 9.66c.762.77 2.03.77 2.794 0l.269-.272a2.471 2.471 0 00-.024 3.412c.023.025.055.064.06.068l-.02-.02.052.054c-.321.984-.526 2.023-.526 3.111 0 5.498 4.435 9.987 9.91 9.987 5.474 0 9.91-4.484 9.91-9.982z" fill="#2b106d" fill-opacity=".3"/><path d="M1.19 4.463c-.166 1.587.208 2.467.711 2.692a1.966 1.966 0 00.546 1.606c.763.77 2.031.77 2.794 0l.27-.272a2.471 2.471 0 00-.024 3.413c.023.024.055.064.06.067l-.02-.02.052.054c-.321.985-.526 2.023-.526 3.112 0 5.497 4.435 9.987 9.91 9.987 5.474 0 9.91-4.485 9.91-9.983z" fill="#2a0f6d"/><path d="M6.779 7.285L5.605 6.16l-.834.873a1.224 1.224 0 01-1.742 0 1.236 1.236 0 01-.22-1.435c-1.127-.375-1.127-1.97 0-2.344a1.236 1.236 0 01.22-1.435c.374-.378.95-.472 1.424-.232.16-.488.618-.846 1.165-.846s1.004.358 1.165.846a1.225 1.225 0 011.424.232 1.235 1.235 0 010 1.738l-.873.848L8.447 5.49c.967-.923 2.401-.862 3.277-.207a9.081 9.081 0 013.294-.616c5.072 0 9.17 4.145 9.17 9.246 0 5.101-4.099 9.242-9.17 9.242-5.07 0-9.168-4.145-9.168-9.246 0-1.172.548-2.431.944-3.465-1.371-1.357-.015-3.159-.015-3.159z" fill="url(#prefix__a)" stroke="#391591" stroke-width="1.5"/><path d="M9.914 14.637c.232-2.57 2.79-2.937 4.884-1.87.012-1.74 1.714-3.653 3.411-3.14 1.502.453 2.365 1.794 2.206 3.229-.038.832-.692 1.84-1.504 2.09-.847.312-1.579.125-2.796-.293.112 1.833-.949 3.347-2.64 3.634-2.211.132-3.548-1.744-3.56-3.65zm7.821-.835c-.752.02-1.463-.62-1.479-1.38-.04-.746.587-1.436 1.327-1.49.71-.072 1.445.433 1.574 1.147.122.887-.767 1.712-1.422 1.723zm-4.649 2.983c.888.027 1.714-.752 1.71-1.646.025-.824-.645-1.588-1.46-1.688-.813-.126-1.68.402-1.897 1.204-.108 1.19.556 2.124 1.647 2.13z" clip-rule="evenodd" fill="#f8fbf4" fill-rule="evenodd"/></svg>