<svg width="100" height="100"><g stroke-width=".27"><path d="M80.886 41.668l-.66 28.752-50.22 6.48c-2.621-9.625-5.48-19.195-7.948-28.855-.322-3.49 4.307-5.593 7.02-3.708 3.3.902 6.458 2.555 9.895 2.77 8.768-.966 17.5-2.214 26.25-3.332 3.799-1.615 6.714-4.775 10.53-6.334 2.57-.704 5.17 1.665 5.133 4.227z" fill="#ff8743"/><path d="M91.236 42.052l-2.223 29.557-67.855 8.74c-3.172-9.735-6.582-19.404-9.601-29.183-.477-3.586 4.15-5.726 7.021-4.11 4.5.88 8.944 2.063 13.49 2.701 3.78-.68 4.977-4.919 7.42-7.362 2.823-3.635 5.44-7.458 8.47-10.918 3.31-2.321 6.588 1.211 9.057 3.14 4.242 3.257 8.374 6.664 12.78 9.703 3.558 1.04 6.408-2.161 9.533-3.285 3.126-1.147 6.296-4.71 9.794-3.022 1.422.754 2.508 2.389 2.114 4.039z" fill="#ffd43b"/><path d="M55.082 19.009c.964 5-5.232 9.424-9.66 6.897-4.287-1.983-5.023-8.75-1.044-11.447 3.856-2.959 10.342-.478 10.704 4.55z" fill="#fcde40"/></g><path d="M50.976 40.487c.824 3.827-5.76 5.273-6.556 1.389-1.111-3.395 4.015-6.048 5.965-2.897.32.441.535.964.59 1.508zm-6.003 6.958c.476 3.425-5.675 2-3.404-.905.96-1.259 3.322-.809 3.404.905zm3.041-30.193c.39 3.886-6.259.981-2.775-1.348 1.055-.718 2.68.079 2.775 1.348z" fill="#fff" stroke-width=".27"/><g stroke-width=".27"><path d="M14.307 39.413c.833 4.195-4.87 7.557-8.142 4.764-3.174-2.26-2.366-8.03 1.538-9.003 2.852-.905 6.384 1.165 6.604 4.239zm81.021-10.437c.833 4.195-4.87 7.557-8.142 4.764-3.174-2.259-2.366-8.033 1.54-9.002 2.855-.907 6.379 1.165 6.602 4.238z" fill="#fcde40"/><path d="M89.097 71.524c-1.39 5-6.731 7.138-11.243 8.496-15.93 5.088-37.885 7.819-51.915 3.816-3.154-.115-5.92-3.657-3.519-6.432C36.143 66.421 64.078 65.23 78.713 66.4c3.693.91 8.787.907 10.384 5.125z" fill="#d44459"/><path d="M84.545 72.497c-2.413 4.337-7.76 5.07-12.12 6.196-6.593 1.868-13.42 2.749-20.19 3.724-8.028.962-16.313 1.093-24.16-1.105-2.912-2.484 1.869-4.959 4.079-5.506 13.868-4.721 28.658-6.948 43.302-6.12 2.803.34 5.913.176 8.364 1.762.326.28.579.645.725 1.05z" fill="#560456"/></g><path d="M19.548 75.404c6.537-6.838 15.955-9.646 24.895-11.769 12.923-2.777 26.613-3.56 39.46.02 2.147.666 4.24 1.528 6.183 2.663" fill="none" stroke="#bf2424" stroke-width="1.602" stroke-opacity=".24"/><path d="M28.097 41.668c-2.684-1.444-5.242.877-7.287 2.383-1.36 1.14-4.252.676-5.42-.305 2.91-3.982-.295-10.327-5.104-10.825-5.144-.881-9.914 5.023-7.715 9.826 1.196 3.047 4.659 5.101 7.906 4.45-2.12 3.129-.073 6.815.91 9.956 2.723 8.114 5.278 16.287 8.18 24.34 2.585 4.33 8.065 5.086 12.62 5.75 15.188 1.433 42.363-1.779 56.97-11.286 2.95-3.18 2.14-7.832 2.648-11.78.586-7.944 1.288-15.889 1.708-23.84-.269-1.778-3.255-3.987.092-4.205 4.381-2.065 5.56-8.796 1.682-11.937-3.597-3.28-10.35-1.717-11.658 3.132-.909 2.802.024 6.172 2.413 7.95-2.078.136-4.17 3.27-5.987.78-2.76-1.85-6.45-.896-8.754 1.23l-3.799 2.53c-4.888-3.627-9.52-7.623-14.582-10.998-3.285-1.453-7.12.59-8.673 3.614l-8.794 11.59zm21.43-13.226c6.061-.453 9.81-8.321 6.396-13.343-2.986-5.25-11.595-5.576-14.824-.386-3.353 4.699-.696 12.412 5.126 13.533a8.76 8.76 0 003.302.196z" fill="none" stroke="#2c2a4a" stroke-width="4.18" stroke-linejoin="round"/><g stroke-width=".27"><path d="M9.465 38.104c.39 3.886-6.259.981-2.775-1.348 1.055-.718 2.68.079 2.775 1.348zM90.71 27.639c.39 3.885-6.258.98-2.775-1.348 1.056-.718 2.68.078 2.775 1.348z" fill="#fff"/><path d="M90.853 39.752c-3.038 9.456-8.008 18.453-15.345 25.245.203 2.059 4.193.529 5.798 1.638 2.774.303 5.81 2.853 7.442 3.801.606-6.885.95-13.8 1.443-20.699l.662-9.985z" fill="#ff3956" fill-opacity=".3"/></g></svg>