<svg width="100" height="100">
   <g fill="#000">
      <path
         d="M28.13 14.398c-1.944 0-3.746.33-5.322 1.164l-.062.032-14.19 8.46a9.048 9.048 0 00-3.107 2.964l-.039.061-.036.063a8.458 8.458 0 00-1.113 4.18c0 2.115.866 4.176 2.297 5.776l.025.028.029.03c1.563 1.65 3.77 2.64 6.03 2.64a8.632 8.632 0 004.42-1.235l.01-.006 1.644-1.008v39.58c0 2.26.902 4.48 2.497 6.074l.028.03.027.024c1.643 1.554 3.898 2.347 6.207 2.347 2.308 0 4.557-.784 6.245-2.295l.029-.025.027-.029a8.514 8.514 0 002.642-6.127V22.873c0-2.212-.837-4.389-2.378-5.947a8.248 8.248 0 00-5.91-2.53zm50.124 0c-2.652 0-5.209 1.223-6.85 3.295L41.785 53.966v.002c-1.29 1.549-2.046 3.513-2.046 5.514 0 2.228 1.012 4.392 2.644 5.94l.028.024.028.027c1.581 1.414 3.597 2.295 5.682 2.295h21.657v9.36c0 2.226.828 4.412 2.345 6.02l.027.027.027.029c1.54 1.54 3.7 2.399 5.887 2.399 2.227 0 4.422-.84 5.981-2.4 1.595-1.594 2.497-3.814 2.497-6.076v-9.359h1.192c2.075 0 4.134-.742 5.636-2.15l.033-.03.028-.033a8.007 8.007 0 002.308-5.604c0-2.112-.82-4.213-2.308-5.7-1.487-1.488-3.583-2.307-5.698-2.307h-1.191v-29.07c0-2.212-.84-4.386-2.378-5.943a8.242 8.242 0 00-5.91-2.533zm-8.476 29.285v8.26h-6.691z"
         fill-opacity=".5" stroke="#545454" stroke-width="1.1" />
      <path
         d="M28.13 14.398c-1.944 0-3.746.33-5.322 1.164l-.062.033-14.19 8.458a9.048 9.048 0 00-3.107 2.965l-.039.061-.036.063a8.458 8.458 0 00-1.113 4.18c0 .736.112 1.462.309 2.17.187-.68.453-1.337.803-1.95l.037-.063.039-.061a9.048 9.048 0 013.106-2.965l14.19-8.459.063-.033c1.576-.833 3.377-1.163 5.322-1.163a8.25 8.25 0 015.91 2.528c1.54 1.558 2.378 3.735 2.378 5.947v-4.4c0-2.21-.837-4.389-2.378-5.947a8.248 8.248 0 00-5.91-2.528zm50.124 0c-2.652 0-5.209 1.223-6.85 3.295L41.785 53.966v.002c-1.29 1.549-2.046 3.513-2.046 5.515 0 .728.119 1.448.321 2.144a8.919 8.919 0 011.725-3.26v-.001l29.619-36.273c1.641-2.072 4.2-3.295 6.85-3.295 2.21 0 4.385.933 5.91 2.533 1.539 1.557 2.378 3.731 2.378 5.942v-4.4c0-2.21-.84-4.385-2.378-5.942a8.242 8.242 0 00-5.91-2.533zM62.13 52.235l.13 4.012 7.954.097v-4.4zm23.876-.291v4.4h1.727c2.112 0 4.21.82 5.698 2.308.955.954 1.632 2.164 1.996 3.467.2-.704.311-1.435.311-2.167 0-2.114-.82-4.213-2.308-5.7-1.487-1.489-3.583-2.308-5.698-2.308z"
         fill-opacity=".2" />
   </g>
</svg>