<svg width="100" height="100" viewBox="0 0 26 26">
    <defs>
        <clipPath id="prefix__a">
            <path d="M0 972h1087V0H0" clip-rule="evenodd" />
        </clipPath>
    </defs>
    <g transform="matrix(.26554 0 0 -.26554 -99.242 180.514)" clip-path="url(#prefix__a)">
        <path
            d="M377 647c-1.5 9.9 5.4 19 15 21l47 7c9.9 1.5 19-5.4 21-15l7-47c1.5-9.9-5.4-19-15-21l-47-7c-9.9-1.5-19 5.4-21 15z"
            stroke-miterlimit="8" fill="none" stroke="#191c1d" stroke-width="5" stroke-linecap="round"
            stroke-dasharray="9 9" />
    </g>
    <path
        d="M15.536 10.247c.138.832-.043 1.833-.649 2.396-.352.367-.817.62-1.254.747.05.494.11.987.155 1.55-.083.24-.409.269-.62.325-.296.037-.606.126-.902.05-.184-.075-.139-.295-.184-.436-.098-.536-.211-1.071-.296-1.692-.043-.24.007-.55.268-.634.31-.101.677-.093.973-.282.423-.225.662-.69.662-1.17.01-.592-.197-1.254-.76-1.691-.537-.296-1.199-.197-1.833.004-.339.125-.635.324-.93.535-.297.138-.353-.31-.41-.521-.029-.254-.125-.522-.032-.776.212-.282.536-.422.846-.563.803-.353 1.832-.508 2.678-.381.775.118 1.55.536 1.832 1.212.226.38.367.79.423 1.226zM14.126 18.704c.045.339.09.776-.211 1.001-.296.211-.69.254-1.057.254-.31.012-.62-.183-.691-.494-.11-.338-.17-.718-.123-1.07.045-.34.38-.536.677-.579.366-.067.79-.155 1.1.103.21.198.267.522.31.79z"
        fill="#262626" />
</svg>