<svg width="100" height="100">
    <path
        d="M50 56.223c2.431 0 4.179.67 5.753 2.1l.017.016.02.017c1.558 1.37 2.16 2.706 2.16 4.692 0 1.9-.604 3.266-2.185 4.708-1.562 1.364-3.325 2.024-5.764 2.024-2.44 0-4.202-.66-5.766-2.027-1.579-1.441-2.186-2.805-2.186-4.705 0-1.988.605-3.322 2.164-4.692l.018-.017.016-.015c1.574-1.43 3.323-2.101 5.753-2.101zm0-26.001c1.964 0 3.24.532 4.437 1.73l.037.033.038.038c1.238 1.148 1.75 2.317 1.75 4.179 0 1.86-.524 3.09-1.788 4.31l-.017.016-.02.017c-1.198 1.198-2.475 1.73-4.436 1.73-2.04 0-3.419-.543-4.657-1.678-1.17-1.186-1.698-2.456-1.698-4.395 0-1.885.509-3.076 1.691-4.213v-.003h.002c1.258-1.214 2.623-1.764 4.661-1.764zm0-15.825c-4.166 0-8.1.955-11.633 2.864l-.008.006-.011.007c-3.443 1.897-6.264 4.527-8.322 7.792-2.079 3.297-3.146 7.024-3.146 10.949 0 3.317.822 6.4 2.506 9.002l.015.023.018.024c.909 1.344 1.991 2.52 3.177 3.577-4.62 3.894-7.31 8.875-7.31 14.594 0 4.066 1.139 7.928 3.349 11.349l.01.016.012.018c2.254 3.381 5.294 6.09 8.982 8.04l.011.004.01.005c3.772 1.955 7.936 2.937 12.341 2.937 4.402 0 8.536-.98 12.255-2.942 3.751-1.947 6.804-4.664 9.005-8.065 2.271-3.418 3.454-7.287 3.454-11.362 0-3.353-1.04-6.606-2.97-9.549-1.18-1.902-2.76-3.52-4.515-5.002a18.81 18.81 0 003.017-3.261v-.002c1.89-2.6 2.78-5.838 2.78-9.405 0-3.916-1.066-7.631-3.134-10.921-2.002-3.286-4.838-5.928-8.342-7.823-3.48-1.915-7.385-2.875-11.55-2.875z"
        fill-opacity=".5" stroke="#545454" stroke-width="1.1" />
    <path
        d="M50 14.917c-4.166 0-8.1.956-11.632 2.863l-.01.007-.01.006c-3.443 1.898-6.264 4.529-8.322 7.793-2.079 3.296-3.146 7.023-3.146 10.948 0 .737.049 1.459.13 2.168a20.235 20.235 0 013.016-8.716c2.058-3.264 4.878-5.895 8.322-7.793l.01-.006.01-.007C41.9 20.273 45.834 19.317 50 19.317c4.164 0 8.07.959 11.55 2.874 3.504 1.895 6.34 4.538 8.343 7.822a20.249 20.249 0 013.005 8.714c.079-.715.127-1.445.127-2.193 0-3.915-1.066-7.63-3.132-10.92-2.002-3.285-4.84-5.928-8.343-7.822-3.48-1.916-7.386-2.875-11.55-2.875zm6.785 21.871c-.285.77-1.623 3.58-2.31 4.243l-.018.017-.02.017c-1.196 1.198-2.475 1.73-4.436 1.73-2.04 0-3.419-.543-4.657-1.678-.651-.66-1.911-3.992-2.184-4.805-.296 2.921.275 7.221 2.184 9.205 1.238 1.135 2.618 1.678 4.657 1.678 1.963 0 3.24-.532 4.436-1.73l.02-.017.017-.017c2.002-2.598 2.21-5.439 2.31-8.643zm-23.53 12.398c-4.825 4.177-7.97 9.836-7.97 14.569 0 .756.053 1.504.132 2.245.588-4.818 3.56-9.284 7.592-12.68zm33.44-.027l.018 3.963c1.755 1.482 3.85 3.581 5.032 5.483 1.529 2.331 2.488 4.86 2.826 7.475.087-.768.143-1.541.143-2.326 0-3.352-1.039-6.606-2.97-9.549-.645-1.04-4.201-4.153-5.048-5.046zm-24.28 16.579c-.247.662-.364 1.386-.364 2.23 0 1.9.605 3.263 2.185 4.705 1.562 1.366 3.325 2.024 5.764 2.024s4.202-.658 5.764-2.024c1.58-1.44 2.185-2.805 2.185-4.707 0-.844-.118-1.567-.363-2.23-.334.898-.911 1.706-1.822 2.538-1.562 1.364-3.325 2.024-5.764 2.024-2.44 0-4.202-.66-5.766-2.026-.91-.831-1.488-1.639-1.823-2.535z"
        fill-opacity=".2" />
</svg>