<svg width="100" height="100">
   <path
      d="M49.907 29.612c2.335 0 3.94.706 5.48 2.391l.014.015.014.015c1.6 1.696 2.349 3.608 2.349 6.28 0 2.673-.75 4.584-2.349 6.28l-.014.015-.013.017c-1.54 1.685-3.146 2.392-5.481 2.392-2.259 0-3.89-.709-5.508-2.425-1.6-1.695-2.349-3.608-2.349-6.28 0-2.671.75-4.583 2.349-6.28 1.617-1.715 3.25-2.42 5.508-2.42zm0-15.826c-4.449 0-8.638 1.104-12.371 3.288-3.71 2.169-6.732 5.196-8.956 8.95l-.003.006-.004.007c-2.18 3.726-3.287 7.883-3.287 12.276 0 4.353 1.15 8.515 3.388 12.291l.007.009.004.01c2.204 3.65 5.084 6.645 8.57 8.874l.026.017.027.018c3.547 2.156 7.297 3.31 11.097 3.31 1.054 0 2.085-.11 3.1-.277-.548.565-.978 1.193-1.597 1.72l-.01.01-.01.008c-3.044 2.643-6.3 4.428-9.843 5.44l-.007.003-.006.002c-1.928.562-3.658 1.606-4.955 3.075l-.002.004-.004.005c-1.287 1.47-1.996 3.416-1.996 5.376 0 2.353.817 4.692 2.6 6.16l.036.03.04.03c1.602 1.225 3.622 1.785 5.708 1.785.938 0 1.882-.126 2.824-.363l.044-.01.043-.012c7.67-2.181 13.926-5.939 18.504-11.266 4.472-5.132 7.604-10.654 9.29-16.517 1.683-5.702 2.55-10.989 2.55-15.881 0-4.812-.992-9.394-2.974-13.634l-.002-.002c-1.995-4.334-4.924-7.913-8.692-10.569-3.827-2.759-8.31-4.172-13.14-4.172z"
      fill-opacity=".5" stroke="#545454" stroke-width="1.1" />
   <path
      d="M49.907 13.787c-4.449 0-8.638 1.103-12.371 3.287-3.71 2.169-6.732 5.197-8.956 8.95l-.003.007-.004.007c-2.18 3.726-3.287 7.882-3.287 12.276 0 .73.044 1.452.11 2.17.313-3.57 1.37-6.958 3.177-10.046l.004-.007.003-.007c2.224-3.753 5.247-6.781 8.956-8.95 3.733-2.184 7.922-3.287 12.37-3.287 4.83 0 9.314 1.412 13.141 4.172 3.768 2.655 6.697 6.234 8.692 10.568l.002.002c1.692 3.622 2.656 7.498 2.903 11.548.042-.779.07-1.553.07-2.313 0-4.812-.992-9.394-2.972-13.635l-.003-.002c-1.995-4.334-4.924-7.913-8.692-10.568-3.828-2.76-8.31-4.172-13.14-4.172zM41.63 39.638c.045 3.204.258 6.59 2.768 9.356 1.617 1.716 3.25 2.423 5.508 2.423 2.335 0 3.94-.706 5.48-2.392l.014-.017.014-.014c2.37-3.142 2.648-5.694 2.768-9.258-.32 1.588-1.647 3.668-2.768 4.858l-.014.014-.013.017c-1.54 1.686-3.146 2.392-5.481 2.392-2.259 0-3.89-.707-5.508-2.423-1.122-1.19-2.448-3.366-2.768-4.956zm10.94 26.433l.322-4.278c-1.923 1.17-10.736 7.347-12.848 7.95l-.005.002-.007.002c-1.93.562-3.659 1.606-4.954 3.075l-.003.004-.004.007c-1.287 1.47-1.997 3.417-1.997 5.377 0 .774.098 1.542.28 2.282a8.096 8.096 0 011.716-3.26l.005-.006.003-.004c1.295-1.47 3.025-2.513 4.954-3.075l.007-.002.006-.002c3.542-1.012 6.798-2.799 9.842-5.44l.01-.008.01-.01c.62-.527 2.013-1.946 2.664-2.614z"
      fill-opacity=".2" />
</svg>