<svg width="100" height="100" viewBox="0 0 26 26">
   <defs>
      <radialGradient gradientTransform="matrix(2.8211 15.81756 -17.04176 3.03944 9.074 7.45)"
         gradientUnits="userSpaceOnUse" r="1" cy="0" cx="0" id="prefix__a">
         <stop stop-color="#E69494" />
         <stop stop-color="#9F6159" offset="1" />
      </radialGradient>
   </defs>
   <rect x="-.183" y="2.864" width="24.027" height="23.759" rx="6.712" transform="rotate(-4.946)" fill-opacity=".15" />
   <rect y="1.522" x="-.183" width="24.027" height="24.027" rx="6.712" transform="rotate(-4.946)" fill="#80514b" />
   <rect x=".354" y="2.059" width="22.953" height="21.208" rx="6.175" transform="rotate(-4.946)"
      fill="url(#prefix__a)" />
   <path
      d="M15.836 5.291c-.316.037-.603.126-.845.296l-.009.007-2.156 1.692a1.537 1.482 90 00-.452.558l-.005.011-.005.011a1.436 1.384 90 00-.106.726c.038.357.216.689.478.932l.005.004.004.005c.284.249.662.375 1.03.332a1.465 1.413 90 00.696-.29l.002-.002.249-.2.713 6.677c.04.381.227.739.515.978l.005.004.006.004c.295.231.676.323 1.051.28a1.51 1.51 0 00.975-.504l.004-.005.004-.005a1.445 1.394 90 00.32-1.083l-.977-9.153a1.456 1.456 0 00-.494-.958 1.4 1.35 90 00-1.007-.317zm-6.084.699c-.316.036-.604.126-.845.296l-.01.006-2.155 1.693a1.537 1.482 90 00-.453.558l-.005.01-.005.012a1.436 1.384 90 00-.105.726c.038.357.216.689.477.932l.005.004.005.004c.284.25.661.375 1.029.333a1.465 1.413 90 00.697-.29l.001-.002.25-.2.713 6.677c.04.38.227.738.515.978l.005.004.005.004c.296.231.676.323 1.052.28a1.51 1.51 0 00.975-.504l.004-.005.004-.005a1.445 1.394 90 00.32-1.083l-.978-9.153a1.456 1.456 0 00-.494-.959 1.4 1.35 90 00-1.007-.316z"
      fill-opacity=".5" stroke="#545454" stroke-width=".183" />
   <path
      d="M15.836 5.291c-.316.037-.603.126-.845.296l-.009.007-2.156 1.692a1.537 1.482 90 00-.452.558l-.006.011-.004.011a1.436 1.385 90 00-.106.726c.013.125.045.246.09.361a1.436 1.385 90 01.095-.344l.005-.011.005-.012a1.537 1.482 90 01.452-.558l2.156-1.692.01-.007c.241-.17.528-.26.845-.295.36-.042.73.075 1.007.316.278.234.454.585.494.959l-.08-.743a1.457 1.457 0 00-.493-.959 1.4 1.35 90 00-1.007-.316zm-6.084.699c-.316.036-.604.126-.845.296l-.01.007-2.155 1.692a1.537 1.482 90 00-.453.558l-.005.011-.005.011a1.436 1.385 90 00-.105.726c.013.124.044.245.089.361a1.436 1.385 90 01.096-.345l.004-.01.006-.012a1.537 1.482 90 01.452-.558l2.156-1.692.01-.007c.24-.17.528-.26.844-.296.36-.041.73.076 1.007.317.279.234.455.585.495.958l-.08-.742a1.457 1.457 0 00-.494-.959 1.4 1.35 90 00-1.007-.316z"
      fill-opacity=".2" />
</svg>