<svg width="100" height="100">
   <g fill="#000">
      <path
         d="M68.693 30.222c3.132 0 5.129 1.172 7.018 4.375l.01.012.01.015c1.906 3.146 3.074 8.28 3.074 15.377 0 7.096-1.168 12.231-3.075 15.376l-.009.013-.009.014c-1.89 3.204-3.887 4.375-7.019 4.375-3.128 0-5.173-1.185-7.122-4.393-1.853-3.15-2.988-8.294-2.988-15.385 0-7.093 1.135-12.235 2.988-15.386 1.95-3.207 3.994-4.393 7.122-4.393zM27.366 14.396c-1.944 0-3.747.33-5.324 1.165l-.062.033-14.187 8.457a9.053 9.053 0 00-3.109 2.965l-.04.062-.036.062a8.458 8.458 0 00-1.112 4.18c0 2.115.865 4.177 2.296 5.776l.026.027.028.031c1.564 1.65 3.772 2.64 6.033 2.64a8.624 8.624 0 004.417-1.235l.013-.007 1.644-1.007v39.581c0 2.263.9 4.481 2.494 6.076l.028.028.027.026c1.645 1.552 3.899 2.347 6.208 2.347s4.556-.784 6.245-2.295l.028-.026.03-.028a8.512 8.512 0 002.64-6.127V22.871c0-2.211-.836-4.385-2.376-5.942a8.242 8.242 0 00-5.91-2.534zm41.327-.938c-5.747 0-10.94 1.587-15.242 4.76l-.01.007-.008.007c-4.215 3.16-7.375 7.623-9.464 13.148-2.083 5.445-3.09 11.664-3.09 18.621 0 6.961 1.01 13.211 3.09 18.713l.002.005v.006c2.09 5.463 5.256 9.888 9.462 13.043l.009.007.009.006c4.3 3.174 9.495 4.761 15.242 4.761 5.745 0 10.912-1.587 15.158-4.77.001-.002.006-.002.008-.004 4.264-3.15 7.462-7.579 9.555-13.043l.002-.006.002-.005c2.078-5.503 3.087-11.75 3.087-18.714 0-6.96-1.008-13.183-3.091-18.63-2.09-5.525-5.29-9.988-9.563-13.143-4.246-3.182-9.413-4.77-15.158-4.77z"
         fill-opacity=".478" stroke="#545454" stroke-width="1.1" />
      <path
         d="M68.693 13.458c-5.747 0-10.94 1.587-15.242 4.76l-.01.007-.008.007c-4.215 3.161-7.375 7.624-9.464 13.148-2.083 5.445-3.09 11.664-3.09 18.621 0 .744.018 1.475.042 2.202.192-6.073 1.188-11.56 3.048-16.423 2.089-5.524 5.249-9.988 9.464-13.148l.009-.007.009-.006c4.3-3.174 9.495-4.76 15.242-4.76 5.745 0 10.912 1.587 15.158 4.769 4.273 3.156 7.472 7.618 9.563 13.145 1.86 4.864 2.857 10.35 3.05 16.428.022-.726.04-1.457.04-2.2 0-6.96-1.007-13.183-3.09-18.63-2.09-5.525-5.291-9.987-9.564-13.143-4.246-3.182-9.412-4.77-15.158-4.77zm-41.327.94c-1.944 0-3.747.33-5.324 1.163l-.062.033-14.187 8.457a9.053 9.053 0 00-3.109 2.965l-.04.062-.036.063a8.458 8.458 0 00-1.112 4.178c0 .737.113 1.464.308 2.17a8.51 8.51 0 01.804-1.948l.037-.063.04-.062a9.053 9.053 0 013.108-2.965l14.188-8.459.062-.032c1.577-.834 3.38-1.164 5.324-1.164 2.211 0 4.386.933 5.91 2.533 1.54 1.557 2.377 3.732 2.377 5.943v-4.4c0-2.211-.837-4.386-2.376-5.943a8.242 8.242 0 00-5.91-2.533zM58.628 52.2a59.122 59.122 0 00-.045 2.2c0 7.092 1.135 12.234 2.988 15.385 1.95 3.208 3.994 4.393 7.122 4.393 3.132 0 5.129-1.17 7.018-4.374l.01-.015.01-.013c1.906-3.145 3.074-8.28 3.074-15.376 0-.759-.02-1.485-.046-2.2-.218 5.962-1.326 10.368-3.029 13.176l-.009.013-.009.015c-1.89 3.204-3.887 4.374-7.019 4.374-3.128 0-5.173-1.185-7.122-4.393-1.653-2.813-2.73-7.226-2.943-13.185z"
         fill-opacity=".2" />
   </g>
</svg>