<svg width="100" height="100">
   <g fill="#000">
      <path
         d="M76.49 14.397c-1.945 0-3.747.33-5.324 1.165l-.06.032-14.19 8.46a9.053 9.053 0 00-3.109 2.964l-.038.061-.036.063a8.458 8.458 0 00-1.112 4.179c0 2.116.863 4.177 2.295 5.777l.027.028.026.03c1.564 1.65 3.773 2.64 6.033 2.64a8.632 8.632 0 004.419-1.235l.01-.006 1.645-1.008v39.58c0 2.26.9 4.48 2.494 6.075l.029.028.03.025c1.643 1.553 3.896 2.347 6.203 2.347 2.31 0 4.557-.784 6.246-2.295l.031-.025.028-.029a8.514 8.514 0 002.642-6.127V22.874c0-2.212-.837-4.389-2.378-5.947a8.248 8.248 0 00-5.91-2.53zm-37.4 0c-1.945 0-3.748.33-5.324 1.165l-.06.032-14.19 8.46a9.053 9.053 0 00-3.109 2.964l-.038.061-.036.063a8.458 8.458 0 00-1.112 4.179c0 2.116.863 4.177 2.295 5.777l.027.028.026.03c1.564 1.65 3.773 2.64 6.033 2.64a8.632 8.632 0 004.419-1.235l.01-.006 1.645-1.008v39.58c0 2.26.9 4.48 2.494 6.075l.029.028.03.025c1.643 1.553 3.896 2.347 6.203 2.347 2.31 0 4.557-.784 6.246-2.295l.031-.025.028-.029a8.514 8.514 0 002.642-6.127V22.874c0-2.212-.837-4.389-2.378-5.947a8.248 8.248 0 00-5.91-2.53z"
         fill-opacity=".478" stroke="#545454" stroke-width="1.1" />
      <path
         d="M76.49 14.397c-1.945 0-3.747.33-5.324 1.165l-.06.033-14.19 8.458a9.053 9.053 0 00-3.109 2.965l-.038.062-.036.062a8.459 8.459 0 00-1.112 4.179c0 .737.11 1.467.307 2.175a8.459 8.459 0 01.805-1.954l.036-.062.038-.062a9.053 9.053 0 013.109-2.965l14.19-8.459.06-.033c1.577-.834 3.38-1.164 5.324-1.164 2.211 0 4.386.932 5.91 2.53 1.54 1.557 2.379 3.734 2.379 5.946v-4.4c0-2.211-.838-4.39-2.378-5.947a8.248 8.248 0 00-5.91-2.529zm-37.4 0c-1.945 0-3.748.33-5.324 1.165l-.06.033-14.19 8.458a9.053 9.053 0 00-3.109 2.965l-.038.062-.036.062a8.459 8.459 0 00-1.112 4.179c0 .737.11 1.467.307 2.175a8.459 8.459 0 01.805-1.954l.036-.062.038-.062a9.053 9.053 0 013.109-2.965l14.19-8.459.06-.033c1.576-.834 3.38-1.164 5.324-1.164 2.211 0 4.386.932 5.91 2.53 1.54 1.557 2.379 3.734 2.379 5.946v-4.4c0-2.211-.839-4.39-2.379-5.947a8.248 8.248 0 00-5.91-2.529z"
         fill-opacity=".2" />
   </g>
</svg>