<svg width="100" height="100">
    <g fill="#000">
        <path
            d="M56.074 13.928c-1.994 0-3.963.678-5.496 1.938-1.472 1.199-2.482 2.934-2.839 4.804l-.016.085-2.92 23.367.06-.327c-.194.773-.176 1.264-.176 1.98 0 2.322.693 4.56 2.065 6.36l.025.033.024.032c1.71 2.113 4.46 2.99 7.394 2.99a8.086 8.086 0 002.968-.567c.834-.307 1.778-.732 2.915-1.3 1.494-.716 2.75-1.237 3.717-1.56.793-.264 1.78-.42 2.98-.42 2.58 0 4.546.765 6.398 2.466 1.782 1.637 2.585 3.484 2.585 6.235 0 1.771-.484 3.325-1.581 4.92l-.018.023-.015.024c-1.056 1.609-2.45 2.87-4.335 3.865a12.4 12.4 0 01-5.945 1.465c-1.258 0-3.135-.565-5.499-2.028l.137.088c-1.925-1.353-3.714-2.284-5.808-2.284-2.112 0-4.203.724-5.726 2.148l-.002.003-.002.002c-1.366 1.277-2.277 3.12-2.277 5.008 0 1.46.365 2.907.988 4.31.631 1.42 1.486 2.672 2.629 3.624l.018.014.015.012c1.978 1.597 4.414 2.77 7.244 3.599l.01.002.008.002c2.845.813 5.637 1.232 8.36 1.232 4.983 0 9.713-1.145 14.041-3.412l.016-.006.015-.01c4.305-2.322 7.836-5.495 10.463-9.436 2.654-3.98 4.029-8.453 4.029-13.165 0-4.498-1.1-8.712-3.278-12.446-2.112-3.723-5.135-6.706-8.91-8.81-3.738-2.178-7.98-3.27-12.528-3.27-1.875 0-3.81.25-5.808.732-.207.05-.341.153-.544.206l.88-6.703H83.2c2.075 0 4.134-.745 5.635-2.152l.035-.031.03-.03a8.007 8.007 0 002.307-5.605c0-2.112-.82-4.213-2.307-5.7-1.488-1.488-3.587-2.307-5.7-2.307zm-24.727 0c-1.944 0-3.747.33-5.324 1.165l-.06.031-14.19 8.46a9.053 9.053 0 00-3.11 2.964l-.038.062-.033.062a8.458 8.458 0 00-1.115 4.18c0 2.116.864 4.176 2.295 5.776l.029.028.025.03c1.564 1.65 3.772 2.64 6.032 2.64a8.632 8.632 0 004.42-1.235l.011-.006 1.643-1.008v39.58c0 2.262.9 4.482 2.495 6.076l.028.028.03.026c1.644 1.553 3.896 2.346 6.205 2.346 2.308 0 4.556-.783 6.245-2.295l.03-.025.029-.029a8.514 8.514 0 002.642-6.127V22.403c0-2.212-.838-4.389-2.378-5.946a8.248 8.248 0 00-5.91-2.53z"
            fill-opacity=".478" stroke="#545454" stroke-width="1.1" />
        <path
            d="M56.074 13.928c-1.994 0-3.963.678-5.496 1.938-1.472 1.199-2.482 2.934-2.839 4.804l-.016.085-2.92 23.367.06-.326c-.194.773-.176 1.263-.176 1.98 0 .705.073 1.4.2 2.079l2.836-22.7.016-.085c.357-1.87 1.367-3.605 2.838-4.804 1.534-1.26 3.503-1.938 5.497-1.938H83.2c2.112 0 4.213.82 5.7 2.307.956.956 1.632 2.165 1.996 3.468.2-.704.311-1.434.311-2.167 0-2.113-.82-4.213-2.308-5.7-1.487-1.488-3.586-2.308-5.699-2.308zm11.733 21.59c-1.855 0-4.858.466-6.832.938l-.207 3.472s1.023.773 1.232.722c1.996-.482 3.932-.733 5.807-.733 4.548 0 8.79 1.093 12.529 3.273 3.773 2.102 6.797 5.086 8.908 8.809 1.81 3.102 2.862 6.535 3.17 10.186.065-.709.108-1.42.108-2.14 0-4.498-1.098-8.712-3.278-12.446-2.112-3.723-5.134-6.707-8.908-8.81-3.74-2.18-7.98-3.272-12.53-3.272zM76.32 61.1c-.244.988-1.484 2.902-2.145 3.863l-.017.023-.015.025c-1.056 1.608-2.45 2.87-4.335 3.864a12.4 12.4 0 01-5.945 1.465c-1.258 0-3.135-.566-5.496-2.027h-.002c-1.873-1.303-3.627-2.196-5.672-2.196-2.112 0-4.203.723-5.726 2.149l-.002.002-.002.002c-1.366 1.276-2.277 3.12-2.277 5.007 0 .814.122 1.624.33 2.425a7.35 7.35 0 011.947-3.032l.002-.002.002-.002c1.523-1.426 3.614-2.149 5.726-2.149 2.045 0 3.8.893 5.672 2.196h.002c2.361 1.46 4.238 2.027 5.496 2.027 2.141 0 4.073-.477 5.945-1.465 1.884-.994 3.28-2.256 4.335-3.864l.015-.025.018-.023c1.45-2.714 1.916-5.369 2.144-8.263zM31.347 13.928c-1.944 0-3.747.33-5.324 1.165l-.06.033-14.19 8.457a9.053 9.053 0 00-3.109 2.965l-.038.062-.035.062a8.458 8.458 0 00-1.113 4.18c0 .736.11 1.462.308 2.17a8.45 8.45 0 01.805-1.95l.035-.062.038-.062a9.053 9.053 0 013.109-2.965l14.19-8.459.06-.033c1.577-.833 3.38-1.163 5.324-1.163 2.211 0 4.386.931 5.91 2.53 1.54 1.556 2.379 3.733 2.379 5.945v-4.4c0-2.21-.838-4.389-2.378-5.946a8.248 8.248 0 00-5.91-2.53z"
            fill-opacity=".2" />
    </g>
</svg>