<svg width="100" height="100">
    <g fill="#000">
        <path
            d="M68.506 52.94c4.882.4 7.697 4.41 7.741 8.57-.126 4.712-3.51 8.52-7.741 8.573-4.957-.37-7.696-4.372-7.74-8.571.096-4.783 3.487-8.521 7.74-8.572zM30.753 14.603c-1.915 0-3.689.325-5.242 1.148l-.062.03-13.978 8.333a8.912 8.912 0 00-3.06 2.922l-.039.06-.036.061a8.331 8.331 0 00-1.096 4.117c0 2.086.852 4.115 2.263 5.69l.025.028.028.03c3.16 2.674 6.92 3.361 10.294 1.384l.01-.006 1.62-.993v38.99c0 2.229.888 4.415 2.459 5.986l.028.028.027.025c1.62 1.53 3.84 2.311 6.114 2.311 2.275 0 4.488-.771 6.153-2.26l.027-.026.028-.027a8.387 8.387 0 002.603-6.037V22.952c0-2.179-.825-4.324-2.343-5.858a8.126 8.126 0 00-5.822-2.49zm46.077-.276a11.483 11.483 0 00-2.785.356l-.043.011-.04.013c-7.557 2.15-13.746 5.849-18.315 11.09l-.007.006-.006.01c-4.346 5.058-7.423 10.524-9.143 16.346l-.002.01-.005.01c-1.596 5.557-2.416 10.733-2.416 15.543 0 4.745.98 9.289 2.928 13.524l.005.006.004.01c4.454 8.673 11.824 14.307 21.5 14.412 8.913-.265 16.725-4.953 20.921-11.969a23.694 23.694 0 003.333-12.192c-.35-8.764-5.06-16.521-11.907-20.787-3.434-2.193-7.113-3.373-10.865-3.373-1.06 0-2.1.104-3.122.276.535-.56.958-1.184 1.56-1.707 3.063-2.608 6.304-4.373 9.795-5.37l.007-.002.009-.002c1.874-.547 3.552-1.527 4.79-2.942 1.306-1.482 2.06-3.421 2.06-5.391 0-2.302-.814-4.607-2.61-6.002-1.565-1.268-3.577-1.885-5.646-1.885z"
            overflow="visible" fill-opacity=".478" stroke="#545454" stroke-width="1.0838016" />
        <path
            d="M76.83 14.328a11.483 11.483 0 00-2.785.357l-.043.011-.04.013c-7.557 2.15-13.746 5.85-18.315 11.09l-.007.006-.006.01c-4.346 5.058-7.423 10.524-9.143 16.347l-.002.008-.005.011c-1.596 5.556-2.416 10.733-2.416 15.543 0 .688.024 1.373.064 2.052.216-4.155 1.005-8.572 2.352-13.262l.005-.009.002-.009c1.72-5.823 4.797-11.289 9.142-16.347l.007-.01.007-.006c4.569-5.24 10.758-8.94 18.315-11.09l.04-.013.043-.01a11.483 11.483 0 012.785-.358v.004c2.069 0 4.082.617 5.646 1.885 1.201.932 1.954 2.273 2.326 3.746.804-5.737-2.753-9.907-7.971-9.966zm-46.077.277c-1.915 0-3.689.325-5.242 1.147l-.062.032-13.978 8.332c-3.38 2.84-4.674 5.556-3.926 9.298a8.331 8.331 0 01.792-1.92l.035-.062.039-.06a8.912 8.912 0 013.06-2.922l13.978-8.331.062-.032c1.553-.822 3.327-1.148 5.242-1.148 2.179 0 4.32.917 5.823 2.491 1.517 1.535 2.343 3.68 2.343 5.859v-4.334c0-2.18-.826-4.324-2.343-5.859a8.126 8.126 0 00-5.823-2.491zm41.485 22.904c-2.602.053-6.328.72-6.328.72-.602.524-.405 3.042.957 3.737a18.72 18.72 0 013.122-.277c3.751 0 7.43 1.181 10.865 3.373 3.51 2.14 6.392 5.104 8.563 8.766a23.006 23.006 0 013.235 9.87 23.046 23.046 0 00-3.234-14.203c-2.172-3.663-5.054-6.626-8.564-8.767-2.744-1.751-5.646-2.845-8.616-3.22zM60.97 63.68c-.131.668-.203 1.382-.203 2.168 0 2.64.726 4.537 2.237 6.197 1.58 1.67 3.208 2.374 5.502 2.374 2.224 0 3.833-.694 5.426-2.385 1.576-1.67 2.316-3.554 2.316-6.186 0-.787-.075-1.5-.21-2.168-.316 1.565-1.002 2.848-2.106 4.02-1.594 1.69-3.202 2.384-5.426 2.384-2.294 0-3.923-.704-5.502-2.374-1.06-1.166-1.727-2.455-2.034-4.03z"
            overflow="visible" fill-opacity=".2" />
    </g>
</svg>