<svg width="100" height="100">
    <path
        d="M52.445 14.586c-2.098 0-4.177.815-5.662 2.28-1.493 1.419-2.346 3.476-2.346 5.538 0 2.113.82 4.213 2.308 5.7 1.487 1.487 3.586 2.308 5.7 2.308H73.13L53.047 74.38a8.822 8.822 0 00-.817 3.687c0 2.19.955 4.34 2.55 5.848l.029.026.027.023a8.993 8.993 0 005.962 2.297 8.384 8.384 0 004.624-1.4c1.408-.94 2.486-2.335 3.102-3.92l-.055.138 24.696-54.561.013-.027c.497-1.16.784-2.381.784-3.618a7.894 7.894 0 00-2.866-6.036 9.114 9.114 0 00-5.986-2.252zm-21.692.017c-1.915 0-3.689.325-5.242 1.148l-.062.03-13.978 8.333a8.912 8.912 0 00-3.06 2.922l-.039.06-.036.061a8.331 8.331 0 00-1.096 4.117c0 2.086.852 4.115 2.263 5.69l.025.028.028.03c3.16 2.674 6.92 3.361 10.294 1.384l.01-.006 1.62-.993v38.99c0 2.229.888 4.415 2.459 5.986l.028.028.027.025c1.62 1.53 3.84 2.311 6.114 2.311 2.275 0 4.488-.771 6.153-2.26l.027-.026.028-.027a8.387 8.387 0 002.603-6.037V22.952c0-2.179-.825-4.324-2.343-5.858a8.126 8.126 0 00-5.822-2.49z"
        fill-opacity=".478" stroke="#545454" stroke-width="1.1" />
    <path
        d="M73.697 29.854L53.046 74.382a8.822 8.822 0 00-.817 3.686c0 .726.116 1.444.314 2.14a8.91 8.91 0 01.502-1.426l20.477-44.603zM52.445 14.586c-2.098 0-4.177.815-5.662 2.28-1.493 1.42-2.346 3.477-2.346 5.539 0 .76.109 1.518.313 2.247a7.598 7.598 0 012.033-3.385c1.485-1.466 3.564-2.281 5.662-2.281h32.664c2.197 0 4.34.808 5.986 2.252 1.224.998 2.105 2.38 2.546 3.895.2-.74.319-1.496.319-2.26a7.894 7.894 0 00-2.865-6.035 9.114 9.114 0 00-5.986-2.252zm-21.692.019c-1.915 0-3.689.325-5.242 1.147l-.062.032-13.978 8.332c-3.38 2.84-4.674 5.556-3.926 9.298a8.331 8.331 0 01.792-1.92l.035-.062.039-.06a8.912 8.912 0 013.06-2.922l13.978-8.331.062-.032c1.553-.822 3.327-1.148 5.242-1.148 2.179 0 4.32.917 5.823 2.491 1.517 1.535 2.343 3.68 2.343 5.859v-4.334c0-2.18-.826-4.324-2.343-5.859a8.126 8.126 0 00-5.823-2.491z"
        fill-opacity=".2" />
</svg>