<svg width="100" height="100" fill="none"><g transform="translate(7 -13.5)"><circle cy="41" cx="-43" transform="scale(-1 1)" r="14" fill="#000" fill-opacity=".48"/><circle cy="41" cx="-43" transform="scale(-1 1)" r="13.5" stroke="#000" stroke-opacity=".15"/><path d="M29 41c0 1.208.441 3.5.441 3.5S32 34 43 34s13.559 10.5 13.559 10.5S57 42.209 57 41c0-7.732-6.268-14-14-14s-14 6.268-14 14z" fill="#000" fill-opacity=".2"/><circle cy="86" cx="-72" transform="scale(-1 1)" r="14" fill="#000" fill-opacity=".48"/><circle cy="86" cx="-72" transform="scale(-1 1)" r="13.5" stroke="#000" stroke-opacity=".15"/><path d="M58 86c0 1.208.441 3.5.441 3.5S61 79 72 79s13.559 10.5 13.559 10.5S86 87.209 86 86c0-7.732-6.268-14-14-14s-14 6.268-14 14z" fill="#000" fill-opacity=".2"/><circle cy="86" cx="-14" transform="scale(-1 1)" r="14" fill="#000" fill-opacity=".48"/><circle cy="86" cx="-14" transform="scale(-1 1)" r="13.5" stroke="#000" stroke-opacity=".15"/><path d="M0 86c0 1.208.441 3.5.441 3.5S3 79 14 79s13.559 10.5 13.559 10.5S28 87.209 28 86c0-7.732-6.268-14-14-14S0 78.268 0 86z" fill="#000" fill-opacity=".2"/></g></svg>