<svg width="100" height="100" fill="none"><circle transform="scale(-1 1)" cx="-79" cy="22" r="14" fill="#000" fill-opacity=".48"/><circle transform="scale(-1 1)" cx="-79" cy="22" r="13.5" stroke="#000" stroke-opacity=".15"/><path d="M65 22c0 1.21.441 3.5.441 3.5s2.56-10.5 13.6-10.5 13.6 10.5 13.6 10.5.441-2.29.441-3.5c0-7.73-6.27-14-14-14s-14 6.27-14 14z" fill="#000" fill-opacity=".2"/><circle transform="scale(-1 1)" cx="-21" cy="22" r="14" fill="#000" fill-opacity=".48"/><circle transform="scale(-1 1)" cx="-21" cy="22" r="13.5" stroke="#000" stroke-opacity=".15"/><path d="M7 22c0 1.21.441 3.5.441 3.5s2.56-10.5 13.6-10.5 13.6 10.5 13.6 10.5.441-2.29.441-3.5c0-7.73-6.27-14-14-14s-14 6.27-14 14z" fill="#000" fill-opacity=".2"/><circle transform="scale(-1 1)" cx="-50" cy="50" r="14" fill="#000" fill-opacity=".48"/><circle transform="scale(-1 1)" cx="-50" cy="50" r="13.5" stroke="#000" stroke-opacity=".15"/><path d="M36 50c0 1.21.441 3.5.441 3.5s2.56-10.5 13.6-10.5 13.6 10.5 13.6 10.5.441-2.29.441-3.5c0-7.73-6.27-14-14-14s-14 6.27-14 14z" fill="#000" fill-opacity=".2"/><circle transform="scale(-1 1)" cx="-79" cy="78" r="14" fill="#000" fill-opacity=".48"/><circle transform="scale(-1 1)" cx="-79" cy="78" r="13.5" stroke="#000" stroke-opacity=".15"/><path d="M65 78c0 1.21.441 3.5.441 3.5s2.56-10.5 13.6-10.5 13.6 10.5 13.6 10.5.441-2.29.441-3.5c0-7.73-6.27-14-14-14s-14 6.27-14 14z" fill="#000" fill-opacity=".2"/><circle transform="scale(-1 1)" cx="-21" cy="78" r="14" fill="#000" fill-opacity=".48"/><circle transform="scale(-1 1)" cx="-21" cy="78" r="13.5" stroke="#000" stroke-opacity=".15"/><path d="M7 78c0 1.21.441 3.5.441 3.5s2.56-10.5 13.6-10.5 13.6 10.5 13.6 10.5.441-2.29.441-3.5c0-7.73-6.27-14-14-14s-14 6.27-14 14z" fill="#000" fill-opacity=".2"/></svg>