<svg width="100" height="100" fill="none"><circle r="14" transform="scale(-1 1)" cx="-74" cy="16" fill="#000" fill-opacity=".48"/><circle r="13.5" transform="scale(-1 1)" cx="-74" cy="16" stroke="#000" stroke-opacity=".15"/><path d="M60 16c0 1.208.441 3.5.441 3.5S63 9 74 9s13.559 10.5 13.559 10.5S88 17.209 88 16c0-7.732-6.268-14-14-14S60 8.268 60 16z" fill="#000" fill-opacity=".2"/><circle r="14" transform="scale(-1 1)" cx="-74" cy="50" fill="#000" fill-opacity=".48"/><circle r="13.5" transform="scale(-1 1)" cx="-74" cy="50" stroke="#000" stroke-opacity=".15"/><path d="M60 50c0 1.208.441 3.5.441 3.5S63 43 74 43s13.559 10.5 13.559 10.5S88 51.209 88 50c0-7.732-6.268-14-14-14s-14 6.268-14 14z" fill="#000" fill-opacity=".2"/><circle r="14" transform="scale(-1 1)" cx="-74" cy="84" fill="#000" fill-opacity=".48"/><circle r="13.5" transform="scale(-1 1)" cx="-74" cy="84" stroke="#000" stroke-opacity=".15"/><path d="M60 84c0 1.208.441 3.5.441 3.5S63 77 74 77s13.559 10.5 13.559 10.5S88 85.209 88 84c0-7.732-6.268-14-14-14s-14 6.268-14 14z" fill="#000" fill-opacity=".2"/><circle r="14" transform="scale(-1 1)" cx="-26" cy="16" fill="#000" fill-opacity=".48"/><circle r="13.5" transform="scale(-1 1)" cx="-26" cy="16" stroke="#000" stroke-opacity=".15"/><path d="M12 16c0 1.208.441 3.5.441 3.5S15 9 26 9s13.559 10.5 13.559 10.5S40 17.209 40 16c0-7.732-6.268-14-14-14S12 8.268 12 16z" fill="#000" fill-opacity=".2"/><circle r="14" transform="scale(-1 1)" cx="-26" cy="50" fill="#000" fill-opacity=".48"/><circle r="13.5" transform="scale(-1 1)" cx="-26" cy="50" stroke="#000" stroke-opacity=".15"/><path d="M12 50c0 1.208.441 3.5.441 3.5S15 43 26 43s13.559 10.5 13.559 10.5S40 51.209 40 50c0-7.732-6.268-14-14-14s-14 6.268-14 14z" fill="#000" fill-opacity=".2"/><circle r="14" transform="scale(-1 1)" cx="-26" cy="84" fill="#000" fill-opacity=".48"/><circle r="13.5" transform="scale(-1 1)" cx="-26" cy="84" stroke="#000" stroke-opacity=".15"/><path d="M12 84c0 1.208.441 3.5.441 3.5S15 77 26 77s13.559 10.5 13.559 10.5S40 85.209 40 84c0-7.732-6.268-14-14-14s-14 6.268-14 14z" fill="#000" fill-opacity=".2"/></svg>