<svg width="100" height="100" viewBox="0 0 26 26">
   <defs>
      <clipPath id="prefix__a">
         <path d="M0 972h1087V0H0" clip-rule="evenodd" />
      </clipPath>
   </defs>
   <path
      d="M.725 6.394C.54 4.278 2.09 2.315 4.287 2.16L19.603.722c2.116-.186 4.079 1.365 4.232 3.562l1.44 15.316c.186 2.115-1.365 4.078-3.562 4.232l-15.316 1.44c-2.116.185-4.079-1.365-4.232-3.562z"
      fill="#6132d6" fill-rule="evenodd" />
   <path
      d="M24.587 17.614c.195 2.088-1.31 3.958-3.346 4.18L6.626 23.207c-2.023.188-3.845-1.365-4.072-3.478l.162 1.855c.195 2.089 2.047 3.701 4.072 3.479l14.615-1.415c2.023-.188 3.574-2.089 3.346-4.18z"
      fill-opacity=".298" fill-rule="evenodd" />
   <path
      d="M2.546 19.73c.225 2.19 2.05 3.667 4.072 3.479l14.615-1.415c2-.218 3.582-1.82 3.355-4.034.214 2.015-1.708 3.538-3.38 3.778L6.592 22.952c-1.805.013-3.84-1.169-4.047-3.222z"
      fill="#fff" fill-opacity=".271" fill-rule="evenodd" />
   <g transform="matrix(.27614 .0155 .0155 -.27614 -51.062 183.817)" clip-path="url(#prefix__a)">
      <path
         d="M151 651c-1.1 7.6 4.1 15 12 16l55 8.3c7.6 1.1 15-4.1 16-12l8.3-55c1.1-7.6-4.1-15-12-16l-55-8.3c-7.6-1.1-15 4.1-16 12z"
         stroke-miterlimit="8" fill="none" stroke="#191c1d" stroke-width="4" />
   </g>
   <path
      d="M5.207 10.266c-.811.116-1.572.675-1.877 1.44-.121.556.726.966 1.069.498.264-.322.545-.796 1.031-.725.524.076.831.719.589 1.184-.29.766-.905 1.338-1.363 2.002-.276.37-.672.91-.672.91-.328.515.106 1.123.695 1.039l2.795-.287c.758-.075.619-1.25-.069-1.182l-1.253.107c-.157.004-.492.108-.228-.122.646-.831 1.403-1.698 1.473-2.8.066-.93-.582-1.899-1.533-2.04a2.308 2.308 0 00-.657-.024zm4.773-.47c-.98.048-1.797.864-1.974 1.81-.255 1.071-.11 2.23.348 3.226.377.761 1.17 1.347 2.044 1.3.934.008 1.823-.632 2.092-1.53.357-1.037.237-2.19-.122-3.21-.319-.846-1.085-1.596-2.034-1.607a2.482 2.482 0 00-.354.01zm5.47-.11l-2.193 3.324c-.294.504.09 1.185.675 1.127l1.895-.187.116 1.069c.084.853 1.326.674 1.263-.2l-.102-1.01.297-.023c.834-.065.635-1.332-.14-1.255l-.249.033-.28-2.717c-.079-.665-.88-.78-1.282-.16zm4.558-.796c-1.074.05-2.017 1.144-1.752 2.222.021.402.508.722.647.902-.55.462-.765 1.298-.41 1.941.585 1.193 2.332 1.447 3.317.608.681-.522.998-1.59.452-2.318-.115-.243-.53-.418-.594-.56.625-.457.6-1.407.17-1.987a1.983 1.983 0 00-1.83-.808zm-9.9 2.194c.572-.072.938.521 1.05 1.006.19.773.291 1.647-.086 2.379-.274.437-.953.488-1.28.086-.461-.545-.495-1.308-.535-1.988-.004-.506.085-1.132.566-1.406a.805.805 0 01.285-.077zm10.019-.988c.531-.103.954.599.61 1.02-.296.42-1.086.34-1.203-.195-.121-.388.186-.818.593-.825zm-4.535 1.47l.112 1.136-.921.091zm4.764.852c.545-.121 1.122.522.802 1.029-.323.573-1.384.522-1.536-.162-.11-.442.314-.847.734-.867z" />
   <path
      d="M5.202 9.91c-.812.115-1.572.674-1.877 1.44-.121.555.726.965 1.069.497.264-.322.545-.796 1.031-.725.524.076.831.719.589 1.184-.29.766-.905 1.339-1.363 2.002-.276.37-.672.91-.672.91-.328.515.105 1.123.695 1.04l2.795-.288c.757-.075.619-1.25-.069-1.182l-1.253.107c-.157.005-.492.108-.228-.122.646-.831 1.403-1.698 1.473-2.8.066-.929-.582-1.899-1.533-2.039a2.308 2.308 0 00-.657-.024zm4.773-.471c-.981.049-1.797.864-1.974 1.81-.255 1.072-.11 2.23.348 3.226.377.762 1.17 1.347 2.044 1.3.934.008 1.823-.632 2.092-1.53.357-1.036.237-2.19-.122-3.209-.319-.847-1.086-1.597-2.034-1.608a2.482 2.482 0 00-.354.01zm5.47-.11l-2.193 3.324c-.294.505.09 1.185.675 1.127l1.895-.187.116 1.07c.084.852 1.325.673 1.262-.2l-.101-1.01.297-.023c.834-.066.635-1.332-.14-1.256l-.249.033-.28-2.716c-.08-.665-.88-.78-1.282-.161zm4.558-.796c-1.074.051-2.017 1.145-1.752 2.222.021.403.508.722.646.902-.549.462-.764 1.299-.41 1.942.586 1.192 2.333 1.447 3.318.607.681-.522.998-1.59.452-2.317-.115-.244-.53-.419-.594-.56.625-.457.6-1.408.17-1.988a1.983 1.983 0 00-1.83-.808zm-9.9 2.195c.571-.073.937.52 1.05 1.006.19.772.291 1.646-.086 2.378-.274.437-.954.489-1.28.087-.462-.546-.495-1.308-.536-1.989-.003-.506.086-1.132.567-1.406a.805.805 0 01.284-.076zm10.019-.99c.531-.102.954.6.61 1.021-.296.42-1.086.34-1.203-.195-.121-.388.186-.818.593-.825zm-4.535 1.471l.112 1.136-.921.091zm4.764.853c.545-.122 1.122.521.802 1.028-.323.574-1.384.522-1.536-.162-.11-.442.314-.846.734-.866z"
      fill="#fff" />
</svg>