<svg width="70" height="70" viewBox="0 0 19 19">
    <defs>
        <linearGradient id="prefix__b" x1="823" x2="952" y1="600" y2="553"
            gradientTransform="matrix(.11 .026 .026 -.11 -107 52)" gradientUnits="userSpaceOnUse">
            <stop stop-color="#f19720" offset="0" />
            <stop stop-color="#f19720" offset="1" />
        </linearGradient>
        <linearGradient id="prefix__e" x1="766" x2="1077" y1="766" y2="505"
            gradientTransform="matrix(.11 .026 .026 -.11 -107 52)" gradientUnits="userSpaceOnUse">
            <stop stop-color="#e16315" offset="0" />
            <stop stop-color="#f29820" offset=".16" />
            <stop stop-color="#f29820" offset=".33" />
            <stop stop-color="#f29820" offset=".51" />
            <stop stop-color="#e16315" offset=".67" />
            <stop stop-color="#f29820" offset=".82" />
            <stop stop-color="#f29820" offset="1" />
        </linearGradient>
        <linearGradient id="prefix__f" x1="908" x2="922" y1="737" y2="663"
            gradientTransform="matrix(.11 .026 .026 -.11 -107 52)" gradientUnits="userSpaceOnUse">
            <stop stop-color="#ffd83d" offset="0" />
            <stop stop-color="#ffd83d" offset=".19" />
            <stop stop-color="#fc0" offset=".28" />
            <stop stop-color="#fc0" offset=".5" />
            <stop stop-color="#fc0" offset=".72" />
            <stop stop-color="#ffd83d" offset=".81" />
            <stop stop-color="#ffd83d" offset="1" />
        </linearGradient>
        <linearGradient id="prefix__d" x1="910" x2="927" y1="583" y2="582"
            gradientTransform="matrix(.11 .026 .026 -.11 -107 52)" gradientUnits="userSpaceOnUse">
            <stop stop-color="#f1a019" offset="0" />
            <stop stop-color="#d99014" offset=".62" />
            <stop stop-color="#bf7810" offset="1" />
        </linearGradient>
        <linearGradient id="prefix__c" x1="885" x2="954" y1="550" y2="550"
            gradientTransform="matrix(.11 .026 .026 -.11 -107 52)" gradientUnits="userSpaceOnUse">
            <stop stop-color="#eaa312" offset="0" />
            <stop stop-color="#f5a915" offset=".075" />
            <stop stop-color="#f19720" offset=".74" />
            <stop stop-color="#cf7f1b" offset=".89" />
            <stop stop-color="#cf7f1b" offset="1" />
        </linearGradient>
        <linearGradient id="prefix__a" x1="4.3" x2="15" y1="280" y2="284" gradientTransform="rotate(-6.3 -2526 143)"
            gradientUnits="userSpaceOnUse">
            <stop stop-color="#c4960b" offset="0" />
            <stop stop-color="#f7b311" offset=".2" />
            <stop stop-color="#fab511" offset="1" />
        </linearGradient>
    </defs>
    <path d="M12 11c2.1 1.4 5.2-1.6 5.6-3.7.37-2-1.1-2.7-2.8-2.1M3.8 9C1.3 9.31-.1 5.2.5 3.2c.59-2 2.2-1.9 3.4-.62"
        fill="none" stroke="#fbb611" stroke-linecap="round" stroke-linejoin="round" stroke-miterlimit="8"
        stroke-width=".86" />
    <g fill-rule="evenodd">
        <path d="M4.4.93c2.9-.77 8.7.74 11 2.7-1.1 4.3-3.1 9.9-8 8.7-4.9-1.2-4.5-7.2-3.4-11z" fill="url(#prefix__a)" />
        <path d="M3.4 14c.09-.38 1.8-.29 3.9.2 2 .49 3.6 1.2 3.5 1.6-.09.38-1.8.29-3.9-.2-2-.49-3.6-1.2-3.5-1.6z"
            fill="url(#prefix__b)" />
        <path d="M8 15l2.5 1-1.8.53-2.6-1.9z" fill="#c00000" fill-opacity=".071" />
        <g stroke-width=".11">
            <path
                d="M3.5 14c-.09.38 1.5 1.1 3.5 1.6s3.8.58 3.9.2l-.57 2.4-.022-.005.012.046c-.09.38-1.8.29-3.9-.2-2-.49-3.6-1.2-3.5-1.6l.031-.036-.022-.005zm7.4 1.8l.005.001-.002.011zM3.5 14l.005.001-.008.01z"
                fill="url(#prefix__c)" />
            <path d="M7.1 11l1.8.44-.97 4.1c-.52.11-1.3-.1-1.8-.44z" fill="url(#prefix__d)" />
            <path
                d="M16 3.7l-.42 1.5c-1.2 3.9-3.3 8.1-7.6 7.1-2.5-.6-3.6-2.4-4-4.6l-.099-1.1.81.56c4.7 3 7.1.39 8.6-3.4z"
                fill="url(#prefix__e)" />
        </g>
        <path
            d="M14 3.2l-.21.53-.88.025c-1.5 3.8-3.8 6.4-8.5 3.4l-.79-.55-.056-.46-.01-.12.056-1.2.35.27c2.9 2 6.5.91 7.7-2.2z"
            fill="#f89f13" fill-opacity=".5" />
        <path d="M4.3 1c.14-.57 2.8-.43 6 .33 3.1.76 5.6 1.8 5.5 2.4-.14.57-2.8.43-6-.33C6.7 2.64 4.2 1.6 4.3 1z"
            fill="url(#prefix__f)" />
        <path d="M6.7 6l1.6-.018 1.1-1.2.48 1.6 1.4.74-1.3 1-.26 1.7-1.3-.97-1.6.28.51-1.6z" fill="#fbb611" />
        <path
            d="M3.4 3.1l1.4-.34.94-1.1.34 1.4 1.1.95-1.4.34-.94 1.1-.34-1.4zm2.9-.72l.35-.083.23-.27.083.35.27.23-.35.084-.23.27-.084-.35z"
            fill="#fff" />
        <path d="M5.5 1.2c.049-.21 2.1.1 4.6.7 2.5.59 4.4 1.2 4.4 1.5-.049.21-2.1-.1-4.6-.7-2.5-.59-4.4-1.2-4.4-1.5z"
            fill="#da881d" />
    </g>
</svg>