<svg width="120" height="120" viewBox="0 0 31 31">
    <defs>
        <linearGradient id="prefix__a" x1="13" x2="136" y1="112" y2="-18"
            gradientTransform="matrix(.27 0 0 .27 -1.1 3.9)" gradientUnits="userSpaceOnUse">
            <stop stop-color="#9fd572" offset="0" />
            <stop stop-color="#3e9551" offset=".38" />
            <stop stop-color="#3873b6" offset="1" />
        </linearGradient>
    </defs>
    <path
        d="M2.1 19c-1.3-1.5-2-4.8-.43-6.4 1.8-1.5 5.1-1.3 6.3-.17l4.6 4.4 9.8-10c2.1-1.8 4.6-2 6.5-.43 1.7 1.7 1.9 3.9.48 5.6l-13 14c-2.4 2.5-5.3 1.7-8.1-1z"
        fill="url(#prefix__a)" paint-order="stroke fill markers" />
    <path
        d="M16 26c-1.7 1.7-4.5 1.7-6.1.035l-8-7.5c-1.7-1.7-1.7-4.5-.035-6.1 1.7-1.7 4.5-1.7 6.1-.035l4.6 4.4 10-10c2.4-2.4 4.9-2.1 6.6-.46 1.8 2 1.2 4.5-.18 5.9z"
        fill="none" stroke="#212527" stroke-linecap="round" stroke-linejoin="bevel" stroke-miterlimit="8" />
</svg>