<svg width="128" height="128" viewBox="0 0 33.333 26.667">
    <defs>
        <radialGradient id="prefix__a" cx="141.191" cy="258.762" r="11"
            gradientTransform="matrix(.26 1.3 -1.7 .34 423.944 -264.91)" gradientUnits="userSpaceOnUse" fx="141.191"
            fy="258.762">
            <stop stop-color="#fff11f" offset=".35" />
            <stop stop-color="#fdbd08" offset=".79" />
            <stop stop-color="#e59300" offset="1" />
        </radialGradient>
        <radialGradient id="prefix__b" cx="99.912" cy="-258.481" r="2.3"
            gradientTransform="matrix(1.0464 0 0 1.53438 -97.728 379.367)" gradientUnits="userSpaceOnUse" fx="99.912"
            fy="-258.481">
            <stop stop-color="#f7ba12" offset="0" />
            <stop stop-color="#fbe128" offset="1" />
        </radialGradient>
    </defs>
    <path
        d="M6.044 3.39c.075 1.3.47 2.5 1.8 3.4-.78 1.9-.73 3.5-.053 5.5l-2 1.5c-.73 2.1.54 5.9 4.8 6.3l.42-.21 1 .78 2.4-.73c1.1.82 1.8 1.9 2.5 3 0 0 3.9 0 4.2-.52.37-.52.21-2.2.21-2.2.81-.46 1.7-1.1 2.6-1.9l1.9.99c.52-.42 1-.74 1.7-.94l-.21-2.9s3.52-5.144.487-10.476c-5.1-7.2-12.142-5.105-16.887-2.523-1.94-.643-3.718-.184-4.867.93z"
        fill="url(#prefix__a)" />
    <g fill="#fff77f">
        <path
            d="M18.97-.167c-2.7.053-5.4.96-7.8 2.3-.005.14-.005.29 0 .43.26 2.9 7.2-.32 8.4 1.1 1 1.4-2.8 1.3-2.1 2.8.75 1.3 1.9-.15 2.5.56.91 1 .7 2.1 2.2 2 1.5-.11.037-3.2 1-4.1 1-.96 3.4 1.2 4.4-.037.37-.52-1-1.6-1.8-2.3-3.648 3.16-5.004-2.577-6.85-2.57z" />
        <path
            d="M18.97-.137c-2.7.053-5.4.96-7.8 2.3-.005.14-.005.29 0 .43.26 2.9 7.2-.32 8.4 1.1 1 1.4-2.8 1.3-2.1 2.8.75 1.3 1.9-.15 2.5.56.91 1 .7 2.1 2.2 2 1.5-.11.037-3.2 1-4.1 1-.96 3.4 1.2 4.4-.037.37-.52-1-1.6-1.8-2.3-.33-.3-2.543-1.063-2.503-1.213-2-1.4-2.147-1.457-4.347-1.357z" />
        <path
            d="M18.97-.137c-2.7.053-5.4.96-7.8 2.3-.005.14-.005.29 0 .43.26 2.9 7.2-.32 8.4 1.1 1 1.4-2.8 1.3-2.1 2.8.75 1.3 1.9-.15 2.5.56.91 1 .7 2.1 2.2 2 1.5-.11.037-3.2 1-4.1 1-.96 3.4 1.2 4.4-.037.37-.52-1-1.6-1.8-2.3C24.4.751 20.887-.019 18.92.046z" />
        <path
            d="M18.97-.137c-2.7.053-5.4.96-7.8 2.3-.005.14-.005.29 0 .43.26 2.9 7.2-.32 8.4 1.1 1 1.4-2.8 1.3-2.1 2.8.75 1.3 1.9-.15 2.5.56.91 1 .7 2.1 2.2 2 1.5-.11.037-3.2 1-4.1 1-.96 3.4 1.2 4.4-.037.37-.52-1-1.6-1.8-2.3C23.478.962 21.232-.046 18.92.046z" />
        <path
            d="M18.97-.137c-2.7.053-5.4.96-7.8 2.3-.005.14-.005.29 0 .43.26 2.9 7.2-.32 8.4 1.1 1 1.4-2.8 1.3-2.1 2.8.75 1.3 1.9-.15 2.5.56.91 1 .7 2.1 2.2 2 1.5-.11.037-3.2 1-4.1 1-.96 3.4 1.2 4.4-.037.168-2.514-6.688-4.902-8.65-4.87z" />
        <path
            d="M18.97-.137c-2.7.053-5.4.96-7.8 2.3-.005.14-.005.29 0 .43.26 2.9 7.2-.32 8.4 1.1 1 1.4-2.8 1.3-2.1 2.8.75 1.3 1.9-.15 2.5.56.91 1 .7 2.1 2.2 2 1.5-.11.037-3.2 1-4.1 1-.96 3.4 1.2 4.4-.037.37-.52-1-1.6-1.8-2.3-2.268-1.469-4.601-2.652-6.85-2.57z" />
        <path
            d="M18.97-.137c-2.7.053-5.4.96-7.8 2.3-.005.14-.005.29 0 .43.26 2.9 7.2-.32 8.4 1.1 1 1.4-2.8 1.3-2.1 2.8.75 1.3 1.9-.15 2.5.56.91 1 .7 2.1 2.2 2 1.5-.11.037-3.2 1-4.1 1-.96 3.4 1.2 4.4-.037.37-.52-1-1.6-1.8-2.3-2.051-1.508-4.684-2.642-6.85-2.57z" />
    </g>
    <g transform="translate(4.944 -.91)" fill="#6c2a2c">
        <path
            d="M14 12c.096.47.49.41.75.16.25-.24-.13-1.9-.6-2.7-.32-.58-2.3-1.9-2.7-1.2-.2.27-.033.5.11.58C12.973 9.928 13.59 10.51 14 12zM1.1 4.3c-.08.1.068-.11 0 0 .075 1.3.67 2.5 2 3.5l.56-1 .72.14.86-.94C4.13 4.645 2.284 4.169 1.1 4.3z" />
        <ellipse transform="rotate(15)" cx="11" cy="9.3" rx=".67" ry="1" />
        <ellipse transform="rotate(15)" cx="7.9" cy="8.6" rx=".6" ry=".91" />
    </g>
    <ellipse transform="matrix(-.58253 .81281 -.6974 -.71669 0 0)" cx="5.865" cy="-16.695" rx="2.283" ry="3.548"
        fill="url(#prefix__b)" />
    <ellipse transform="rotate(.069) skewX(.006)" cx="9.375" cy="17.385" rx=".46" ry=".76" fill="#6c2a2c" />
    <ellipse transform="rotate(.067) skewX(.002)" cx="7.226" cy="15.794" rx=".432" ry=".694" fill="#6c2a2c" />
    <circle cx="15.944" cy="14.091" r="1.4" fill="#e59300" />
    <path d="M7.244 9.09c-.065.89-.07 1.5.22 2.4.71-.068 1.2-.5 1.2-1.2-.007-.78-.69-1.3-1.4-1.2z" fill="#e59300" />
    <path d="M19.345-.161c-1.7.67-3.1 1.7-3.8 2.3a.52.52 0 00.015.79.87.87 0 00.88.13c1.7-1.3 2.713-2.104 4.613-2.804z"
        fill="#6c2a2c" />
    <ellipse transform="matrix(.91707 -.39873 .34894 .93715 0 0)" cx="11.37" cy="7.559" rx="1.003" ry=".712"
        fill="#fff" />
    <ellipse transform="matrix(.91173 -.41078 .33124 .94354 0 0)" cx="13.822" cy="7.459" rx=".639" ry=".448"
        fill="#fff" />
    <path
        d="M12.856 17.39c-.53.62-1 1.3-1.7 1.8l-1 .66c.21.038.42.07.64.09l.42-.21 1 .78 2.4-.73c1.1.82 1.8 1.9 2.5 3l.27-.004c-.58-1.4-.33-2.2-.76-2.9-.49-.56-1.4-.11-1.4-.11l.42-.84-2.4.4-.99-.19zM26.58 16.02c-.54.56-2.5 2.2-2.5 2.2l1.9.99c.47-.38.92-.67 1.5-.87-.12-.51-.28-1.1-.46-1.5-.32-.61-.78.085-.78.085.12-.32.24-.64.32-.96z"
        fill="#6c2a2c" />
    <path
        d="M6.044 3.39c.075 1.3.47 2.5 1.8 3.4-.78 1.9-.73 3.5-.053 5.5l-2 1.5c-1.193.842.204 5.654 4.2 6.3l1.1-.54.98 1.1 2.4-.73c1.1.82 1.8 1.9 2.5 3 0 0 3.9 0 4.2-.52.37-.52.21-2.2.21-2.2.81-.46 1.8-.88 2.8-1.8l1.8.81c.52-.42 1-.74 1.7-.94l-.37-2.81c-.004.002 3.327-4.115.992-9.573C25.875.213 17.07-2.229 11.07 2.371c-2.82-.772-4.356.442-5.027 1.02z"
        fill="none" stroke="#3e2730" stroke-width=".51" stroke-linecap="round" stroke-linejoin="round" />
    <path
        d="M25.532 2.39c.69.36 1.175.422 1.575.142.629-.36.552-1.555.074-2.062-.779-.693-1.665.274-1.048 1.036.49.588 1.718.55 2.19-.06.326-.418.243-1.143-.2-1.505"
        fill="none" stroke="#3e2730" stroke-width=".53" stroke-linecap="round" />
</svg>