<svg width="60mm" height="60mm" viewBox="0 0 60 60">
    <path
        d="M39.447 7.54l6.926 11.442c2.27 3.739.869 7.093-.587 10.578l11.247 14.998c2.386 4.4.332 9.437-3.567 11.959-4.006 2.637-9.178.465-11.737-3.324l-9.306-15.447c-4.836.572-9.787-1.912-12.399-5.983L2.411 7.955c-1.304-2.296.508-5.597 3.187-5.61 2.07-.212 3.429 1.555 4.469 3.075l8.747 11.568c-1.347-5.083 3.62-8.519 7.345-3.485-.53-5.065 4.267-6.672 7.234-2.969-.534-2.813 3.035-5.788 6.054-2.994z"
        fill="none" stroke="#fff" stroke-width="2.796" stroke-linejoin="round" stroke-miterlimit="8" />
</svg>