<svg width="72" height="72" viewBox="0 0 19 19">
    <path d="M1.9 4C1.9 2.3 3.3.9 5 .9 6.7.9 8.1 2.3 8.1 4v11c0 1.7-1.4 3.1-3.1 3.1-1.7 0-3.1-1.4-3.1-3.1z" fill="#ccc"
        fill-rule="evenodd" />
    <path d="M1.9 4C1.9 2.3 3.3.9 5 .9 6.7.9 8.1 2.3 8.1 4v9.4c0 1.7-1.4 3.1-3.1 3.1-1.7 0-3.1-1.4-3.1-3.1z" fill="#fff"
        fill-rule="evenodd" />
    <path d="M1.9 4C1.9 2.3 3.3.9 5 .9h0C6.7.9 8.1 2.3 8.1 4v11c0 1.7-1.4 3.1-3.1 3.1h0c-1.7 0-3.1-1.4-3.1-3.1z"
        fill="none" stroke="#212527" stroke-linecap="round" stroke-linejoin="bevel" stroke-miterlimit="10"
        stroke-width="1.1" />
    <path d="M11 4C11 2.3 12.4.9 14.1.9c1.7 0 3.1 1.4 3.1 3.1v11c0 1.7-1.4 3.1-3.1 3.1-1.7 0-3.1-1.4-3.1-3.1z"
        fill="#ccc" fill-rule="evenodd" />
    <path d="M11 4C11 2.3 12.4.9 14.1.9c1.7 0 3.1 1.4 3.1 3.1v9.4c0 1.7-1.4 3.1-3.1 3.1-1.7 0-3.1-1.4-3.1-3.1z"
        fill="#fff" fill-rule="evenodd" />
    <path d="M11 4C11 2.3 12.4.9 14.1.9h0c1.7 0 3.1 1.4 3.1 3.1v11c0 1.7-1.4 3.1-3.1 3.1h0c-1.7 0-3.1-1.4-3.1-3.1z"
        fill="none" stroke="#212527" stroke-linecap="round" stroke-linejoin="bevel" stroke-miterlimit="10"
        stroke-width="1.1" />
</svg>