<svg width="128" height="128">
   <g stroke-width=".063">
      <path
         d="M104.137 59.268c3.598-5.134 1.934-11.741.246-17.233-1.373-3.88-2.782-7.92-5.492-11.105-3.224-.796-6.288 2.225-9.074 3.702-3.328 2.268-6.488 4.816-9.075 7.96-12.258-4.1-26.427-1.628-36.377 6.646-1.982 2.993-4.338 2.396-7.164 1.11-5.134-1.344-10.547-2.304-15.88-1.655-2.926 1.473-1.489 5.93-1.712 8.716.566 5.93 1.35 12.299 5.095 17.154 1.914 1.78 4.258 2.83 2.766 5.81-1.25 10.11.157 21.214 6.408 29.533 5.333 7.004 14.447 9.71 22.924 9.71 11.343-.014 22.527-2.666 33.194-6.367 8.795-3.264 17.91-8.398 21.89-17.313 4.02-9.234 1.568-19.9-2.715-28.577a51.298 51.298 0 00-5.054-8.04z"
         fill="#ffd338" />
      <path
         d="M104.137 59.268c5.532 11.224 2.858 25.034-4.378 34.825-12.418 17.353-37.412 23.92-56.914 15.164-5.771-2.595-11.224-6.368-14.686-11.781 1.727 8.08 6.607 15.92 14.407 19.303 9.791 4.298 20.895 2.985 31.084.991 11.224-2.468 22.885-5.612 31.76-13.293 5.97-5.055 9.115-13.015 8.398-20.776-.66-8.875-4.338-17.392-9.75-24.437z"
         clip-rule="evenodd" fill="#ffaf38" fill-rule="evenodd" />
      <path
         d="M36.875 56.88c-3.506-1.473-8.875-3.04-12.577-1.684-.943 4.737 1.298 14.448 3.777 19.701-.414-6.288 5.771-16.676 8.796-18.029zm65.67.43c-.231-6.209-1.676-12.418-4.378-17.99-2.133-3.16-5.81.936-8.04 2.846-1.647 1.425-3.956 2.71-1.106 4.06a50.001 50.001 0 0113.492 11.064zm-7.562 28.457c2.269 8.875-1.365 19.024-9.273 23.88-8.398 5.174-20.06 6.646-28.537.9-6.13-4.22-10.268-11.821-9.592-19.343.804-5.771 6.567-8.677 11.502-10.428 7.682-2.46 15.602-4.617 23.721-4.736 4.458-.124 9.274 1.886 11.025 6.209.53 1.122.911 2.312 1.198 3.518z"
         fill="#ff6670" />
      <path
         d="M76.675 113.396c8.159-1.7 15.8-7.482 18.03-15.76 1.114-3.842 1.177-7.96.257-11.861.249 9.671-5.691 19.263-14.726 22.925-9.114 4.02-20.338 1.6-27.263-5.453-1.815-1.405-4.338-5.532-4.895-5.85 2.097 8.716 9.79 15.92 18.865 16.676 3.26.364 6.567.052 9.75-.7z"
         fill="#9a002e" fill-opacity=".46" />
      <path
         d="M65.133 96.282c.68 3.351-.027 7.363-3.96 6.607-3.276-1.421-4.975-6.448-3.518-9.194 2.861-5.453 6.527-2.189 7.482 2.571zm17.194 1.604c-3.443-.943-4.14-5.373-3.702-8.438.55-3.78 6.846-4.1 7.284.35.513 5.293-.677 8.716-3.566 8.119z"
         fill="#d12749" />
      <path
         d="M43.243 87.526c3.869-.704 5.055-6.328 1.807-8.557-2.99-2.52-8.08.1-7.761 3.98.011 2.977 3.068 5.333 5.93 4.577zM94.983 75.188c3.869-.704 5.055-6.328 1.807-8.557-2.99-2.52-8.08.1-7.761 3.98.011 2.977 3.069 5.333 5.93 4.577z"
         fill="#292f33" />
      <path
         d="M67.521 53.298c-.47-4.497-2.384-8.756-5.174-12.258l-7.204 1.309c-.434 5.134.51 11.184 2.687 14.408 2.826 4.179 9.99 2.587 9.671-3.463z"
         fill="#ff495f" />
      <path
         d="M57.571 56.88c-2.404-4.418-3.176-9.552-2.714-14.487 2.423-.7 4.855.21 7.243.505-2.077 1.182-3.347 2.838-3.446 4.259.553 4.338 2.579 8.557 6.05 11.263-2.31 1.485-5.772 1.047-7.165-1.536z"
         fill="#d12749" />
   </g>
   <path
      d="M62 42l-5.34 1.15c-.896-1.18-2.81-1.73-4.1-.617a36.912 36.912 0 00-11.3 7.25c-6.21-2.29-13-3.48-19.6-2.93-3.81.238-3.63 4.82-3.58 7.65.14 6.81 2.02 11.4 3.58 15.7s5.69 5.65 5.18 10.2c-1.8 15.2.872 30 13.9 37 24.9 8.88 66.1-4.62 73.3-21.8 3.83-9.76.506-23-5.18-31.4-2.9-4.26-3.79-5.5-2.9-10.3 1.41-7.53-.51-16.6-3.74-21.8-2.51-4.02-6.21-3.3-9.32-1.28a61.662 61.662 0 00-12.1 10.2c-5.5-1.64-11.9-2.78-17.4-1.49-.573.78-1.55 1.34-1.24 2.45z"
      fill="none" stroke="#240d5c" stroke-linejoin="bevel" stroke-width="3.25" />
   <g stroke-width=".063">
      <path
         d="M24.497 55.288c-.959 3.236.366 6.766.896 10.03.728 3.188 1.596 6.328 2.686 9.432-1.043-4.935-2.782-10.189-1.349-15.243 1.377-3.646 5.93-3.331 9.074-2.834 2.241.39-2.73-.891-3.57-1.13-2.48-.498-5.373-1.537-7.76-.248zM96.973 38.293c2.444 2.663 2.822 6.687 3.896 10.07.645 2.682 1.19 5.373 1.557 8.119-1.278-4.696-2.082-9.91-5.533-13.612-2.937-2.606-6.805-.077-9.392 1.823.177-.354 3.61-3.526 5.213-4.656 1.238-.844 2.635-1.899 4.22-1.732z"
         fill="#d12749" />
      <path
         d="M50.009 62.85c-1.62 2.858-6.448 4.935-8.676 1.68-2.635-4.617 2.36-11.662 7.601-10.19 3.4 1.386 2.87 6.05 1.075 8.518zM44.039 70.412c-.34 1.138-2.292 1.325-2.304-.085-.274-1.27 1.727-2.786 2.423-1.29.17.446.09.956-.12 1.374z"
         fill="#fff" />
      <path
         d="M44.437 32.244c1.015 3.86 3.184 8.199 7.244 9.472 1.91.18 3.797-.422 5.691-.633l-3.82-23.521c-1.179-3.479-5.254 1.082-5.254 1.082-3.176-.06-3.957 4.697-4.259 7.323-.226 2.098-.078 4.22.381 6.289z"
         fill="#f6820f" />
      <path
         d="M62.745 27.587c1.067 4.498.525 10.507-3.928 13.015-4.06 1.93-8.279-1.509-10.07-5.015-2.619-4.856-3.275-11.701.61-16.119 2.582-2.878 7.203-1.906 9.511.792 1.967 1.99 3.232 4.617 3.877 7.323z"
         fill="#ffbd12" />
      <path
         d="M57.571 41c4.577-1.278 5.93-6.846 5.492-11.065-.176-1.655-.505-3.156-.289-.684.1 4.139-1.102 9.592-5.652 10.825-1.982 1.031-6.169-1.695-6.169-1.472 1.7 1.72 4.18 2.98 6.647 2.38z"
         fill="#f3480d" fill-opacity=".15" />
      <path d="M46.029 26.115l1.325-2.882c.214 1.89.133 3.801-.537 5.731z" fill="#fff" />
   </g>
   <path d="M60 28.3c.808 2.94.163 8.88-3.65 8.2-5.06-.908-8.2-12.8-2.62-14.1 3.5-.701 5.54 3.05 6.29 5.93z" fill="none"
      stroke="#f2630d" stroke-opacity=".66" stroke-width="1.33" />
   <path
      d="M52 17c-2.68.992-6.01 1.47-7.45 4.3-2.86 6.01-1.43 13.7 2.89 18.6 1.68 2.07 4.42 3.23 7.05 2.44 2.81-.327 5.97-.844 7.57-3.54 3.87-6.21 2.02-15.1-3.32-19.9-1.82-1.55-4.3-2.53-6.69-1.94z"
      fill="none" stroke="#2c2a4a" stroke-linejoin="round" stroke-width="1.66" />
   <g stroke-width=".063">
      <path
         d="M59.959 8.802c-.732 2.957-.66 8.437 3.132 9.432 1.592.59 3.137.908 3.137.908L71.48 4.933c.1-3.184-6.567-4.179-8.676-1.313-1.385 1.444-2.3 3.295-2.85 5.213z"
         fill="#f6820f" />
      <path
         d="M72.695 12.002c-.86 3.339-3.65 7.283-7.522 6.527-4.02-1.449-4.259-6.806-3.013-10.229C63.179 5.112 66.3 1.415 70 2.768c3.284 1.628 3.563 6.09 2.719 9.234z"
         fill="#ffbd12" />
      <path
         d="M65.133 18.553c3.884.752 6.527-2.794 7.522-6.528-.78 2.118-3.928 6.766-7.522 5.811-2.11-.561-3.196-2.563-3.196-2.563.557 1.91 2.11 2.993 3.18 3.272z"
         fill="#f3480d" fill-opacity=".15" />
      <path
         d="M62.745 5.578c.474-.315 1.652-1.258 1.652-1.258-.23 1.003-1.194 2.364-2.15 3.32.196-.65.498-2.058.498-2.058z"
         fill="#fff" />
   </g>
   <path d="M70.3 11.7c-1.31 3.85-5.1 5.5-5.97 1.55-.613-2.88.637-7.25 3.89-7.49 2.73-.219 2.65 3.97 2.09 5.93z"
      fill="none" stroke="#f2630d" stroke-opacity=".66" stroke-width=".924" />
   <path
      d="M69.5 2.02c-2.25-.393-4.9-1.17-6.73.737-3.68 3.49-5.38 9.88-2.39 14.3 1.41 1.27 3.4 1.7 5.22 2.2 4.78.145 7.61-4.98 7.96-9.2.298-3.08-.717-7.05-4.06-8z"
      fill="none" stroke="#2c2a4a" stroke-linejoin="round" stroke-width="1.15" />
   <path
      d="M66.8 7.28c1.51-1.07.84-1.41-.327-.347-.665.753-.637.932.263.378zM52 25.8c.315-1.75-.155-1.54-.434-.01-.434 2.38-.082 2.87.434.01z"
      fill="#fff" />
</svg>