<svg width="100" height="100">
    <path
        d="M49.598 7.873l4.876 4.216a6.09 6.09 0 005.344 1.33l6.285-1.438c3.64-.833 7.166 1.774 7.436 5.499l.468 6.429a6.09 6.09 0 002.838 4.72l5.46 3.427c.396.248.752.533 1.068.847a6.11 6.11 0 011.553 5.997 6.076 6.076 0 01-1.25 2.302L79.46 46.08a6.09 6.09 0 00-1.33 5.345l1.438 6.283.01.043a6.052 6.052 0 01-.854 4.657 6.098 6.098 0 01-2.707 2.269l8.484 10.446c1.317 1.62.435 4.061-1.615 4.464l-6.795 1.337a2.77 2.77 0 00-2.015 1.638l-2.703 6.376c-.815 1.923-3.384 2.287-4.7.666l-9.675-11.911-4.355 14.106c-.616 1.995-3.135 2.617-4.609 1.138l-4.888-4.907a2.769 2.769 0 00-2.48-.766l-6.804 1.297c-2.051.39-3.78-1.543-3.165-3.538l4.362-14.128-1.217.279c-3.64.833-7.167-1.774-7.437-5.499l-.467-6.429a6.094 6.094 0 00-2.838-4.72l-5.46-3.426c-3.164-1.985-3.814-6.322-1.372-9.147l4.217-4.877a6.094 6.094 0 001.33-5.344l-1.438-6.284c-.834-3.64 1.773-7.167 5.499-7.437l6.429-.467a6.093 6.093 0 004.72-2.839l3.426-5.46a6.066 6.066 0 014.258-2.788 6.066 6.066 0 014.889 1.417z"
        fill="none" stroke="#fff" stroke-width="11.535" stroke-linejoin="round" />
    <path
        d="M30.697 85.022l6.895-22.33a2.77 2.77 0 013.463-1.83l16.653 5.143a2.77 2.77 0 011.83 3.464l-6.895 22.33c-.616 1.994-3.135 2.616-4.609 1.137l-4.888-4.907a2.769 2.769 0 00-2.48-.766l-6.804 1.297c-2.051.39-3.78-1.543-3.165-3.538z"
        fill="#ff3f3f" />
    <path
        d="M84.501 75.122l-14.733-18.14a2.77 2.77 0 00-3.897-.403L52.343 67.566a2.77 2.77 0 00-.403 3.896l14.733 18.14c1.316 1.621 3.886 1.257 4.7-.665l2.702-6.377a2.77 2.77 0 012.015-1.637l6.796-1.338c2.05-.403 2.932-2.843 1.615-4.464z"
        fill="#ff3f3f" />
    <path
        d="M40.451 9.244c1.984-3.163 6.321-3.813 9.146-1.371l4.877 4.217a6.093 6.093 0 005.345 1.33l6.283-1.438c3.64-.834 7.167 1.773 7.437 5.498l.468 6.43a6.093 6.093 0 002.838 4.72l5.46 3.426c3.164 1.984 3.813 6.321 1.371 9.146L79.46 46.08a6.094 6.094 0 00-1.33 5.345l1.438 6.283c.833 3.64-1.774 7.167-5.499 7.437l-6.429.468a6.093 6.093 0 00-4.72 2.838l-3.426 5.46c-1.984 3.164-6.322 3.813-9.147 1.371l-4.876-4.216a6.094 6.094 0 00-5.345-1.33l-6.284 1.438c-3.64.833-7.167-1.774-7.437-5.499l-.467-6.429a6.093 6.093 0 00-2.839-4.72L17.64 51.1c-3.163-1.984-3.813-6.322-1.371-9.147l4.217-4.876a6.094 6.094 0 001.33-5.345l-1.438-6.284c-.834-3.64 1.773-7.167 5.499-7.437l6.429-.467a6.094 6.094 0 004.72-2.839z"
        fill="#ffd43b" />
    <path
        d="M54.474 12.089l-4.877-4.216a6.066 6.066 0 00-4.888-1.417l10.527 70.242a6.065 6.065 0 004.258-2.787l3.427-5.46a6.093 6.093 0 014.72-2.84l6.428-.467c3.725-.27 6.332-3.796 5.499-7.436l-1.438-6.284a6.094 6.094 0 011.33-5.345l4.216-4.877c2.442-2.825 1.793-7.161-1.37-9.146l-5.46-3.427a6.094 6.094 0 01-2.839-4.72l-.468-6.429c-.27-3.725-3.796-6.332-7.436-5.498l-6.284 1.438a6.093 6.093 0 01-5.345-1.33z"
        fill="#f7cb00" />
    <path
        d="M74.007 23.91l-.468-6.43-39.697 53.693 6.284-1.438a6.094 6.094 0 015.344 1.33l4.877 4.216c2.825 2.442 7.162 1.793 9.147-1.37l3.427-5.46a6.094 6.094 0 014.72-2.84l6.428-.467c3.725-.27 6.332-3.796 5.499-7.436l-1.438-6.284a6.094 6.094 0 011.33-5.345l4.216-4.876c2.442-2.826 1.793-7.162-1.37-9.147l-5.46-3.427a6.094 6.094 0 01-2.839-4.72z"
        fill="#ffa724" />
    <circle cx="43.258" cy="48.524" transform="rotate(-8.523)" r="22.158" fill="#f79700" />
    <path
        d="M46.07 31.378c.84-2.623 4.323-3.145 5.895-.883l2.507 3.608a3.324 3.324 0 002.744 1.427l4.393-.02c2.754-.012 4.328 3.14 2.662 5.334l-2.657 3.5a3.324 3.324 0 00-.51 3.05l1.377 4.172c.863 2.617-1.648 5.087-4.25 4.18L54.082 54.3a3.324 3.324 0 00-3.06.46l-3.54 2.597c-2.222 1.629-5.348.004-5.29-2.75l.093-4.393a3.324 3.324 0 00-1.381-2.767l-3.565-2.567c-2.237-1.61-1.656-5.083.981-5.879l4.207-1.269a3.324 3.324 0 002.204-2.17l1.34-4.184z"
        fill-opacity=".15" />
    <path
        d="M45.046 28.817c.84-2.623 4.323-3.146 5.895-.883l2.507 3.607a3.324 3.324 0 002.744 1.428l4.394-.02c2.754-.012 4.327 3.14 2.661 5.334l-2.656 3.499a3.324 3.324 0 00-.51 3.05l1.377 4.173c.863 2.616-1.649 5.086-4.25 4.18l-4.149-1.446a3.324 3.324 0 00-3.059.459l-3.543 2.597c-2.22 1.63-5.346.004-5.288-2.75l.092-4.392a3.324 3.324 0 00-1.38-2.768l-3.567-2.566c-2.235-1.61-1.655-5.084.982-5.88l4.206-1.268A3.324 3.324 0 0043.707 33z"
        fill="#fbff3b" />
    <path
        d="M45.046 28.817c.84-2.623 4.323-3.146 5.895-.883l2.507 3.607a3.324 3.324 0 002.744 1.428l4.394-.02c2.754-.012 4.327 3.14 2.661 5.334l-2.656 3.499a3.324 3.324 0 00-.51 3.05l1.377 4.173c.863 2.616-1.649 5.086-4.25 4.18l-4.149-1.446a3.324 3.324 0 00-3.059.459l-3.543 2.597c-2.22 1.63-5.346.004-5.288-2.75l.092-4.392a3.324 3.324 0 00-1.38-2.768l-3.567-2.566c-2.235-1.61-1.655-5.084.982-5.88l4.206-1.268A3.324 3.324 0 0043.707 33z"
        fill="url(#prefix__prefix__paint0_radial_0_1)" />
    <defs id="prefix__defs27">
        <radialGradient id="prefix__prefix__paint0_radial_0_1" cx="0" cy="0" r="1" gradientUnits="userSpaceOnUse"
            gradientTransform="scale(11.67584) rotate(59.171 -.797 5.18)">
            <stop stop-color="#FBFF3B" id="prefix__stop22" />
            <stop offset="1" stop-color="#FFD43B" id="prefix__stop24" />
        </radialGradient>
    </defs>
</svg>