<svg xmlns="http://www.w3.org/2000/svg" xmlns:xlink="http://www.w3.org/1999/xlink" width="210mm" height="297mm" viewBox="0 0 210 297"><defs><linearGradient id="prefix__a"><stop offset="0" stop-color="#e844f3"/><stop offset=".505" stop-color="#8bebfe"/><stop offset="1" stop-color="#fff"/></linearGradient><linearGradient xlink:href="#prefix__a" id="prefix__d" gradientUnits="userSpaceOnUse" x1="2.264" y1="4.146" x2="1.526" y2="-14.25" gradientTransform="translate(37.27 182.078)"/><linearGradient xlink:href="#prefix__a" id="prefix__j" gradientUnits="userSpaceOnUse" gradientTransform="translate(2.632 174.003)" x1="2.264" y1="4.146" x2="1.526" y2="-14.25"/><linearGradient xlink:href="#prefix__a" id="prefix__i" gradientUnits="userSpaceOnUse" gradientTransform="translate(2.632 174.003)" x1="2.264" y1="4.146" x2="1.526" y2="-14.25"/><linearGradient xlink:href="#prefix__a" id="prefix__k" gradientUnits="userSpaceOnUse" gradientTransform="translate(70.283 122.137)" x1="2.264" y1="4.146" x2="1.526" y2="-14.25"/><linearGradient xlink:href="#prefix__a" id="prefix__h" gradientUnits="userSpaceOnUse" gradientTransform="translate(70.283 122.137)" x1="2.264" y1="4.146" x2="1.526" y2="-14.25"/><linearGradient xlink:href="#prefix__a" id="prefix__g" gradientUnits="userSpaceOnUse" gradientTransform="translate(70.283 122.137)" x1="2.264" y1="4.146" x2="1.526" y2="-14.25"/><linearGradient xlink:href="#prefix__a" id="prefix__f" gradientUnits="userSpaceOnUse" gradientTransform="translate(70.283 122.137)" x1="2.264" y1="4.146" x2="1.526" y2="-14.25"/><linearGradient xlink:href="#prefix__a" id="prefix__m" gradientUnits="userSpaceOnUse" gradientTransform="translate(42.379 83.957)" x1="2.264" y1="4.146" x2="1.526" y2="-14.25"/><linearGradient xlink:href="#prefix__a" id="prefix__l" gradientUnits="userSpaceOnUse" gradientTransform="translate(37.27 182.078)" x1="2.264" y1="4.146" x2="1.526" y2="-14.25"/><linearGradient xlink:href="#prefix__a" id="prefix__e" gradientUnits="userSpaceOnUse" gradientTransform="translate(37.27 182.078)" x1="2.264" y1="4.146" x2="1.526" y2="-14.25"/><linearGradient xlink:href="#prefix__a" id="prefix__c" gradientUnits="userSpaceOnUse" x1="2.264" y1="4.146" x2="1.526" y2="-14.25" gradientTransform="translate(135.315 149.679)"/><linearGradient xlink:href="#prefix__a" id="prefix__b" gradientUnits="userSpaceOnUse" x1="2.264" y1="4.146" x2="1.526" y2="-14.25" gradientTransform="translate(135.315 149.679)"/></defs><g color="#000" font-weight="400" font-size="27.543" font-family="Quicksand" letter-spacing="0" word-spacing="0" text-anchor="middle"><path style="line-height:0;-inkscape-font-specification:Quicksand;font-variant-ligatures:normal;font-variant-position:normal;font-variant-caps:normal;font-variant-numeric:normal;font-variant-alternates:normal;font-feature-settings:normal;text-indent:0;text-align:center;text-decoration-line:none;text-decoration-style:solid;text-decoration-color:#000;text-transform:none;text-orientation:mixed;white-space:normal;shape-padding:0;isolation:auto;mix-blend-mode:normal;solid-color:#000;solid-opacity:1" d="M62.839 136a10.13 10.13 0 00-3.877.938 8.99 8.99 0 00-3.218 2.445l-.003.004a8.06 8.06 0 00-1.75 3.683c-.35 1.822-.071 3.41.866 4.508.937 1.097 2.446 1.704 4.429 1.936 1.412.17 2.355.49 2.787.813l.004.006.007.004c.422.3.498.533.394 1.072-.06.315-.18.52-.79.894l-.004.004-.006.002c-.6.376-1.286.596-2.127.63-.822.035-1.467-.064-1.953-.264-.507-.208-1.038-.57-1.572-1.106l-.005-.006-.005-.004c-.349-.337-.85-.518-1.385-.495-.656.027-1.37.368-1.92.89-.536.497-.944 1.179-1.074 1.853a2.528 2.528 0 00.601 2.202l.002.002.001.002c.777.843 1.694 1.445 2.738 1.78 1.026.329 2.215.457 3.56.4a10.39 10.39 0 003.87-.936l.007-.004.006-.002a9.949 9.949 0 003.313-2.484l.002-.002a8.041 8.041 0 001.854-3.763c.266-1.381.249-2.574-.154-3.513-.384-.922-1.097-1.612-2.047-2.061-.913-.462-2.11-.784-3.61-1.007l-.008-.001c-1.216-.196-2.044-.489-2.441-.763-.326-.234-.39-.41-.29-.935.079-.406.194-.585.644-.886l.002-.002.002-.002c.45-.303 1.153-.538 2.138-.58.495-.02 1.086.086 1.755.358l.01.003.01.005c.705.26 1.196.554 1.476.829l.011.01.013.012c.308.275.743.42 1.198.401.64-.027 1.336-.348 1.88-.847l.01-.01.012-.01c.533-.512.933-1.197 1.064-1.877.17-.881-.125-1.686-.677-2.22-.627-.64-1.449-1.121-2.442-1.462-.997-.35-2.106-.495-3.309-.445z" overflow="visible" fill="url(#prefix__b)"/><path style="line-height:0;-inkscape-font-specification:Quicksand;font-variant-ligatures:normal;font-variant-position:normal;font-variant-caps:normal;font-variant-numeric:normal;font-variant-alternates:normal;font-feature-settings:normal;text-indent:0;text-align:center;text-decoration-line:none;text-decoration-style:solid;text-decoration-color:#000;text-transform:none;text-orientation:mixed;white-space:normal;shape-padding:0;isolation:auto;mix-blend-mode:normal;solid-color:#000;solid-opacity:1" d="M76.848 136.329c-.691.029-1.438.34-2.028.874-.582.516-1.004 1.248-1.141 1.963l-1.952 10.136c-.934 5.102 1.999 8.242 6.704 8.073 5.375-.437 7.298-3.738 8.305-8.766l1.952-10.136c.135-.705.045-1.408-.311-1.902-.359-.498-.985-.748-1.65-.72-.665.027-1.407.34-1.956.895-.53.536-.869 1.24-1.002 1.933l-1.952 10.136c-.428 1.947-.996 3.583-3.02 3.686-2.033-.005-2.196-1.767-1.89-3.416l1.95-10.136c.138-.715-.004-1.424-.396-1.898-.371-.47-.96-.75-1.616-.722z" overflow="visible" fill="url(#prefix__c)"/><path style="line-height:0;-inkscape-font-specification:Quicksand;font-variant-ligatures:normal;font-variant-position:normal;font-variant-caps:normal;font-variant-numeric:normal;font-variant-alternates:normal;font-feature-settings:normal;text-indent:0;text-align:center;text-decoration-line:none;text-decoration-style:solid;text-decoration-color:#000;text-transform:none;text-orientation:mixed;white-space:normal;shape-padding:0;isolation:auto;mix-blend-mode:normal;solid-color:#000;solid-opacity:1" d="M153.056 160.877c-1.288.05-2.537.823-3.122 1.847l-9.807 17.056c-.434 1.24-.332 2.313.756 2.92 1.409.786 3.426-.135 4.192-1.548l1.634-2.796 5.89-.276.585 2.719c0 .002.002.002.003.004v.002c.288 1.024 1.123 1.697 2.225 1.665 1.817-.207 3.25-1.977 2.951-3.799l-.003-.013-.003-.014-3.314-16.096c-.241-1.012-1.025-1.674-1.984-1.67z" overflow="visible" fill="url(#prefix__d)"/><path style="line-height:0;-inkscape-font-specification:Quicksand;font-variant-ligatures:normal;font-variant-position:normal;font-variant-caps:normal;font-variant-numeric:normal;font-variant-alternates:normal;font-feature-settings:normal;text-indent:0;text-align:center;text-decoration-line:none;text-decoration-style:solid;text-decoration-color:#000;text-transform:none;text-orientation:mixed;white-space:normal;shape-padding:0;isolation:auto;mix-blend-mode:normal;solid-color:#000;solid-opacity:1" d="M151.1 170.015l.628 2.899-2.371.1z" overflow="visible" fill="url(#prefix__e)"/><path style="line-height:0;-inkscape-font-specification:Quicksand;font-variant-ligatures:normal;font-variant-position:normal;font-variant-caps:normal;font-variant-numeric:normal;font-variant-alternates:normal;font-feature-settings:normal;text-indent:0;text-align:center;text-decoration-line:none;text-decoration-style:solid;text-decoration-color:#000;text-transform:none;text-orientation:mixed;white-space:normal;shape-padding:0;isolation:auto;mix-blend-mode:normal;solid-color:#000;solid-opacity:1" d="M150.93 108.518l2.333-.098c1.179-.049 1.952.07 2.049.113v.002h.003c.26.115.405.263.505.489v.004l.002.004c.096.212.123.44.056.787-.095.493-.243.742-.407.91h-.002v.002c-.185.19-.47.371-.936.514-.502.144-1.164.247-1.963.28l-2.237.095z" overflow="visible" fill="url(#prefix__f)"/><path style="line-height:0;-inkscape-font-specification:Quicksand;font-variant-ligatures:normal;font-variant-position:normal;font-variant-caps:normal;font-variant-numeric:normal;font-variant-alternates:normal;font-feature-settings:normal;text-indent:0;text-align:center;text-decoration-line:none;text-decoration-style:solid;text-decoration-color:#000;text-transform:none;text-orientation:mixed;white-space:normal;shape-padding:0;isolation:auto;mix-blend-mode:normal;solid-color:#000;solid-opacity:1" d="M149.531 103.745c-2.124.13-3.408 1.595-3.784 3.465l-2.766 14.367c-.174.904-.148 1.73.239 2.346.377.601 1.092.89 1.867.858.741-.03 1.544-.372 2.157-.966.68-.658 1.036-1.529 1.217-2.468l.96-4.984c1.383-.123 2.038.408 2.562 1.47l2.022 5.079.004.008.004.008c.732 1.442 2.324 1.677 3.605.998 1.59-.88 1.704-2.409 1.368-3.936l-2.104-5.013c.904-.407 1.737-.888 2.414-1.538l.003-.002c1.127-1.076 1.52-2.508 1.825-4.092.59-2.949-1.066-5.558-3.983-5.81z" overflow="visible" fill="url(#prefix__g)"/><path style="line-height:0;-inkscape-font-specification:Quicksand;font-variant-ligatures:normal;font-variant-position:normal;font-variant-caps:normal;font-variant-numeric:normal;font-variant-alternates:normal;font-feature-settings:normal;text-indent:0;text-align:center;text-decoration-line:none;text-decoration-style:solid;text-decoration-color:#000;text-transform:none;text-orientation:mixed;white-space:normal;shape-padding:0;isolation:auto;mix-blend-mode:normal;solid-color:#000;solid-opacity:1" d="M142.392 119.526c-.12.005-.046-.002-.013.042.005.006 0-.028.003-.024 0-.002.047-.02.01-.018z" overflow="visible" fill="url(#prefix__h)"/><path style="line-height:0;-inkscape-font-specification:Quicksand;font-variant-ligatures:normal;font-variant-position:normal;font-variant-caps:normal;font-variant-numeric:normal;font-variant-alternates:normal;font-feature-settings:normal;text-indent:0;text-align:center;text-decoration-line:none;text-decoration-style:solid;text-decoration-color:#000;text-transform:none;text-orientation:mixed;white-space:normal;shape-padding:0;isolation:auto;mix-blend-mode:normal;solid-color:#000;solid-opacity:1" d="M52.241 156.013c-1.524-.05-3.17 1.58-3.466 3.02l-2.786 15.477c-.212 1.419.46 3.18 1.983 3.141 1.642.021 2.844-1.328 3.152-2.828l.823-4.278 3.098-.151c4.116-.381 7.157-3.795 7.613-7.577.435-3.62-.984-7.167-4.794-7.055z" overflow="visible" fill="url(#prefix__i)"/><path style="line-height:0;-inkscape-font-specification:Quicksand;font-variant-ligatures:normal;font-variant-position:normal;font-variant-caps:normal;font-variant-numeric:normal;font-variant-alternates:normal;font-feature-settings:normal;text-indent:0;text-align:center;text-decoration-line:none;text-decoration-style:solid;text-decoration-color:#000;text-transform:none;text-orientation:mixed;white-space:normal;shape-padding:0;isolation:auto;mix-blend-mode:normal;solid-color:#000;solid-opacity:1" d="M53.564 160.83l3.13-.133c1.235.002 1.568.763 1.413 2.016-.176 1.423-.856 2.023-2.284 2.281l-3.013.01z" overflow="visible" fill="url(#prefix__j)"/><path style="line-height:0;-inkscape-font-specification:Quicksand;font-variant-ligatures:normal;font-variant-position:normal;font-variant-caps:normal;font-variant-numeric:normal;font-variant-alternates:normal;font-feature-settings:normal;text-indent:0;text-align:center;text-decoration-line:none;text-decoration-style:solid;text-decoration-color:#000;text-transform:none;text-orientation:mixed;white-space:normal;shape-padding:0;isolation:auto;mix-blend-mode:normal;solid-color:#000;solid-opacity:1" d="M168.52 102.98c-1.503-.008-2.982.951-3.474 2.392 0 0-2.134 10.475-3.148 15.87-.218 1.304.287 2.592 1.883 2.655 1.553.055 2.784-.85 3.341-2.216l1.317-6.234s3.606-.122 5.404-.25c1.62-.226 2.953-1.97 2.514-3.592-.17-.693-.82-1.173-1.52-1.21l-5.46.18.529-2.745 6.556-.297c1.64-.215 2.988-1.95 2.597-3.596-.156-.748-.866-1.25-1.607-1.29z" overflow="visible" fill="url(#prefix__k)"/><path style="line-height:0;-inkscape-font-specification:Quicksand;font-variant-ligatures:normal;font-variant-position:normal;font-variant-caps:normal;font-variant-numeric:normal;font-variant-alternates:normal;font-feature-settings:normal;text-indent:0;text-align:center;text-decoration-line:none;text-decoration-style:solid;text-decoration-color:#000;text-transform:none;text-orientation:mixed;white-space:normal;shape-padding:0;isolation:auto;mix-blend-mode:normal;solid-color:#000;solid-opacity:1" d="M104.197 163.844c-1.532.064-2.981.36-4.336.911l-.002.002a11.994 11.994 0 00-3.655 2.293 12.825 12.825 0 00-2.688 3.53 15.774 15.774 0 00-1.502 4.356c-.304 1.579-.362 3.03-.157 4.335l.002.002v.004c.212 1.297.67 2.42 1.37 3.33.703.91 1.64 1.588 2.776 2.024 1.137.438 2.441.618 3.892.558a13.941 13.941 0 003.553-.6c1.128-.35 2.312-.872 3.555-1.562l.002-.002a7.388 7.388 0 001.237-.845 3.94 3.94 0 00.991-1.228l.001-.006.003-.004c.221-.45.354-.924.459-1.466l.689-3.58c.147-.762.168-1.445-.107-2.01a1.76 1.76 0 00-1.176-.97c-.428-.104-.912-.133-1.465-.11l-4.045.17a3.231 3.231 0 00-1.93.74l-.004.005-.006.004c-.546.466-.948 1.155-1.075 1.813-.143.746.047 1.545.597 1.913l.003.004.003.002c.507.331 1.145.405 1.905.373l1.805-.075-.259 1.345c-.565.283-1.129.564-1.654.74h-.004a7.451 7.451 0 01-2.099.388c-1.487.062-2.388-.358-2.974-1.28-.573-.911-.731-2.31-.34-4.344.178-.925.446-1.749.793-2.48.354-.728.758-1.311 1.205-1.776.463-.481.955-.836 1.518-1.095l.006-.002.004-.002a4.849 4.849 0 011.892-.447c.704-.03 1.201.068 1.508.222h.002v.002c.384.19.632.411.783.646.193.299.449.805.739 1.494l.01.03.016.026c.175.336.433.612.756.795l.007.002.005.004c.325.177.71.266 1.115.249.679-.029 1.41-.337 1.997-.854.595-.523 1.04-1.262 1.18-1.991.13-.676.047-1.322-.162-1.974-.22-.687-.612-1.3-1.143-1.849-.565-.583-1.322-1.018-2.249-1.338 0 0 0-.002-.002-.002-.959-.34-2.078-.472-3.345-.42z" overflow="visible" fill="url(#prefix__l)"/><path style="line-height:0;-inkscape-font-specification:Quicksand;font-variant-ligatures:normal;font-variant-position:normal;font-variant-caps:normal;font-variant-numeric:normal;font-variant-alternates:normal;font-feature-settings:normal;text-indent:0;text-align:center;text-decoration-line:none;text-decoration-style:solid;text-decoration-color:#000;text-transform:none;text-orientation:mixed;white-space:normal;shape-padding:0;isolation:auto;mix-blend-mode:normal;solid-color:#000;solid-opacity:1" d="M107.332 65.413a3.61 3.61 0 00-3.088 2.832l-3.116 16.09c-.215 1.487.497 2.658 2.04 2.617l7.424-.37c1.516-.167 2.775-1.319 3.067-2.72.214-1.393-.799-2.565-2.055-2.533l-4.783.259.606-3.148 4.264-.209c1.537-.162 2.742-1.14 3.063-2.69.226-1.43-.745-2.596-2.052-2.562l-4.264.21.526-2.634 4.782-.26c1.536-.161 2.74-1.141 3.061-2.69.226-1.429-.744-2.595-2.05-2.561zm-15.007.92c-1.437.069-2.788.864-3.112 2.507L86.15 84.4c-.485 2.085 1.37 2.943 3.016 2.857 0 0 5.821-.173 8.413-.301a3.308 3.308 0 002.787-2.063c.489-2.079-.95-2.968-1.927-2.975l-6.411.18 2.464-12.83c.298-1.682-.394-2.988-2.166-2.936zm-29.36.951a3.61 3.61 0 00-3.088 2.832l-3.116 16.09c-.214 1.486.498 2.658 2.04 2.617l7.424-.37c1.516-.167 2.776-1.319 3.067-2.72.214-1.393-.799-2.565-2.055-2.534l-4.783.26.606-3.148 4.264-.21c1.538-.161 2.743-1.14 3.064-2.69.226-1.43-.745-2.595-2.052-2.561l-4.264.21.525-2.634 4.782-.26c1.537-.161 2.74-1.141 3.062-2.69.225-1.429-.744-2.596-2.05-2.562zm-11.816.725c-4.114.159-7.819 2.872-9.757 6.42-1.34 2.477-2.04 5.333-1.91 8.151.138 2.371 1.188 4.942 3.423 6.043 1.984.924 4.296.892 6.394.411 3.307-.862 6.155-3.441 7.248-6.689.384-1.005.242-2.415-.838-2.922-1.295-.609-2.827.192-3.5 1.359-.5.756-.732 1.454-1.374 2.15-1.081 1.275-3.077 1.813-4.589 1.028-1.23-.745-1.299-2.394-1.186-3.673.26-2.324.924-4.85 2.808-6.393 1.009-.809 2.486-1.115 3.698-.619 1.072.546 1.24 1.834 1.7 2.821.482 1.14 2.026 1.23 2.982.677 1.552-.794 2.252-2.734 1.772-4.376-.571-2.486-3.013-4.154-5.47-4.35a9.557 9.557 0 00-1.4-.038zm104.42 10.51c-1.13.03-2.177.802-2.562 1.861-.337.985-.23 1.76.264 2.414.39.515 1.406.883 2.539.724 2.284-.54 2.552-2.752 1.672-4.273-.376-.634-1.171-.806-1.856-.73l-.057.003zm3.146-15.383c-1.51.076-2.694.674-3.066 2.106l-1.669 9.163c-.516 2.137.351 3.02 1.631 3.266 1.352.26 2.704-.521 3.182-2.543l2.302-9.272c.37-1.642-.923-2.769-2.38-2.72zm-143.991 6.4a3.61 3.61 0 00-3.089 2.832L8.52 88.458c-.215 1.487.498 2.659 2.04 2.618l7.424-.37c1.516-.167 2.775-1.32 3.067-2.72.214-1.394-.799-2.566-2.055-2.534l-4.783.259.606-3.147 4.264-.21c1.538-.162 2.742-1.14 3.063-2.69.226-1.43-.744-2.596-2.052-2.562l-4.264.21.526-2.634 4.782-.26c1.536-.161 2.74-1.14 3.061-2.69.226-1.429-.744-2.595-2.05-2.561zm125.844-5.242c-.728.03-1.459.239-2.089.743l-.007.004-.005.004a3.436 3.436 0 00-1.153 1.946c-.134.695-.003 1.398.39 1.851l.004.004.005.006c.44.487 1.116.626 1.863.595l2.932-.123-2.416 12.547c-.178.925-.145 1.772.278 2.384l.003.006.003.004c.396.555 1.077.842 1.823.81.736-.03 1.533-.374 2.143-.965l.005-.004.005-.004c.67-.66 1.03-1.527 1.21-2.46l2.416-12.547 2.933-.123c.746-.03 1.485-.231 2.124-.754l.007-.004.007-.006a3.456 3.456 0 001.139-1.923c.134-.7-.008-1.401-.41-1.851-.439-.5-1.12-.646-1.874-.614zm-17.32.425c-1.899.132-3.261.92-3.51 2.77l-3.065 15.967c-.348 1.906.697 2.612 2.01 2.62 1.277.001 2.598-.85 3.097-1.953l2.026-9.131 3.56 8.85c.576 1.3 1.76 1.95 2.733 1.95 1.595 0 2.964-1.107 3.269-2.588l3.214-16.084c.118-.897-.422-2.31-1.344-2.677-2.1-.349-3.222.513-3.742 2.205l-1.942 8.623-4.2-9.47a2.22 2.22 0 00-2.106-1.082zm-46.425 2.349c-1.437.069-2.787.864-3.111 2.507l-3.064 15.561c-.486 2.085 1.369 2.943 3.016 2.857 0 0 5.82-.173 8.412-.301a3.308 3.308 0 002.788-2.063c.488-2.08-.95-2.968-1.928-2.975l-6.411.18 2.464-12.83c.299-1.682-.394-2.988-2.166-2.936zm-49.977 2.725c-.974.923-1.318 2.081-1.08 3.26l.004.011.003.014 2.522 6.098-5.94 7.656c-.836 1.183-.651 2.9.683 3.439 1.568.632 3.006-.453 3.883-1.36l4.06-5.26 1.867 4.967c.71 1.633 2.544 1.558 3.654.912 1.282-.77 1.996-2.23 1.123-4.327l-2.733-6.15 5.65-6.879c1.127-1.611.68-2.74-.622-3.7-1.051-.682-2.373-.415-3.24.756-1.42 1.639-4.113 5.253-4.113 5.253l-1.96-4.247c-.907-1.852-2.839-1.227-3.761-.443z" overflow="visible" fill="url(#prefix__m)"/></g></svg>