<svg width="100" height="100" viewBox="0 0 26 26"><defs><clipPath id="prefix__b"><path d="M0 972h1087V0H0" clip-rule="evenodd"/></clipPath><clipPath id="prefix__a"><path d="M0 972h1087V0H0" clip-rule="evenodd"/></clipPath></defs><g transform="matrix(.24 0 0 -.24 -35 163)" clip-path="url(#prefix__a)"><path d="M151 651c-1.1 7.6 4.1 15 12 16l55 8.3c7.6 1.1 15-4.1 16-12l8.3-55c1.1-7.6-4.1-15-12-16l-55-8.3c-7.6-1.1-15 4.1-16 12z" fill-rule="evenodd" fill="#ff5518"/></g><g stroke-width="1.1" fill="#fff"><path d="M6 9.1c-.46.1-.47.48-.46.86l.091 2.2c-.007.48.62.65.83.51.63-.54 1.2-.69 1.9-.47.51.27.86.9.63 1.5-.26.75-1.4.91-2.1.59-1-.13-.98 1-.14 1.3 1.3.22 2.2-.073 2.8-.65.91-1.2.62-2.8-.54-3.5-.77-.47-1.6-.31-2.3.012l-.05-1.1 2.2-.33c1-.25.42-1.3-.18-1.2zm4.6.17c-.27.22-.46.48-.24.84.27.49.79.22.92.13l.51-.37.62 4.3c.16.94 1.5.71 1.3-.25-.29-1.8-.84-5.4-.84-5.4-.12-.48-.72-.38-.86-.3zm4.4-1.4c-.32.22-.6.52-.78.85-.47.74.56 1.4 1 .72.96-1.4 2.5-.51 1.7.79l-1.9 3c-.52.65.002 1.1.83 1.1l2.7-.41c.72-.22.52-1.4-.29-1.1l-1.6.26 1.4-2.2c.6-1 .39-2.3-.53-3-.83-.56-1.9-.52-2.5-.01z" style="font-feature-settings:normal;font-variant-alternates:normal;font-variant-caps:normal;font-variant-ligatures:normal;font-variant-numeric:normal;font-variant-position:normal;isolation:auto;mix-blend-mode:normal;shape-padding:0;text-decoration-color:#000;text-decoration-line:none;text-decoration-style:solid;text-indent:0;text-orientation:mixed;text-transform:none;white-space:normal" fill="#000" opacity=".62"/><path d="M6.1 8.7c-.46.1-.47.48-.46.86l.091 2.2c-.007.48.62.65.83.51.63-.54 1.2-.69 1.9-.47.51.27.86.9.63 1.5-.26.75-1.4.91-2.1.59-1-.13-.98 1-.14 1.3 1.3.22 2.2-.073 2.8-.65.91-1.2.62-2.8-.54-3.5-.77-.47-1.6-.31-2.3.012l-.05-1.1 2.2-.33c1-.25.42-1.3-.18-1.2zm4.6.17c-.27.22-.46.48-.24.84.27.49.79.22.92.13l.51-.37.62 4.3c.16.94 1.5.71 1.3-.25-.29-1.8-.84-5.4-.84-5.4-.12-.48-.72-.38-.86-.3zm4.4-1.4c-.32.22-.6.52-.78.85-.47.74.56 1.4 1 .72.96-1.4 2.5-.51 1.7.79l-1.9 3c-.52.65.002 1.1.83 1.1l2.7-.41c.72-.22.52-1.4-.29-1.1l-1.6.26 1.4-2.2c.6-1 .39-2.3-.53-3-.83-.56-1.9-.52-2.5-.01z" style="font-feature-settings:normal;font-variant-alternates:normal;font-variant-caps:normal;font-variant-ligatures:normal;font-variant-numeric:normal;font-variant-position:normal;isolation:auto;mix-blend-mode:normal;shape-padding:0;text-decoration-color:#000;text-decoration-line:none;text-decoration-style:solid;text-indent:0;text-orientation:mixed;text-transform:none;white-space:normal"/></g><path d="M22.7 15c.27 1.8-.99 3.5-2.8 3.8l-13 2c-1.8.27-3.5-.98-3.8-2.8l.23 1.6c.27 1.8 2 3.1 3.8 2.8l13-2c1.8-.27 3.1-2 2.8-3.8z" fill-opacity=".19" fill-rule="evenodd"/><g transform="matrix(.24 0 0 -.24 -35 163)" clip-path="url(#prefix__b)"><path d="M151 651c-1.1 7.6 4.1 15 12 16l55 8.3c7.6 1.1 15-4.1 16-12l8.3-55c1.1-7.6-4.1-15-12-16l-55-8.3c-7.6-1.1-15 4.1-16 12z" stroke-miterlimit="8" stroke-width="4" stroke="#191c1d" fill="none"/></g><g color="#000"><path d="M18 16c-.35.36-.42.76-.14 1.1l.004.004.71.78-.74.62c-.42.4-.21.85-.012 1.1.42.35.98.22 1.2-.03l.57-.52.53.63.01.01c.41.4.74.37 1.2.15.38-.42.37-.84.025-1.2l-.54-.66.7-.65.006-.005c.3-.38.24-.74.016-1.1-.36-.33-.86-.42-1.3.03l-.52.49-.6-.67-.004-.003A.78.78 0 0018 16zm6-2l-1.4.69-.01.006c-.28.17-.45.41-.49.67-.038.26.045.5.15.72l.002.006.02.033.014.02c.25.31.67.33 1 .21l-.23 3.4c.03.56.37.96.91 1 .56.023 1-.26 1.1-.87v-.002l.34-4.9v-.002a.995.995 0 00-.18-.7c-.193-.249-.826-.474-1.226-.281z" style="font-variant-ligatures:normal;font-variant-position:normal;font-variant-caps:normal;font-variant-numeric:normal;font-variant-alternates:normal;font-feature-settings:normal;text-indent:0;text-decoration-line:none;text-decoration-style:solid;text-decoration-color:#000;text-transform:none;text-orientation:mixed;white-space:normal;shape-padding:0;isolation:auto;mix-blend-mode:normal;solid-color:#000" fill="#fff" stroke="#191c1d" stroke-width=".78" paint-order="stroke fill markers"/><path d="M26 20l.025-.021v-.004zm-2 0l.008.008.014.008zm-1-4l-.014-.02.008.016z" style="font-feature-settings:normal;font-variant-alternates:normal;font-variant-caps:normal;font-variant-ligatures:normal;font-variant-numeric:normal;font-variant-position:normal;isolation:auto;mix-blend-mode:normal;shape-padding:0;text-decoration-color:#000;text-decoration-line:none;text-decoration-style:solid;text-indent:0;text-orientation:mixed;text-transform:none;white-space:normal" fill="#090000" paint-order="markers fill stroke"/></g></svg>