<svg width="100" height="100" version="1.1" viewBox="0 0 26 26">
<defs>
<clipPath id="prefix__b">
<path d="M0 972h1087V0H0" clip-rule="evenodd"/>
</clipPath>
<clipPath id="prefix__a">
<path d="M0 972h1087V0H0" clip-rule="evenodd"/>
</clipPath>
</defs>
<path d="M13 11h2.8V3.6H13z" fill="#fff" fill-rule="evenodd"/>
<path d="M13 11h2.8V3.6H13z" fill="none" stroke="#000" stroke-linecap="round" stroke-linejoin="round" stroke-miterlimit="10" stroke-width=".54"/>
<g transform="matrix(.24 0 0 -.24 -35 163)" clip-path="url(#prefix__a)">
<path d="m151 651c-1.1 7.6 4.1 15 12 16l55 8.3c7.6 1.1 15-4.1 16-12l8.3-55c1.1-7.6-4.1-15-12-16l-55-8.3c-7.6-1.1-15 4.1-16 12z" fill="#ff5518" fill-rule="evenodd"/>
</g>
<g fill="#fff" stroke-width="1.1">
<path d="m6 9.1c-0.46 0.1-0.47 0.48-0.46 0.86l0.091 2.2c-7e-3 0.48 0.62 0.65 0.83 0.51 0.63-0.54 1.2-0.69 1.9-0.47 0.51 0.27 0.86 0.9 0.63 1.5-0.26 0.75-1.4 0.91-2.1 0.59-1-0.13-0.98 1-0.14 1.3 1.3 0.22 2.2-0.073 2.8-0.65 0.91-1.2 0.62-2.8-0.54-3.5-0.77-0.47-1.6-0.31-2.3 0.012l-0.05-1.1 2.2-0.33c1-0.25 0.42-1.3-0.18-1.2zm4.6 0.17c-0.27 0.22-0.46 0.48-0.24 0.84 0.27 0.49 0.79 0.22 0.92 0.13l0.51-0.37 0.62 4.3c0.16 0.94 1.5 0.71 1.3-0.25-0.29-1.8-0.84-5.4-0.84-5.4-0.12-0.48-0.72-0.38-0.86-0.3zm4.4-1.4c-0.32 0.22-0.6 0.52-0.78 0.85-0.47 0.74 0.56 1.4 1 0.72 0.96-1.4 2.5-0.51 1.7 0.79l-1.9 3c-0.52 0.65 2e-3 1.1 0.83 1.1l2.7-0.41c0.72-0.22 0.52-1.4-0.29-1.1l-1.6 0.26 1.4-2.2c0.6-1 0.39-2.3-0.53-3-0.83-0.56-1.9-0.52-2.5-0.01z" fill="#000" opacity=".62" style="font-feature-settings:normal;font-variant-alternates:normal;font-variant-caps:normal;font-variant-ligatures:normal;font-variant-numeric:normal;font-variant-position:normal;isolation:auto;mix-blend-mode:normal;shape-padding:0;text-decoration-color:#000000;text-decoration-line:none;text-decoration-style:solid;text-indent:0;text-orientation:mixed;text-transform:none;white-space:normal"/>
<path d="m6.1 8.7c-0.46 0.1-0.47 0.48-0.46 0.86l0.091 2.2c-7e-3 0.48 0.62 0.65 0.83 0.51 0.63-0.54 1.2-0.69 1.9-0.47 0.51 0.27 0.86 0.9 0.63 1.5-0.26 0.75-1.4 0.91-2.1 0.59-1-0.13-0.98 1-0.14 1.3 1.3 0.22 2.2-0.073 2.8-0.65 0.91-1.2 0.62-2.8-0.54-3.5-0.77-0.47-1.6-0.31-2.3 0.012l-0.05-1.1 2.2-0.33c1-0.25 0.42-1.3-0.18-1.2zm4.6 0.17c-0.27 0.22-0.46 0.48-0.24 0.84 0.27 0.49 0.79 0.22 0.92 0.13l0.51-0.37 0.62 4.3c0.16 0.94 1.5 0.71 1.3-0.25-0.29-1.8-0.84-5.4-0.84-5.4-0.12-0.48-0.72-0.38-0.86-0.3zm4.4-1.4c-0.32 0.22-0.6 0.52-0.78 0.85-0.47 0.74 0.56 1.4 1 0.72 0.96-1.4 2.5-0.51 1.7 0.79l-1.9 3c-0.52 0.65 2e-3 1.1 0.83 1.1l2.7-0.41c0.72-0.22 0.52-1.4-0.29-1.1l-1.6 0.26 1.4-2.2c0.6-1 0.39-2.3-0.53-3-0.83-0.56-1.9-0.52-2.5-0.01z" style="font-feature-settings:normal;font-variant-alternates:normal;font-variant-caps:normal;font-variant-ligatures:normal;font-variant-numeric:normal;font-variant-position:normal;isolation:auto;mix-blend-mode:normal;shape-padding:0;text-decoration-color:#000000;text-decoration-line:none;text-decoration-style:solid;text-indent:0;text-orientation:mixed;text-transform:none;white-space:normal"/>
</g>
<path d="m21 3 1.7 12c0.27 1.8-0.99 3.5-2.8 3.8l-13 2c-1.8 0.27-3.5-0.98-3.8-2.8l0.23 1.6c0.27 1.8 2 3.1 3.8 2.8l13-2c1.8-0.27 3.1-2 2.8-3.8l-2-13-3e-3 -0.015z" fill-opacity=".19" fill-rule="evenodd"/>
<g transform="matrix(.24 0 0 -.24 -35 163)" clip-path="url(#prefix__b)">
<path d="m151 651c-1.1 7.6 4.1 15 12 16l55 8.3c7.6 1.1 15-4.1 16-12l8.3-55c1.1-7.6-4.1-15-12-16l-55-8.3c-7.6-1.1-15 4.1-16 12z" fill="none" stroke="#191c1d" stroke-miterlimit="8" stroke-width="4"/>
</g>
<g shape-rendering="auto">
<path d="m18 16c-0.35 0.36-0.42 0.76-0.14 1.1l0.0039 0.0039 0.71 0.78-0.74 0.62c-0.42 0.4-0.21 0.85-0.012 1.1 0.42 0.35 0.98 0.22 1.2-0.029l0.57-0.52 0.53 0.63 0.0098 0.0098c0.41 0.4 0.74 0.37 1.2 0.15 0.38-0.42 0.37-0.84 0.025-1.2l-0.54-0.66 0.7-0.65 0.0059-0.0059c0.3-0.38 0.24-0.74 0.016-1.1-0.36-0.33-0.86-0.42-1.3 0.031l-0.52 0.49-0.6-0.67-0.0039-0.0039c-0.44-0.38-0.72-0.41-1.2-0.11z" color="#000000" color-rendering="auto" dominant-baseline="auto" fill="#fff" image-rendering="auto" solid-color="#000000" stroke="#191c1d" stroke-width=".78" style="font-feature-settings:normal;font-variant-alternates:normal;font-variant-caps:normal;font-variant-ligatures:normal;font-variant-numeric:normal;font-variant-position:normal;isolation:auto;mix-blend-mode:normal;paint-order:stroke fill markers;shape-padding:0;text-decoration-color:#000000;text-decoration-line:none;text-decoration-style:solid;text-indent:0;text-orientation:mixed;text-transform:none;white-space:normal"/>
<path d="m24 14-1.4 0.69-0.0098 0.0059c-0.28 0.17-0.45 0.41-0.49 0.67-0.038 0.26 0.045 0.5 0.15 0.72l2e-3 0.0059 0.02 0.033 0.014 0.02c0.25 0.31 0.67 0.33 1 0.21l-0.23 3.4c0.03 0.56 0.37 0.96 0.91 1 0.56 0.023 1-0.26 1.1-0.87v-2e-3l0.34-4.9v-2e-3c0.025-0.26-0.036-0.51-0.18-0.7-0.15-0.19-0.37-0.32-0.63-0.36-0.21-0.0012-0.42 0.0098-0.6 0.082z" color="#000000" color-rendering="auto" dominant-baseline="auto" fill="#fff" image-rendering="auto" solid-color="#000000" stroke="#191c1d" stroke-width=".78" style="font-feature-settings:normal;font-variant-alternates:normal;font-variant-caps:normal;font-variant-ligatures:normal;font-variant-numeric:normal;font-variant-position:normal;isolation:auto;mix-blend-mode:normal;paint-order:stroke fill markers;shape-padding:0;text-decoration-color:#000000;text-decoration-line:none;text-decoration-style:solid;text-indent:0;text-orientation:mixed;text-transform:none;white-space:normal"/>
<g fill="#090000">
<path d="m26 20 0.025-0.021v-0.0039z" color="#000000" color-rendering="auto" dominant-baseline="auto" image-rendering="auto" solid-color="#000000" style="font-feature-settings:normal;font-variant-alternates:normal;font-variant-caps:normal;font-variant-ligatures:normal;font-variant-numeric:normal;font-variant-position:normal;isolation:auto;mix-blend-mode:normal;paint-order:markers fill stroke;shape-padding:0;text-decoration-color:#000000;text-decoration-line:none;text-decoration-style:solid;text-indent:0;text-orientation:mixed;text-transform:none;white-space:normal"/>
<path d="m24 20 0.0078 0.0078 0.014 0.0078z" color="#000000" color-rendering="auto" dominant-baseline="auto" image-rendering="auto" solid-color="#000000" style="font-feature-settings:normal;font-variant-alternates:normal;font-variant-caps:normal;font-variant-ligatures:normal;font-variant-numeric:normal;font-variant-position:normal;isolation:auto;mix-blend-mode:normal;paint-order:markers fill stroke;shape-padding:0;text-decoration-color:#000000;text-decoration-line:none;text-decoration-style:solid;text-indent:0;text-orientation:mixed;text-transform:none;white-space:normal"/>
<path d="m23 16-0.014-0.02 0.0078 0.016z" color="#000000" color-rendering="auto" dominant-baseline="auto" image-rendering="auto" solid-color="#000000" style="font-feature-settings:normal;font-variant-alternates:normal;font-variant-caps:normal;font-variant-ligatures:normal;font-variant-numeric:normal;font-variant-position:normal;isolation:auto;mix-blend-mode:normal;paint-order:markers fill stroke;shape-padding:0;text-decoration-color:#000000;text-decoration-line:none;text-decoration-style:solid;text-indent:0;text-orientation:mixed;text-transform:none;white-space:normal"/>
</g>
</g>
</svg>
