<svg width="100" height="100" version="1.1" viewBox="0 0 26 26" xmlns="http://www.w3.org/2000/svg">
<g fill="#fff">
<path d="m3.5 4.1c-2.5 0.66-4 3.2-3.3 5.7 0.66 2.5 3.2 4 5.7 3.3 2.5-0.66 4-3.2 3.3-5.7-0.66-2.5-3.2-4-5.7-3.3zm0.75 2.8c0.97-0.26 1.9 0.29 2.2 1.3 0.26 0.97-0.29 1.9-1.3 2.2-0.97 0.26-1.9-0.29-2.2-1.3-0.26-0.97 0.3-1.9 1.3-2.2z" color="#000000" color-rendering="auto" dominant-baseline="auto" image-rendering="auto" shape-rendering="auto" solid-color="#000000" style="font-feature-settings:normal;font-variant-alternates:normal;font-variant-caps:normal;font-variant-ligatures:normal;font-variant-numeric:normal;font-variant-position:normal;isolation:auto;mix-blend-mode:normal;paint-order:normal;shape-padding:0;text-decoration-color:#000000;text-decoration-line:none;text-decoration-style:solid;text-indent:0;text-orientation:mixed;text-transform:none;white-space:normal"/>
<path d="m12 1.8c-2.5 0.66-4 3.2-3.3 5.7 0.66 2.5 3.2 4 5.7 3.3 2.5-0.66 4-3.2 3.3-5.7-0.66-2.5-3.2-4-5.7-3.3zm0.75 2.8c0.97-0.26 1.9 0.29 2.2 1.3 0.26 0.97-0.29 1.9-1.3 2.2-0.97 0.26-1.9-0.3-2.2-1.3-0.26-0.97 0.29-1.9 1.3-2.2z" color="#000000" color-rendering="auto" dominant-baseline="auto" image-rendering="auto" shape-rendering="auto" solid-color="#000000" style="font-feature-settings:normal;font-variant-alternates:normal;font-variant-caps:normal;font-variant-ligatures:normal;font-variant-numeric:normal;font-variant-position:normal;isolation:auto;mix-blend-mode:normal;paint-order:normal;shape-padding:0;text-decoration-color:#000000;text-decoration-line:none;text-decoration-style:solid;text-indent:0;text-orientation:mixed;text-transform:none;white-space:normal"/>
<path d="m8.5 12c-0.63 0.67-1.4 1.2-2.4 1.4-0.89 0.24-1.8 0.22-2.6-7e-4 -0.5 0.34-0.75 0.96-0.59 1.6l2.2 8c0.21 0.78 1 1.2 1.8 1l13-3.4c0.78-0.21 1.2-1 1-1.8l-2.2-8c-0.17-0.63-0.72-1-1.3-1.1-0.62 0.62-1.4 1.1-2.3 1.3-0.95 0.25-1.9 0.22-2.8-0.047z" style="paint-order:normal"/>
<path d="m23 9.1c0.57-0.15 1.2 0.18 1.3 0.76l1.8 6.9c0.15 0.57-0.18 1.2-0.76 1.3l-4.5-1-1.2-4.3z" style="paint-order:normal"/>
</g>
</svg>
