<svg width="120" height="120" viewBox="0 0 31 31">
    <defs>
        <linearGradient id="prefix__a" x1="13" x2="136" y1="112" y2="-18"
            gradientTransform="matrix(.23 -.2 .22 .21 -6.2 21)" gradientUnits="userSpaceOnUse">
            <stop stop-color="#9fd572" offset="0" />
            <stop stop-color="#3e9551" offset=".38" />
            <stop stop-color="#3873b6" offset="1" />
        </linearGradient>
    </defs>
    <path
        d="M16 2.8c-1.7-.02-3.3.8-3.3 3.3l-.006 11-1.4-1.4c-1.1-1.2-3.1-1.3-4.4-.11-1.2 1.1-1.3 3.1-.11 4.4l6.8 6.8c1.1 1.2 3.4 1.6 4.7.41l6.5-7.1c1-.99 1.5-2.9.26-4.4-1.2-1.2-2.7-1.4-4.6.32l-1.2 1.6-.11-12c0-2-1.5-3-3.1-3.1z"
        fill="url(#prefix__a)" paint-order="stroke fill markers" />
    <path
        d="M16 3c-1.2-.047-2.4.55-2.8 1.9-.46 1.2-.26 2.5-.3 3.7l-.006 9.1-2-1.9c-1.4-.89-3.4-.48-4.3.96-.81 1.3-.56 3.1.61 4l6.8 6.7c1.3 1.1 3.5.91 4.6-.41l6.5-6.7c.99-1.1 1.1-2.9.14-4-.91-1.1-2.6-1.4-3.8-.71-.89.52-1.5 1.4-2.3 2.1-.16.14-.032-.42-.072-.57-.007-3.6.017-7.2-.008-11-.044-1.3-.69-2.7-2-3.1-.31-.095-.64-.14-.97-.13z"
        fill="none" stroke="#adf" stroke-linecap="round" stroke-linejoin="bevel" stroke-miterlimit="8"
        stroke-width="1.2" />
</svg>