<svg width="120" height="120" viewBox="0 0 31 31">
    <defs>
        <linearGradient id="prefix__a" x1="13" x2="136" y1="112" y2="-18"
            gradientTransform="matrix(-.23 -.2 -.22 .21 38 22)" gradientUnits="userSpaceOnUse">
            <stop stop-color="#9fd572" offset="0" />
            <stop stop-color="#3e9551" offset=".38" />
            <stop stop-color="#3873b6" offset="1" />
        </linearGradient>
    </defs>
    <path
        d="M16 2.6v.01c1.7.001 3.1 1.1 3.1 3.6l.006 11 1.4-1.4c1.1-1.2 3.1-1.3 4.4-.11 1.2 1.1 1.3 3.1.11 4.4l-6.8 6.8c-1.1 1.2-3.1 1.3-4.4.088l-6.8-6.8c-1-.99-1.5-2.9-.26-4.4 1.2-1.2 3.1-1.6 4.9.2l1.3 1.3-.002-8.8-3.6.002c-1.3.029-3.1-.91-3.1-2.9-.02-1.7.34-3.4 2.9-3.4z"
        fill="url(#prefix__a)" paint-order="stroke fill markers" />
    <path
        d="M16 2.6c1.7.001 3.2 1.5 3.2 3.9l.007 11 1.4-1.4c1.1-1.2 3.2-1.3 4.4-.1 1.2 1.1 1.3 3.2.1 4.4l-6.8 6.7c-1.1 1.2-3.2 1.3-4.5.087l-6.6-6.8c-1-.99-1.5-2.8-.26-4.3 1.2-1.2 3.1-1.6 4.8.19l1.3 1.3-.003-8.8-3.7.002c-1.4.032-3.1-.9-3.2-2.9-.02-1.7 1.1-3.3 3.5-3.3z"
        fill="none" stroke="#adf" stroke-linecap="round" stroke-linejoin="bevel" stroke-miterlimit="8"
        stroke-width="1.2" />
</svg>