<svg width="100" height="100" viewBox="0 0 26.458 26.458">
   <defs>
      <linearGradient id="prefix__a" x1="6.647" y1="273.613" x2="7.862" y2="278.182"
         gradientUnits="userSpaceOnUse" gradientTransform="scale(1.71942) rotate(2.12 7351.638 94.698)">
         <stop stop-color="#55616a" offset="0" />
         <stop stop-color="#e0ecff" offset=".5" />
         <stop stop-color="#5a666f" offset="1" />
      </linearGradient>
   </defs>
   <path
      d="M1.796 10.4l-.38 10.502c.048.548.423 1.229.827 1.59l4.544 3.639c.208.094.323.318.745.108l.576-.367c.254-.12.504-.19.723.11.297.408.633.284.967.186l15.395-6.512c.349-.175.774-.759.222-1.292-2.003-1.932-4.287-4.606-3.864-8.082z"
      fill="#4c5d65" />
   <path
      d="M11.098 7.998a3.949 4.922 0 01-3.945 4.92 3.949 4.922 0 01-3.955-4.907 3.949 4.922 0 013.934-4.935 3.949 4.922 0 013.966 4.894"
      fill="none" stroke="#275061" stroke-width="2.6" />
   <path
      d="M19.693 5.74a3.522 4.388 0 01-3.518 4.387 3.522 4.388 0 01-3.527-4.375 3.522 4.388 0 013.508-4.401 3.522 4.388 0 013.537 4.363"
      fill="none" stroke="#275061" stroke-width="2.3" />
   <path d="M7.444 25.148l1.586-1.03-3.145-9.354-1.797 1.71 3.356 8.673" fill="#b3c0e7" />
   <path
      d="M2.44 10.82l.096 10.489 4.908 3.838s-2.24-5.22-1.558-10.383c.615 5.431 2.22 8.386 3.298 10.255l15.1-6.287c-2.032-2.189-3.127-4.903-2.732-8.45L3.133 8.325z"
      fill="#f7fafa" />
   <path
      d="M6.614 15.748c.688 3.609 2.247 7.085 3.836 8.333l13.832-5.35c-1.339-1.442-2.27-3.111-2.637-5.097-2.926 3.578-11.159 4.055-15.031 2.114z"
      fill="#eceff8" />
   <path
      d="M3.205 8.89c.137-.232.3-.293.486-.232l2.352.864c.393.184.392.369.461.553v3.092s-.103 1.443 1.442 1.082l13.605-3.967c.49-.144.85-.387.824-1.276l-.139-2.986-.76-1.028-4.614-2.183c-.382-.102-.78-.094-1.186-.051L2.696 5.444c-.584.169-.873.584-.875 1.237l-.264 3.807c-.08 1.153 1.371 1.242 1.498.073l.15-1.67z"
      fill="#8d1105" />
   <path
      d="M6.967 8.065L2.89 6.282s-.437-.127-.601.238L2.03 9.2c-.024.506.693.65.723.203l.082-1.244c.021-.325.123-.788.807-.55l2.801 1.133c.2.073.491.3.455.91l.11 3.17c.017.517.591.557.573.065l-.137-3.963c-.002-.348-.285-.721-.476-.858z"
      fill="#e8301c" />
   <path
      d="M7.444 8.924s.105-.547.707-.655l13.284-2.77c.452-.021.624.287.835.822l-.039-.38a.999.999 0 00-.579-.878l-4.79-2.254L3.818 5.754c-.592.129-1.236.223-1.488.692a.753.753 0 01.56-.164l4.077 1.783c.331.272.436.564.477.858z"
      fill="#c22c18" />
   <path
      d="M17.661 13.466a2.208 2.208 0 00-.817.02c-.557.093-1.147.37-1.422.94l-.003.002c-.281.635-.199 1.36-.098 2.014l.002.002.003.013c.065.376.154.752.296 1.11.203.58.661 1.08 1.247 1.22h.002a2.667 2.667 0 001.461-.16c.42-.152.775-.492.92-.945.213-.729.116-1.508-.037-2.231v-.001c-.142-.577-.33-1.207-.797-1.62a1.482 1.482 0 00-.756-.364zm-.505 1.036c.303.055.454.286.575.527.181.493.265.911.33 1.426l.003.003c.034.373.173.675-.077 1.028-.207.284-.635.27-.858.007-.318-.322-.555-1.587-.604-2.338-.003-.307.198-.616.51-.65.12-.004.081-.007.12-.004zm-3.505-.14a3.226 3.226 0 00-1.632.225c-.581.216-.956.83-.981 1.468a.076.076 0 00.073.08l1.26.03h.004a.076.076 0 00.08-.072v-.002c.003-.187.025-.357.09-.478.065-.12.166-.2.376-.218.202-.018.388.179.404.399v.003c.039.34-.292.61-.59.572a.076.076 0 00-.085.083l.098 1.002a.076.076 0 00.11.059c.2-.1.41-.186.61-.142a.521.521 0 01.346.29.939.939 0 01.094.504c.001.321-.295.58-.584.536l-.007-.001c-.132-.01-.235-.083-.324-.195a1.33 1.33 0 01-.2-.395.076.076 0 00-.096-.049l-1.077.34c-.086.027-.135.113-.137.196a.607.607 0 00.068.267l.003.006a1.679 1.679 0 001.296.859c.536.022 1.088-.043 1.585-.277h.002c.647-.279 1.012-1.044.912-1.767-.041-.474-.34-.916-.78-1.073-.125-.057-.2-.055-.266-.057.312-.264.5-.689.428-1.117-.08-.568-.558-.992-1.076-1.074h-.003z"
      fill="#253d41" />
   <path
      d="M8.869 4.869c-1.098-1.077.417-2.385 1.493-1.445.567.496 1.89 1.976 1.982 3.738.079 1.541-.121 3.27-.84 3.876-.945.798-2.224-.165-1.845-1.295 0 0 .6-1.46.513-2.434-.084-.972-.848-1.997-1.303-2.44zM17.317 2.823c-1.097-1.076.417-2.384 1.494-1.445.567.496 1.89 1.977 1.981 3.739.08 1.54-.12 3.27-.84 3.876-.945.798-2.224-.165-1.845-1.295 0 0 .6-1.461.514-2.435-.085-.972-.849-1.996-1.304-2.44z"
      fill="url(#prefix__a)" stroke="#275061" stroke-width=".339" />
</svg>