<svg xmlns:osb="http://www.openswatchbook.org/uri/2009/osb" xmlns="http://www.w3.org/2000/svg" xmlns:xlink="http://www.w3.org/1999/xlink" width="70" height="70" viewBox="0 0 18.521 18.521"><defs><linearGradient id="prefix__a" osb:paint="gradient"><stop offset="0" stop-color="#fc0"/><stop offset="1" stop-color="#fc0"/><stop offset="1" stop-color="#d19d00"/></linearGradient><linearGradient id="prefix__b"><stop offset="0" stop-color="#fc0"/><stop offset=".414" stop-color="#fc0"/><stop offset="1" stop-color="#e5ab03"/></linearGradient><linearGradient xlink:href="#prefix__a" id="prefix__c" x1="1.229" y1="287.74" x2="17.292" y2="287.74" gradientUnits="userSpaceOnUse"/><radialGradient xlink:href="#prefix__b" id="prefix__d" cx="9.26" cy="287.731" fx="9.26" fy="287.731" r="6.031" gradientTransform="matrix(1 0 0 .85927 0 40.492)" gradientUnits="userSpaceOnUse"/></defs><path d="M1.23 9.26l4.079-6.896h7.903l4.08 6.896-4.08 6.897H5.309z" fill="none" stroke="#fc0" stroke-width="2.857" stroke-linecap="round" stroke-linejoin="bevel" stroke-miterlimit="8" stroke-opacity=".2"/><path d="M1.23 287.74l4.079-6.897h7.903l4.08 6.897-4.08 6.896H5.309z" fill="url(#prefix__c)" fill-rule="evenodd" transform="translate(0 -278.48)"/><path d="M3.229 287.731l3.066-5.182h5.93l3.067 5.182-3.066 5.183H6.295z" fill="url(#prefix__d)" fill-rule="evenodd" transform="translate(0 -278.48)"/><path d="M9.318 5.147l1.59-.81.81-1.59.808 1.59 1.59.81-1.59.81-.809 1.59-.81-1.59z" fill="#fff" fill-rule="evenodd"/><path d="M9.579 3.776l.389-.199.198-.389.199.39.389.198-.389.198-.199.39-.198-.39z" fill="#fff" fill-rule="evenodd"/><path d="M12.933 8.099l-.954 4.014-5.275-.034-1.117-3.967 1.797.735 2.002-2.496 1.838 2.578z" fill="#ffd42a" fill-rule="evenodd"/><path d="M12.866 7.961l.215.173-.952 4.014-.15.117-5.277-.034-.146-.111L5.44 8.155l.205-.184 1.797.734-.178.047 2.003-2.496.243.006 1.838 2.578-.19-.049zM11.29 9.067l-.192-.049L9.26 6.44l.244.007-2.001 2.497-.177.047-1.799-.736.206-.182 1.117 3.966-.147-.113 5.276.034-.15.119.954-4.015.215.173z" fill="#ffe680"/></svg>