<svg width="70" height="70" version="1.1" viewBox="0 0 19 19" xmlns="http://www.w3.org/2000/svg">
<defs>
<radialGradient id="prefix__d" cx="9.3" cy="288" r="6" gradientTransform="matrix(.88 .014 -.013 .86 4.9 -239)" gradientUnits="userSpaceOnUse">
<stop stop-color="#fc0" offset="0"/>
<stop stop-color="#fc0" offset=".24"/>
<stop stop-color="#f5bf01" offset=".85"/>
<stop stop-color="#e5ab03" offset="1"/>
</radialGradient>
<linearGradient id="a" x1="1.2" x2="17" y1="288" y2="288" gradientTransform="translate(0,-279)" gradientUnits="userSpaceOnUse">
<stop stop-color="#fc0" offset="0"/>
<stop stop-color="#fc0" offset="1"/>
<stop stop-color="#d19d00" offset="1"/>
</linearGradient>
<linearGradient id="b" x1="11" x2="12" y1="12" y2="8.9" gradientTransform="translate(-.82 .0026)" gradientUnits="userSpaceOnUse">
<stop stop-opacity=".31" offset="0"/>
<stop stop-color="#fff" offset="1"/>
</linearGradient>
</defs>
<path d="m1.4 9.6 4.1-6.9h7.9l4.1 6.9-4.1 6.9h-7.9z" fill="none" stroke="#fc0" stroke-linecap="round" stroke-linejoin="bevel" stroke-miterlimit="8" stroke-opacity=".2" stroke-width="2.9"/>
<g fill-rule="evenodd">
<path d="m1.2 9.5 4.1-6.9h7.9l3.8 6.9-3.8 6.9h-7.9z" fill="url(#a)"/>
<path d="m3.1 9.5 3.1-5.2h5.9l3.1 5.2-3.1 5.2h-5.9z" fill="url(#prefix__d)"/>
<path d="m9.3 4.6 1.6-0.81 0.81-1.6 0.81 1.6 1.6 0.81-1.6 0.81-0.81 1.6-0.81-1.6z" fill="#fff"/>
<path d="m9.6 3.3 0.39-0.2 0.2-0.39 0.2 0.39 0.39 0.2-0.39 0.2-0.2 0.39-0.2-0.39z" fill="#fff"/>
<path d="m13 8.2-0.89 3.7-4.9-0.031-1-3.7 1.7 0.68 1.9-2.3 1.7 2.4z" fill="#ffd42a" stroke-width=".93"/>
</g>
<path d="m13 8.1 0.2 0.16-0.89 3.7-0.14 0.11-4.9-0.031-0.14-0.1-1.1-3.7 0.27-0.31 1.6 0.87 1.9-2.3 0.23 0.0056 1.5 2.4zm-1.4 1-0.25-0.059-1.5-2-1.8 2-0.17 0.044-1.6-0.84 0.98 3.6 4.8-0.0044 0.75-3.3z" fill="url(#b)" stroke-width=".93"/>
</svg>
