<svg width="100" height="100" viewBox="0 0 26 26"><defs><linearGradient id="prefix__e" x1="904" x2="979" y1="207" y2="118" gradientUnits="userSpaceOnUse" gradientTransform="matrix(.13695 .03189 .03203 -.13632 -123.861 .418)"><stop stop-color="#7030a0" offset="0"/><stop stop-color="#e60720" offset=".22"/><stop stop-color="#ff5518" offset=".42"/><stop stop-color="#ff5518" offset=".5"/><stop stop-color="#ff5518" offset=".58"/><stop stop-color="#e60720" offset=".78"/><stop stop-color="#7030a0" offset="1"/></linearGradient><linearGradient id="prefix__b" x1="854" x2="998" y1="218" y2="46" gradientUnits="userSpaceOnUse" gradientTransform="matrix(.14725 .03429 .03444 -.14658 -134.206 -.672)"><stop stop-color="#ff5518" offset="0"/><stop stop-color="#d8343d" offset=".25"/><stop stop-color="#ff5518" offset=".36"/><stop stop-color="#ff5518" offset=".5"/><stop stop-color="#ff5518" offset=".64"/><stop stop-color="#d8343d" offset=".75"/><stop stop-color="#ff5518" offset="1"/></linearGradient><linearGradient id="prefix__a" x1="882" x2="987" y1="357" y2="69" gradientUnits="userSpaceOnUse" gradientTransform="matrix(.14725 .03429 .03444 -.14658 -133.935 -.807)"><stop stop-color="#ff6514" offset="0"/><stop stop-color="#ff6514" offset=".13"/><stop stop-color="#ffc000" offset=".27"/><stop stop-color="#ffc000" offset=".5"/><stop stop-color="#ffc000" offset=".73"/><stop stop-color="#ff6514" offset=".87"/><stop stop-color="#ff6514" offset="1"/></linearGradient><linearGradient id="prefix__c" x1="17" x2="17" y1="44" y2="50" gradientTransform="matrix(.43254 .10072 -.10118 .43057 7.94 -2.76)" gradientUnits="userSpaceOnUse"><stop offset="0"/><stop stop-color="#0b215e" offset="1"/></linearGradient><clipPath id="prefix__g"><path d="M0 972h1087V0H0" clip-rule="evenodd"/></clipPath><clipPath id="prefix__f"><path d="M0 972h1087V0H0" clip-rule="evenodd"/></clipPath><radialGradient id="prefix__d" cx="960" cy="140" r="21" gradientUnits="userSpaceOnUse" gradientTransform="matrix(.19686 .04584 .04605 -.19597 -183.124 -4.64)"><stop offset="0"/><stop offset=".54" stop-color="maroon"/><stop stop-opacity=".075" offset=".93" stop-color="#db0000"/><stop stop-opacity="0" offset="1" stop-color="#be0000"/></radialGradient></defs><path d="M2.306 2.912l5.54 4.897-2.092.993-3.448-5.89zm22.747 4.556l-7.147 1.944 1.411 1.901 5.736-3.845z" fill="#ff5518" fill-rule="evenodd"/><path d="M.847 17.128l1.471-14.19 4.042 5.27 7.597-4.57 4.762 6.83 6.3-3.017-4.848 14.022L.847 17.128z" fill="url(#prefix__a)" fill-rule="evenodd"/><path d="M.792 17.005c.3-.798 1.286-.932 2.022-1.076 2.698-.34 5.43.08 8.068.643 2.695.637 5.4 1.459 7.768 2.922.664.472 1.53 1.005 1.598 1.897-.119.82-1.083 1.03-1.764 1.18-2.49.395-5.03.035-7.486-.425-2.894-.61-5.79-1.447-8.36-2.938-.733-.486-1.638-1.006-1.859-1.92l-.006-.144z" fill="url(#prefix__b)" fill-rule="evenodd"/><path d="M2.658 17.655c.44-.614 1.37-.45 2.04-.507 3.131.1 6.216.79 9.204 1.694 1.461.489 2.978.958 4.228 1.885.927.66-.31 1.2-.978 1.103-2.548.078-5.071-.432-7.538-1.014-2.118-.553-4.266-1.147-6.174-2.244-.316-.227-.8-.472-.782-.917z" fill="url(#prefix__c)" fill-rule="evenodd"/><path style="line-height:normal;font-variant-ligatures:normal;font-variant-position:normal;font-variant-caps:normal;font-variant-numeric:normal;font-variant-alternates:normal;font-feature-settings:normal;text-indent:0;text-align:start;text-decoration-line:none;text-decoration-style:solid;text-decoration-color:#000;text-transform:none;text-orientation:mixed;white-space:normal;shape-padding:0;isolation:auto;mix-blend-mode:normal;solid-color:#000;solid-opacity:1" d="M11.626 11.22c-3.384-.68-6.926-.64-10.257.35a.406.405 0 10.233.776c4.247-1.263 8.894-.912 13.071.55l-.001-.002c2.5.889 4.849 2.225 6.804 4.002a.406.405 0 10.548-.597c-2.045-1.859-4.487-3.245-7.078-4.165a.406.405 0 00-.002 0 24.914 24.914 0 00-3.318-.913z" color="#000" font-weight="400" font-family="sans-serif" overflow="visible" fill="#ff5518" fill-opacity=".39"/><path d="M8.37 11.016c.486-2.186 2.914-3.704 5.101-3.153 1.92.4 3.38 2.27 3.28 4.223-.02 1.924-1.507 3.713-3.42 4.045-1.964.412-4.125-.75-4.803-2.643a4.22 4.22 0 01-.158-2.472z" fill="url(#prefix__d)" fill-rule="evenodd"/><path d="M9.353 11.309c.364-1.684 2.384-2.752 3.982-2.058 1.489.543 2.263 2.385 1.633 3.829-.545 1.482-2.396 2.253-3.846 1.626-1.334-.5-2.124-2.025-1.77-3.397z" fill="url(#prefix__e)" fill-rule="evenodd"/><path style="line-height:normal;font-variant-ligatures:normal;font-variant-position:normal;font-variant-caps:normal;font-variant-numeric:normal;font-variant-alternates:normal;font-feature-settings:normal;text-indent:0;text-align:start;text-decoration-line:none;text-decoration-style:solid;text-decoration-color:#000;text-transform:none;text-orientation:mixed;white-space:normal;shape-padding:0;isolation:auto;mix-blend-mode:normal;solid-color:#000;solid-opacity:1" d="M14.322 2.97c-.248-.049-.504-.152-.705.063l-6.12 3.792L2.27 1.984c-.19.134-.607.097-.588.39L.229 17.178c.03.238.046.32.072.567.286.698.974 1.36 1.566 1.788 2.671 1.674 5.29 2.407 8.342 3.107 2.69.56 5.439.985 8.188.656.853-.147 1.954-.427 2.318-1.33.043-.154.162-.488.242-.735l4.968-14.167c-.185-.111-.347-.418-.548-.4l-7.125 2.1-3.93-5.792zm-.365.668L17.84 9.37a.796.796 0 00.728.029l6.485-1.93-4.986 14.24c-.397.702-1.35.809-2.06.936-2.829.25-5.64-.223-8.39-.852-2.7-.679-4.976-1.325-7.337-2.84-.479-.369-1.105-.931-1.318-1.517-.084-.579.09-1.166.121-1.749L2.318 2.938s3.37 3.258 4.919 4.577c.267.06.513.026.723-.158zM.949 17.432c.012.017-.018.067 0 0z" color="#000" font-weight="400" font-family="sans-serif" overflow="visible" fill="#fff"/><path d="M23.063 9.45l-4.732 2.377-1.128-1.809-2.063 6.38c1.647.551 3.399 1.065 4.712 2.257l3.21-9.205z" fill="#c00000" fill-opacity=".15" fill-rule="evenodd"/><g clip-path="url(#prefix__f)" transform="matrix(.14725 .03429 .03444 -.14658 -134.288 -.75)"><path d="M928 176l10 6.1 4.5 11 6.1-10 11-4.5-10-6.1-4.5-11-6.1 10-11 4.5z" fill="#fff" fill-rule="evenodd"/></g><g clip-path="url(#prefix__g)" transform="matrix(.14725 .03429 .03444 -.14658 -134.156 -.345)"><path d="M938 156c2.329.686 4.899.983 7.08 1.91l4.42 5.19c.686-2.329.983-4.899 1.91-7.08l5.19-4.42c-2.33-.686-4.899-.983-7.08-1.91l-4.42-5.19c-.686 2.329-.983 4.899-1.91 7.08L938 156z" fill="#fff" fill-rule="evenodd"/></g></svg>