<svg width="360" height="200" viewBox="0 0 95 53"><path d="M33 2c.86-.32 1.9-.31 2.8.11l8.7 4 .18.13 1.7.98c3.3 2.4 5.1 6.4 4.7 10l-.011.046 38 17-.018.035.58.25c1.9 1.3 3.2 3.2 3.7 5.6.91 4.8-2.2 9.3-7 10-1.2.23-2.4.2-3.5-.035l-1.1-.49-.099.21-38-19-1.1.81c-3.2 2-7.3 2.3-11 .63h-.003c-9.3-4.3-19-8.6-28-13-1.9-.88-2.8-3.2-1.9-5.1.89-1.9 3.2-2.8 5.1-1.9l15 6.8-1.2-.88c-.98-1.1-1.3-2.7-.64-4.1.43-.94 1.2-1.6 2.1-2 .9-.33 1.9-.32 2.9.11l2.5 1.2-.12-.053c-1.8-.85-2.6-3-1.8-4.9.85-1.8 3-2.7 4.9-1.8l.95.43.025-.032.21-.15-.074-.056c-.95-1-1.2-2.6-.61-3.9.41-.9 1.2-1.6 2-1.9z" fill="none" stroke="#FFF" stroke-linejoin="round" stroke-miterlimit="8" stroke-width="2.8"/></svg>