<svg width="100" height="100" viewBox="0 0 26 26" xmlns="http://www.w3.org/2000/svg">
    <defs>
        <clipPath id="prefix__a">
            <path d="M0 972h1087V0H0" clip-rule="evenodd" />
        </clipPath>
        <clipPath id="prefix__c">
            <path d="M0 972h1087V0H0" clip-rule="evenodd" />
        </clipPath>
        <clipPath id="prefix__d">
            <path d="M0 972h1087V0H0" clip-rule="evenodd" />
        </clipPath>
        <clipPath id="prefix__e">
            <path d="M0 972h1087V0H0" clip-rule="evenodd" />
        </clipPath>
        <linearGradient id="prefix__b" x1="75" x2="541" y1="670" y2="250" gradientUnits="userSpaceOnUse">
            <stop stop-color="#ff6e47" offset="0" />
            <stop stop-color="#ff2151" offset=".28" />
            <stop stop-color="#ff2151" offset=".33" />
            <stop stop-color="#ff2151" offset=".38" />
            <stop stop-color="#ff6e47" offset=".67" />
            <stop stop-color="#ff2151" offset=".95" />
            <stop stop-color="#ff2151" offset="1" />
        </linearGradient>
    </defs>
    <g transform="matrix(.14 0 0 -.14 -30 79)" clip-path="url(#prefix__a)">
        <path d="M303 498c19 90 150 21 15-110-166 89-58 192-15 110z" fill="url(#prefix__b)" fill-rule="evenodd" />
    </g>
    <g transform="matrix(.14 0 0 -.14 -30 79)" clip-path="url(#prefix__c)">
        <path d="M303 498c19 90 150 21 15-110-166 89-58 192-15 110z" fill="none" stroke="#ff2151"
            stroke-linejoin="bevel" stroke-miterlimit="8" stroke-opacity=".31" stroke-width="23" />
    </g>
    <g transform="matrix(.14 0 0 -.14 -30 79)" clip-path="url(#prefix__d)">
        <path d="M316 506l10 7.2 4 12 7.2-10 12-4-10-7.2-4-12-7.2 10z" fill="#fff" fill-rule="evenodd" />
    </g>
    <g transform="matrix(.14 0 0 -.14 -30 79)" clip-path="url(#prefix__e)">
        <path d="M346 495l8.7 2.2 5.8 6.9 2.2-8.7 6.9-5.8-8.7-2.2-5.8-6.9-2.2 8.7z" fill="#fff" fill-rule="evenodd" />
    </g>
    <path
        d="M23 14a.702.702 0 00-.68.56c-.067.38.19.73.58.8l.65.12-.84 4.7c-.076.42.2.83.63.9.42.076.83-.2.9-.63l.94-5.3c.003-.016.002-.031.003-.047.004-.014.01-.027.012-.042.067-.38-.19-.73-.58-.8l-1.5-.27a.688.688 0 00-.14-.011z"
        fill="#fff" stroke="#111213" stroke-linecap="round" stroke-linejoin="round" stroke-width=".45"
        paint-order="stroke fill markers" />
    <path
        d="M20 16a.686.686 0 00-.81.53l-.26 1.2-1.2-.26a.686.686 0 00-.81.53c-.077.37.16.73.53.81l1.2.26-.26 1.2c-.077.37.16.73.53.81.37.077.73-.16.81-.53l.26-1.2 1.2.26c.37.077.73-.16.81-.53a.686.686 0 00-.53-.81l-1.2-.26.26-1.2A.686.686 0 0020 16z"
        fill="#fff" stroke="#111213" stroke-linecap="round" stroke-linejoin="round" stroke-width=".45"
        paint-order="stroke fill markers" />
</svg>