<svg width="100" height="100" viewBox="0 0 26 26">
    <path
        d="M15 .97c2.4.72-2.1 9.2-1.7 9.5.36.33 5.6-1.1 4.8 1.4-.78 2.4-7.1 14-9.5 13-2.3-.5 2-9.9 1.3-10-.6-.44-4.9.27-5.4-.62-.48-.89 8-14 10-13z"
        fill="none" stroke="#00f2f2" stroke-miterlimit="8" stroke-opacity=".15" stroke-width="1.8" />
    <path
        d="M16 1.1c.23.51-2.1 8.7-1.5 9.1.69.46 3.9.56 4.1 1.4.14.88-8 13-8.4 13-.39.31-1.1-.16-1.8-.23l2.5-3.7.79-6.2-4.6-.62 6.2-9 .76-4.1c.72-.022 1.9-.2 2.1.31z"
        fill="#00b0f0" fill-rule="evenodd" />
    <path
        d="M16 1.1c.23.51-2.1 8.7-1.5 9.1.69.46 3.9.56 4.1 1.4.14.88-8 13-8.4 13-.39.31-1.1-.16-1.8-.23l2.5-3.7.79-6.2-4.6-.62 6.2-9 .76-4.1c.72-.022 1.9-.2 2.1.31z"
        fill="none" stroke="#00b0f0" stroke-miterlimit="8" stroke-width=".22" />
    <path
        d="M14 .96c.67.23-1.8 9.2-1.5 9.5.31.33 3.6.67 4.1 1.4.56.71-7.5 13-8.2 13-.69-.1 1.8-9.3 1.2-9.7-.52-.44-4.2.27-4.6-.62-.41-.89 8.3-13 9-13z"
        fill="#00f2f2" fill-rule="evenodd" />
    <path
        d="M14 .96c.67.23-1.8 9.2-1.5 9.5.31.33 3.6.67 4.1 1.4.56.71-7.5 13-8.2 13-.69-.1 1.8-9.3 1.2-9.7-.52-.44-4.2.27-4.6-.62-.41-.89 8.3-13 9-13z"
        fill="none" stroke="#00b0f0" stroke-miterlimit="8" stroke-width=".22" />
    <g fill="#fff" fill-rule="evenodd">
        <path d="M13 6L7.9 8.8 9.8 6l3.6-2zM13 7.5l-.21 1.4-5.9 2.3.42-1z" />
        <path
            d="M12 4.7l3.3-1.4L16.7 0l1.4 3.3 3.3 1.4-3.3 1.4-1.4 3.3-1.4-3.3zM18 8.4l1.4-.59.59-1.4.59 1.4 1.4.59-1.4.59-.59 1.4-.59-1.4z" />
    </g>
</svg>