<svg width="100" height="100" viewBox="0 0 26 26"><defs><clipPath id="prefix__b"><path d="M0 972h1087V0H0" clip-rule="evenodd"/></clipPath><clipPath id="prefix__a"><path d="M0 972h1087V0H0" clip-rule="evenodd"/></clipPath></defs><g clip-path="url(#prefix__a)" transform="matrix(.45 0 0 -.45 -156 106)"><path d="M387 216c5.2-.86 9.1-5.4 9.1-11 .05-5.3-3.7-9.9-8.9-11-2.2-.78-3.2 3.4-.88 4.8 2.9.53 5 3.1 4.9 6-.03 2.9-2.2 5.4-5.1 5.9-2.8 1.6-2.1 5.6.78 4.8z" fill="#fff" fill-rule="evenodd"/></g><g clip-path="url(#prefix__b)" transform="matrix(.45 0 0 -.45 -156 106)"><path d="M390 224c8.3-2.4 14-9.9 14-19 .05-8.6-5.6-16-14-19-3.5-.87-4.9 3.5-1.4 4.5 6.2 1.9 10 7.6 10 14-.04 6.5-4.4 12-11 14-3.4 1-2.5 5.4 1.3 4.6z" fill="#fff" fill-rule="evenodd"/></g><path d="M12 3.7c-.021 0-.042.001-.062.003l-2 .11c-.49.026-.94.24-1.3.6l-3.3 3.5-3.3-.2.005.002c-1.1-.068-2 .8-2 1.9l.11 7.2c.017 1.1 1 2 2.2 1.8l2.8-.47 2.8 3.4c.33.39.81.63 1.3.66l2.4.13c1.1.058 2-.78 2-1.8.05-5 .095-10 .14-15 .01-1-.85-1.9-1.9-1.9z" color="#000" fill="#fff" style="font-feature-settings:normal;font-variant-alternates:normal;font-variant-caps:normal;font-variant-ligatures:normal;font-variant-numeric:normal;font-variant-position:normal;isolation:auto;mix-blend-mode:normal;shape-padding:0;text-decoration-color:#000;text-decoration-line:none;text-decoration-style:solid;text-indent:0;text-orientation:mixed;text-transform:none;white-space:normal"/></svg>