<svg width="100" height="100" viewBox="0 0 26 26"><path d="M12 3.7c-.021 0-.042.001-.062.003l-2 .11c-.49.026-.94.24-1.3.6l-3.3 3.5-3.3-.2.005.002c-1.1-.068-2 .8-2 1.9l.11 7.2c.017 1.1 1 2 2.2 1.8l2.8-.47 2.8 3.4c.33.39.81.63 1.3.66l2.4.13c1.1.058 2-.78 2-1.8.05-5 .095-10 .14-15 .01-1-.85-1.9-1.9-1.9z" color="#000" fill="#fff" style="font-feature-settings:normal;font-variant-alternates:normal;font-variant-caps:normal;font-variant-ligatures:normal;font-variant-numeric:normal;font-variant-position:normal;isolation:auto;mix-blend-mode:normal;shape-padding:0;text-decoration-color:#000;text-decoration-line:none;text-decoration-style:solid;text-indent:0;text-orientation:mixed;text-transform:none;white-space:normal"/><path d="M24 9.2c.38 0 .76.14 1.1.43.59.57.59 1.5.014 2.1l-1.7 1.7 1.7 1.7c.59.58.59 1.5.009 2.1-.58.58-1.5.59-2.1.009l-1.7-1.7-1.7 1.7c-.58.58-1.5.59-2.1.014-.59-.57-.59-1.5-.014-2.1l1.7-1.7-1.7-1.7a1.484 1.484 0 112.086-2.109l1.7 1.7 1.7-1.7c.29-.29.67-.44 1.1-.44z" fill="#fff" fill-rule="evenodd"/></svg>