<svg width="100" height="100" viewBox="0 0 26 26"><defs><clipPath id="prefix__a" clipPathUnits="userSpaceOnUse"><path d="M0 0h1087.2v972H0z" clip-rule="evenodd"/></clipPath></defs><g clip-path="url(#prefix__a)" transform="matrix(.5483 0 0 -.5483 -71.666 125.016)"><g style="-inkscape-font-specification:Calibri-Bold" aria-label="ADS" font-weight="700" font-size="32.04" font-family="Calibri" fill="#fff"><path d="M149.09 195.143c1.01-1.784-1.251-1.724-2.418-1.619-1.033-.21-1.822.36-1.943 1.367l-1.116 3.334h-7.603c-.496-1.44-.886-2.924-1.455-4.333-1.063-.496-2.949-.706-3.844.113.11 1.243.712 2.389 1.068 3.58 1.841 5.261 3.638 10.538 5.506 15.788.903.99 2.52.424 3.732.557 1.128.225 1.892-.543 2.069-1.573l6.003-17.214zm-9.294 14.847c-.98-2.839-1.915-5.741-2.878-8.605h5.741l-2.863 8.605z"/><path d="M165.76 204.03c.047-3.231-.873-6.842-3.724-8.713-2.94-1.987-6.599-1.687-9.979-1.707-.923.08-1.948-.218-2.77.297-.58.77-.262 1.802-.345 2.703.015 5.422-.028 10.845.022 16.265.126 1.117 1.376.99 2.204.979 3.242-.083 6.63.373 9.68-.993 2.923-1.223 4.658-4.306 4.847-7.382.045-.482.065-.966.065-1.45zm-4.255-.142c.041 2.393-.804 5.151-3.187 6.163-1.652.771-3.51.542-5.277.58v-13.767c2.222.026 4.716-.265 6.507 1.342 1.582 1.413 1.95 3.668 1.957 5.682z"/><path d="M178.115 199.68c.122-2.59-1.632-5.057-4.085-5.857-2.751-.947-5.992-.767-8.493.773-.925.813-.873 2.71-.196 3.606 1.267-.3 2.365-1.33 3.733-1.494 1.569-.292 3.727-.297 4.551 1.36.647 1.244-.12 2.663-1.293 3.226-2.204 1.278-5.08 1.862-6.404 4.262-1.424 2.561-.657 6.286 2.035 7.702 2.563 1.349 5.819 1.251 8.365-.088.95-.774.765-2.592.234-3.517-1.171.232-2.198 1.144-3.45 1.268-1.366.282-3.367-.006-3.656-1.647-.336-1.43.988-2.457 2.15-2.948 2.297-1.058 5.123-1.962 6.134-4.534.28-.666.375-1.394.375-2.112z"/></g></g><path d="M20.265 2.063L6.287 23.937 20.265 2.063z" fill="none" stroke="#fff" stroke-width="3.8383480800000003" stroke-linecap="round" stroke-linejoin="round" stroke-miterlimit="10"/></svg>