<svg width="100" height="100" viewBox="0 0 26 26">
    <path
        d="M22 7.3c-1.3.027-2.7.55-3.2 1.8-.16.31-.26.64-.31.98-.61-1.1-1.5-1.9-2.4-2.2-1.6-.54-5-.34-5-.34-.63-.01-.89.58-.89 1.2l-.14 5.7-2.4-6c-.29-.68-.69-.94-1.3-.96-.36.007-.72.017-1.1-.016-.61-.055-1.2.39-1.3 1l-2.9 8.6c-.21.44-.45 1.3.2 1.5.67.24 1.5.22 2-.29l.66-2.1h3.5l.51 1.5c.07.69.83 1 1.4.94.51-.054.82-.32.98-.73.2.45.5.7.92.65.91.01 1.8-.011 2.7-.011 1.5-.058 3.2-.53 4.1-1.8.14-.16-.005-.055 0 0-.12.58.16 1.1 1 1.5 1.5.68 3.3.68 4.8-.14 1.1-.71 1.8-2.1 1.6-3.5-.1-1-.84-1.9-1.7-2.3-.78-.46-1.6-.82-2.4-1.3-.62-.54-.19-1.6.62-1.5.7-.05 1.2.18 1.8.47.77.38 1.4-.16 1.4-.81.1-.63-.3-1.1-1.1-1.5-.73-.28-1.1-.39-2.1-.42zm-8.5 2.4c.81.007 1.6.11 2.2.74.96 1.1.93 2.7.61 4.1-.24.88-.97 1.6-1.9 1.7-.53.04-1.4.22-1.7-.016v-6.5c.26-.003.52-.012.79-.01zm-7.8.88l1.1 3.4H4.6c.37-1.1.74-2.3 1.1-3.4zm13 2.2c.19.22.4.41.65.56.88.61 2 .84 2.8 1.6.45.56.035 1.5-.66 1.6-.93.23-1.9-.11-2.7-.62a.573.573 0 00-.64-.019c.4-1.1.48-2.1.54-3z"
        color="#000" fill="#262626"
        style="font-feature-settings:normal;font-variant-alternates:normal;font-variant-caps:normal;font-variant-ligatures:normal;font-variant-numeric:normal;font-variant-position:normal;isolation:auto;mix-blend-mode:normal;shape-padding:0;text-decoration-color:#000;text-decoration-line:none;text-decoration-style:solid;text-indent:0;text-orientation:mixed;text-transform:none;white-space:normal" />
    <path d="M20 1.6l-14 23z" fill="#fff" fill-rule="evenodd" />
    <path
        d="M5.6 23l12-21c.43-.75 1.4-.97 2.2-.49.82.48 1.1 1.5.71 2.2l-12 21c-.43.75-1.4.97-2.2.49-.82-.48-1.1-1.5-.71-2.2z"
        fill="#ff5518" />
</svg>