<svg width="96" height="96" viewBox="0 0 25.4 25.4">
<defs>
<radialGradient xlink:href="#prefix__c" id="prefix__g" cx="138.308" cy="261.381" fx="138.308" fy="261.381"
 r="1.252" gradientUnits="userSpaceOnUse"
 gradientTransform="matrix(1.25133 .81938 -.82332 1.25735 179.874 -180.225)" />
<radialGradient xlink:href="#prefix__d" id="prefix__h" gradientUnits="userSpaceOnUse"
 gradientTransform="matrix(.90015 .47242 -.5114 .9744 146.9 -58.386)" cx="138.583" cy="260.817" fx="138.583"
 fy="260.817" r="1.252" />
<radialGradient xlink:href="#prefix__c" id="prefix__i" cx="138.308" cy="261.381" fx="138.308" fy="261.381"
 r="1.252" gradientUnits="userSpaceOnUse"
 gradientTransform="matrix(1.25133 .81938 -.82332 1.25735 170.93 -183.907)" />
<radialGradient xlink:href="#prefix__d" id="prefix__j" gradientUnits="userSpaceOnUse"
 gradientTransform="matrix(.90015 .47242 -.5114 .9744 137.957 -62.067)" cx="138.583" cy="260.817" fx="138.583"
 fy="260.817" r="1.252" />
<radialGradient xlink:href="#prefix__a" id="prefix__e" gradientUnits="userSpaceOnUse"
 gradientTransform="matrix(.26136 1.3307 -1.73697 .34116 545.523 -18.225)" cx="138.245" cy="254.118"
 fx="138.245" fy="254.118" r="11.153" />
<radialGradient xlink:href="#prefix__b" id="prefix__f" gradientUnits="userSpaceOnUse"
 gradientTransform="matrix(1.0586 0 0 1.60077 -16.643 149.814)" cx="102.588" cy="-258.293" fx="102.588"
 fy="-258.293" r="2.291" />
<linearGradient id="prefix__d">
<stop offset="0" stop-color="#fcaf02" stop-opacity="0" />
<stop offset=".723" stop-color="#f6aa07" stop-opacity="0" />
<stop offset="1" stop-color="#dba500" />
</linearGradient>
<linearGradient id="prefix__c">
<stop offset="0" stop-color="#fcaf02" />
<stop offset=".75" stop-color="#f6aa07" />
<stop offset="1" stop-color="#b17100" />
</linearGradient>
<linearGradient id="prefix__b">
<stop offset="0" stop-color="#f7ba12" />
<stop offset="1" stop-color="#fbe128" />
</linearGradient>
<linearGradient id="prefix__a">
<stop offset=".354" stop-color="#fff11f" />
<stop offset=".79" stop-color="#fdbd08" />
<stop offset="1" stop-color="#e59300" />
</linearGradient>
</defs>
<g transform="translate(-126.895 -245.55)">
<path
 d="M127.88 250.541c.075 1.28.468 2.461 1.753 3.4-.782 1.943-.728 3.5-.053 5.49l-1.987 1.464c-.73 2.058.536 5.88 4.81 6.275l.42-.21 1.045.785 2.405-.732c1.115.825 1.827 1.88 2.458 2.98 0 0 3.87 0 4.236-.522.366-.523.209-2.197.209-2.197.809-.456 1.667-1.06 2.614-1.934l1.935.993c.52-.423 1.026-.742 1.673-.941l-.209-2.876s4.543-4.809 1.63-10.498c-5.064-7.163-12.247-6.197-18.03-2.965-2.18-.477-4.16.273-4.908 1.488z"
 fill="url(#prefix__e)" />
<path
 d="M140.889 246.604c-2.667.053-5.358.964-7.812 2.293a6.184 6.184 0 000 .43c.265 2.87 7.164-.321 8.393 1.11.999 1.442-2.773 1.294-2.07 2.773.48 1.59 1.886-.148 2.514.555.91 1.016.702 2.07 2.181 1.96 1.48-.111.037-3.18 1.036-4.142.998-.961 3.438 1.183 4.437-.037.37-.518-1.036-1.627-1.812-2.33-.332-.3-.392-.518-.354-.67-2.05-1.424-4.273-1.987-6.513-1.942z"
 fill="#fff77f" />
<path
 d="M140.58 257.997c.053.993.794.235.794.235s.415-1.67-.192-2.771c-.81-1.49-1.464-1.674-1.856-1.739-.314-.013-.574-.019-.785.261-.204.271-.033.484-.033.484 1.3 1.041 1.984 2.445 2.072 3.53zM127.88 250.541c-.08.101.068-.109 0 0 .075 1.28.671 2.544 1.956 3.482l.559-1.05.721.135.863-.942c-.875-1.108-2.973-1.927-4.098-1.625z"
 fill="#6c2a2c" />
<ellipse ry="1.04" rx=".666" cy="214.137" cx="197.873" transform="rotate(15.064)" fill="#6c2a2c" />
<ellipse ry="1.04" rx=".666" cy="213.603" cx="194.378" transform="rotate(15.064)" fill="#6c2a2c" />
<ellipse ry="3.667" rx="2.425" cy="-263.653" cx="91.956" transform="matrix(-.58273 .81266 -.69717 -.7169 0 0)"
 fill="url(#prefix__f)" />
<ellipse ry=".763" rx=".463" cy="264.381" cx="131.564" transform="rotate(.068) skewX(.007)" fill="#6c2a2c" />
<ellipse ry=".763" rx=".463" cy="262.887" cx="129.464" transform="rotate(.068) skewX(.007)" fill="#6c2a2c" />
<circle r="1.386" cy="261.252" cx="138.24" fill="url(#prefix__g)" />
<circle cx="138.24" cy="261.252" r="1.386" fill="url(#prefix__h)" />
<path
 d="M129.297 256.185a1.386 1.386 0 00-.218.018c-.065.89.065 1.773.353 2.745a1.386 1.386 0 001.251-1.378 1.386 1.386 0 00-1.386-1.385z"
 fill="url(#prefix__i)" />
<path
 d="M129.297 256.185a1.386 1.386 0 00-.218.018c-.065.89.065 1.773.353 2.745a1.386 1.386 0 001.251-1.378 1.386 1.386 0 00-1.386-1.385z"
 fill="url(#prefix__j)" />
<path
 d="M141.506 246.326c-1.701.673-3.127 1.73-3.757 2.333a.519.519 0 00.015.791.872.872 0 00.884.131c1.696-1.305 3.182-2.349 5.147-2.976z"
 fill="#6c2a2c" />
<ellipse transform="matrix(.91652 -.4 .34612 .93819 0 0)" ry=".711" rx="1.028" cy="282.821" cx="39.731"
 fill="#fff" />
<ellipse cx="45.863" cy="282.983" rx=".64" ry=".451" transform="matrix(.91295 -.40808 .33362 .9427 0 0)"
 fill="#fff" />
<path
 d="M134.506 264.66c-.532.617-1.015 1.263-1.745 1.764l-.998.655c.206.038.418.07.641.09l.418-.208 1.046.784 2.406-.732c1.114.825 1.826 1.88 2.457 2.98l.27-.004c-.58-1.397-.326-2.238-.761-2.87-.492-.559-1.38-.107-1.38-.107l.417-.836-2.406.396-.993-.187zM148.286 263.092c-.545.562-2.495 2.247-2.495 2.247l1.934.994c.466-.379.925-.668 1.479-.868-.115-.511-.279-1.149-.456-1.492-.315-.611-.783.084-.783.084.121-.317.235-.637.321-.965z"
 fill="#6c2a2c" />
<path
 d="M127.88 250.541c.075 1.28.468 2.461 1.753 3.4-.782 1.943-.728 3.5-.053 5.49-1.794.895-1.895 1.181-1.987 1.464-.73 2.058.627 5.554 4.223 6.288l1.072-.536.98 1.098 2.405-.732c1.115.825 1.827 1.88 2.458 2.98 0 0 3.87 0 4.236-.522.366-.523.209-2.197.209-2.197.809-.456 1.824-.876 2.772-1.75l1.777.81c.52-.424 1.026-.743 1.673-.942l-.209-2.876s4.543-4.809 1.63-10.498c-2.828-5.524-11.701-7.564-18.03-2.965-2.308-.61-4.251.481-4.908 1.488 0 0 0 0 0 0z"
 fill="none" stroke="#3e2730" stroke-width=".515" stroke-linecap="round" stroke-linejoin="round" />
</g>
</svg>