<svg width="100" height="100" viewBox="0 0 26 26"><defs><radialGradient id="prefix__a" cx="-379" cy="315" r="93" gradientTransform="matrix(.14 0 0 .14 66 -31)" gradientUnits="userSpaceOnUse"><stop stop-color="#fff" offset="0"/><stop stop-color="#fff" stop-opacity="0" offset="1"/></radialGradient></defs><path d="M9.5 0l.74 6.9-4.3-5.2-4.6 4.6 5.4 4.3-6.7-.67v6.5l6.9-.74-5.2 4.3 4.6 4.6 4.3-5.4-.67 6.7h6.5l-.74-6.9 4.3 5.2 4.6-4.6-5.4-4.3 6.7.67v-6.5l-6.9.74 5.2-4.3-4.6-4.6-4.3 5.4L16 0zm4.7 9.9l1.8 1.8.02 2.5-1.8 1.8-2.5.02-1.8-1.8-.021-2.5 1.8-1.8z" fill="url(#prefix__a)" paint-order="stroke fill markers"/></svg>