<svg width="100" height="100" viewBox="0 0 26.458 26.458">
   <path
      d="M5.337 2.033c-.467 0-.833.437-.795.872a.796.796 0 001.586-.15V2.75a.796.796 0 00-.79-.718zm8.398.622a.667.667 0 00-.653.718.655.655 0 001.303-.124v-.004a.655.655 0 00-.65-.59zM6.395 3.66l-.346.288 1.739 2.977a3.453 3.453 0 00-.573.735l-2.756.125c-2.156.201-3.81 2.233-3.616 4.39l.819 9.11c.194 2.156 2.074 3.535 4.224 3.28l5.999-.988-4.941-1.395-1.276.034s-1.446.097-1.495-1.14l-.368-9.194c-.029-.726.505-1.032 1.11-1.058l12.488-1.199c.855-.097 1.395.607 1.47 1.277l1.42 8.513.497-8.64c-.013-2.363-2.207-3.736-4.363-3.534l-3.48.158a3.453 3.453 0 00-.672-.703l.977-2.279-.249-.135L11.5 6.233c-.782-.28-1.72-.395-2.516-.092z"
      fill="#74bb01" />
   <path
      d="M21.015 8.717c.222.515.352 1.359.33 1.939l.508.138s1.388.273 1.15 1.488l-1.787 9.068c-.14.713-.69.472-1.281.341L7.326 19.305c-.85-.127-1.19-.946-1.09-1.613l.383-6.098-.477.029L4.547 17.3c-.429 2.34 1.166 4.18 3.3 4.544l11.74 2.9c2.135.364 4.265-1.17 4.63-3.304l1.302-8.312c.335-2.139-1.088-3.951-3.23-4.262z"
      fill="#017bcc" />
</svg>